<?xml version="1.0" standalone="no"?>
<!DOCTYPE svg PUBLIC "-//W3C//DTD SVG 1.1//EN" "http://www.w3.org/Graphics/SVG/1.1/DTD/svg11.dtd" >
<svg xmlns="http://www.w3.org/2000/svg" xmlns:xlink="http://www.w3.org/1999/xlink" version="1.1">
<metadata>
Created by FontForge 20170731 at Sun May 19 03:14:41 2019
 By Aleksey,,,
Copyright (c) 2018 Monotype GmbH. All rights reserved.
</metadata>
<defs>
<font id="AvenirBlack" horiz-adv-x="0" >
  <font-face 
    font-family="AvenirBlack"
    font-weight="900"
    font-stretch="normal"
    units-per-em="1000"
    panose-1="2 11 8 3 2 2 3 2 2 4"
    ascent="800"
    descent="-200"
    x-height="486"
    cap-height="708"
    bbox="-188 -491 1420 1084"
    underline-thickness="50"
    underline-position="-175"
    unicode-range="U+000D-FEFF"
  />
<missing-glyph horiz-adv-x="512" 
d="M512 718v-718h-512v718h512zM462 50v617h-412v-617h412zM259 609q55 0 89.5 -36.5t34.5 -94.5q0 -38 -14 -63.5t-51 -57.5q-35 -32 -41 -50q-6 -14 -6 -73h-46l-2 19q0 52 13 79.5t51 63.5q45 42 45 78q0 35 -23 60t-53 25q-70 0 -82 -95l-50 8q6 67 41 102t94 35z
M222 184h56v-67h-56v67z" />
    <glyph glyph-name="uniFB51" unicode="&#x671;" horiz-adv-x="292" arabic-form="final" 
d="M292 0q-129 0 -181.5 47t-52.5 149v560h148v-558q0 -36 20 -52.5t66 -16.5q20 0 20 -69q0 -60 -20 -60zM-2 802v65h40v100h61v-40q36 43 83 43q39 0 62.5 -25t23.5 -68q0 -36 -16 -75h-254zM95 867h104q2 6 2 8q0 12 -10 20.5t-27 8.5q-37 0 -69 -37z" />
    <glyph glyph-name="uniFB57" unicode="&#x67e;" horiz-adv-x="1013" arabic-form="final" 
d="M1013 129q20 0 20 -69q0 -60 -20 -60q-90 0 -130 45q-43 -45 -129 -45h-475q-120 0 -189.5 58.5t-69.5 151.5q0 77 32 162l127 -33q-16 -69 -16 -98q0 -52 38 -82t102 -30h397q42 0 59 19t17 65v213h148v-205q0 -92 89 -92zM455 -153q0 -32 -20.5 -53t-52.5 -21t-53.5 21
t-21.5 53t21.5 53.5t53.5 21.5t52.5 -21.5t20.5 -53.5zM562 -78q31 0 52 -21.5t21 -53.5t-20.5 -53t-52.5 -21t-53.5 21t-21.5 53t21.5 53.5t53.5 21.5zM474 -228q33 0 53 -21.5t20 -54.5q0 -32 -20 -52.5t-53 -20.5q-32 0 -53.5 21t-21.5 52q0 33 21.5 54.5t53.5 21.5z" />
    <glyph glyph-name="uniFB58" unicode="&#x67e;" horiz-adv-x="312" arabic-form="initial" 
d="M0 0v129h29q60 0 78.5 21t18.5 85v191h148v-209q0 -122 -54.5 -169.5t-186.5 -47.5h-33zM76 -227q-32 0 -53.5 21t-21.5 53t21.5 53.5t53.5 21.5t52.5 -21.5t20.5 -53.5t-20.5 -53t-52.5 -21zM256 -227q-32 0 -53.5 21t-21.5 53t21.5 53.5t53.5 21.5q31 0 52 -21.5
t21 -53.5t-20.5 -53t-52.5 -21zM168 -377q-32 0 -53.5 21t-21.5 52q0 33 21.5 54.5t53.5 21.5q33 0 53 -21.5t20 -54.5q0 -32 -20 -52.5t-53 -20.5z" />
    <glyph glyph-name="uniFB59" unicode="&#x67e;" horiz-adv-x="363" arabic-form="medial" 
d="M363 129q20 0 20 -69q0 -60 -20 -60q-98 0 -137 54q-53 -54 -193 -54h-33v129h29q60 0 78.5 21t18.5 85v191h148v-205q0 -92 89 -92zM162 -153q0 -32 -20.5 -53t-52.5 -21t-53.5 21t-21.5 53t21.5 53.5t53.5 21.5t52.5 -21.5t20.5 -53.5zM269 -78q31 0 52 -21.5t21 -53.5
t-20.5 -53t-52.5 -21t-53.5 21t-21.5 53t21.5 53.5t53.5 21.5zM181 -228q33 0 53 -21.5t20 -54.5q0 -32 -20 -52.5t-53 -20.5q-32 0 -53.5 21t-21.5 52q0 33 21.5 54.5t53.5 21.5z" />
    <glyph glyph-name="uniFB67" unicode="&#x679;" horiz-adv-x="1013" arabic-form="final" 
d="M20 210q0 77 32 162l127 -33q-16 -69 -16 -98q0 -52 38 -82t102 -30h397q42 0 59 19t17 65v213h148v-205q0 -92 89 -92q20 0 20 -69q0 -60 -20 -60q-90 0 -130 45q-43 -45 -129 -45h-475q-120 0 -189.5 58.5t-69.5 151.5zM604 433h-288v73h45v172h68v-95q35 48 89 48
q47 0 75.5 -30.5t28.5 -82.5q0 -37 -18 -85zM429 506h117q1 4 1 12q0 19 -10.5 29.5t-27.5 10.5q-45 0 -80 -52z" />
    <glyph glyph-name="uniFB68" unicode="&#x679;" horiz-adv-x="281" arabic-form="initial" 
d="M235 217q0 -123 -55.5 -170t-179.5 -47v129q52 0 69.5 20.5t17.5 85.5v191h148v-209zM-7 546v73h45v172h68v-95q35 48 89 48q47 0 75.5 -30.5t28.5 -82.5q0 -37 -18 -85h-288zM186 671q-45 0 -80 -52h117q1 4 1 12q0 19 -10.5 29.5t-27.5 10.5z" />
    <glyph glyph-name="uniFB69" unicode="&#x679;" horiz-adv-x="324" arabic-form="medial" 
d="M0 0v129q52 0 69.5 20.5t17.5 85.5v191h148v-205q0 -92 89 -92q20 0 20 -69q0 -60 -20 -60q-98 0 -137 54q-51 -54 -187 -54zM281 546h-288v73h45v172h68v-95q35 48 89 48q47 0 75.5 -30.5t28.5 -82.5q0 -37 -18 -85zM106 619h117q1 4 1 12q0 19 -10.5 29.5t-27.5 10.5
q-45 0 -80 -52z" />
    <glyph glyph-name="uniFB6B" unicode="&#x6a4;" horiz-adv-x="1106" arabic-form="final" 
d="M289 0q-120 0 -189.5 58.5t-69.5 151.5q0 77 32 162l127 -33q-16 -69 -16 -98q0 -52 38 -82t102 -30h290q-28 45 -28 101q0 84 64.5 145.5t178.5 61.5q111 0 174.5 -59.5t63.5 -141.5q0 -56 -33 -107h83q20 0 20 -69q0 -60 -20 -60h-112q-96 0 -185 13q-95 -13 -172 -13
h-348zM816 303q-41 0 -67 -21.5t-26 -55.5q0 -35 31.5 -63t59.5 -33q28 2 60.5 30t32.5 65q0 33 -24.5 55.5t-66.5 22.5zM727 541q-32 0 -53.5 22t-21.5 54t21.5 53t53.5 21t52.5 -21t20.5 -53q0 -33 -20.5 -54.5t-52.5 -21.5zM832 617q0 32 21.5 53t53.5 21t52.5 -21
t20.5 -53t-21 -54t-52 -22q-32 0 -53.5 22t-21.5 54zM820 694q-31 0 -52 22t-21 53q0 32 21 54t52 22q33 0 53.5 -22t20.5 -54t-20.5 -53.5t-53.5 -21.5z" />
    <glyph glyph-name="uniFB6C" unicode="&#x6a4;" horiz-adv-x="589" arabic-form="initial" 
d="M0 0v129h77q-13 37 -13 77q0 101 67 166t182 65q53 0 95 -15.5t67.5 -39.5t42.5 -54.5t23.5 -59t6.5 -55.5q0 -105 -40 -213h-508zM310 303q-47 0 -72.5 -25.5t-25.5 -68.5q0 -39 16 -80h164q7 35 7 68q0 46 -21.5 76t-67.5 30zM222 541q-32 0 -53.5 22t-21.5 54t21.5 53
t53.5 21t52.5 -21t20.5 -53q0 -33 -20.5 -54.5t-52.5 -21.5zM327 617q0 32 21.5 53t53.5 21t52.5 -21t20.5 -53t-21 -54t-52 -22q-32 0 -53.5 22t-21.5 54zM315 694q-31 0 -52 22t-21 53q0 32 21 54t52 22q33 0 53.5 -22t20.5 -54t-20.5 -53.5t-53.5 -21.5z" />
    <glyph glyph-name="uniFB6D" unicode="&#x6a4;" horiz-adv-x="595" arabic-form="medial" 
d="M126 0h-126v129h92q-28 45 -28 101q0 84 64.5 145.5t178.5 61.5q111 0 174.5 -59.5t63.5 -141.5q0 -56 -33 -107h83q20 0 20 -69q0 -60 -20 -60h-112q-96 0 -185 13q-95 -13 -172 -13zM212 226q0 -35 31.5 -63t59.5 -33q28 2 60.5 30t32.5 65q0 33 -24.5 55.5t-66.5 22.5
q-41 0 -67 -21.5t-26 -55.5zM216 541q-32 0 -53.5 22t-21.5 54t21.5 53t53.5 21t52.5 -21t20.5 -53q0 -33 -20.5 -54.5t-52.5 -21.5zM321 617q0 32 21.5 53t53.5 21t52.5 -21t20.5 -53t-21 -54t-52 -22q-32 0 -53.5 22t-21.5 54zM309 694q-31 0 -52 22t-21 53q0 32 21 54
t52 22q33 0 53.5 -22t20.5 -54t-20.5 -53.5t-53.5 -21.5z" />
    <glyph glyph-name="uniFB7B" unicode="&#x686;" horiz-adv-x="606" arabic-form="final" 
d="M253 -260q-101 0 -166.5 50.5t-65.5 136.5q0 95 59.5 148.5t162.5 53.5h173v3q0 93 -34 132t-110 39q-46 0 -96 -11l-32 122q58 23 136 23q274 0 274 -286v-22h52q20 0 20 -69q0 -60 -20 -60h-359q-34 0 -54 -18t-20 -49t22.5 -49t52.5 -18h1l6 -126h-2zM331 -133
q-23 0 -38 15t-15 37t15.5 37t37.5 15t36.5 -15t14.5 -37q0 -23 -14.5 -37.5t-36.5 -14.5zM404 -81q0 22 15.5 37t37.5 15t36.5 -15t14.5 -37t-14.5 -37t-36.5 -15q-23 0 -38 15t-15 37zM395 -238q-22 0 -37 14.5t-15 36.5q0 23 15 38t37 15q23 0 37 -15t14 -38
q0 -22 -14 -36.5t-37 -14.5z" />
    <glyph glyph-name="uniFB7C" unicode="&#x686;" horiz-adv-x="473" arabic-form="initial" 
d="M0 0v129h281q10 76 -20 125t-115 49q-45 0 -95 -11l-33 122q63 23 137 23q349 0 259 -437h-414zM114 -227q-32 0 -53.5 21t-21.5 53t21.5 53.5t53.5 21.5t52.5 -21.5t20.5 -53.5t-20.5 -53t-52.5 -21zM294 -227q-32 0 -53.5 21t-21.5 53t21.5 53.5t53.5 21.5
q31 0 52 -21.5t21 -53.5t-20.5 -53t-52.5 -21zM206 -377q-32 0 -53.5 21t-21.5 52q0 33 21.5 54.5t53.5 21.5q33 0 53 -21.5t20 -54.5q0 -32 -20 -52.5t-53 -20.5z" />
    <glyph glyph-name="uniFB7D" unicode="&#x686;" horiz-adv-x="471" arabic-form="medial" 
d="M0 129h281q10 76 -20 125t-115 49q-45 0 -95 -11l-33 122q63 23 137 23q293 0 276 -308h40q20 0 20 -69q0 -60 -20 -60h-471v129zM131 -304q0 33 21.5 54.5t53.5 21.5q33 0 53 -21.5t20 -54.5q0 -32 -20 -52.5t-53 -20.5q-32 0 -53.5 21t-21.5 52zM39 -153
q0 32 21.5 53.5t53.5 21.5t52.5 -21.5t20.5 -53.5t-20.5 -53t-52.5 -21t-53.5 21t-21.5 53zM219 -153q0 32 21.5 53.5t53.5 21.5q31 0 52 -21.5t21 -53.5t-20.5 -53t-52.5 -21t-53.5 21t-21.5 53z" />
    <glyph glyph-name="uniFB89" unicode="&#x688;" horiz-adv-x="509" arabic-form="final" 
d="M509 0h-479v129h280q-5 62 -60 122t-107 90l90 119q116 -75 165 -154.5t58 -176.5h53q20 0 20 -69q0 -60 -20 -60zM14 527v73h45v172h68v-95q35 48 89 48q47 0 75.5 -30.5t28.5 -82.5q0 -37 -18 -85h-288zM127 600h117q1 4 1 12q0 19 -10.5 29.5t-27.5 10.5
q-45 0 -80 -52z" />
    <glyph glyph-name="uniFB8B" unicode="&#x698;" horiz-adv-x="337" arabic-form="final" 
d="M185 683q-31 0 -52 22t-21 53q0 32 21 54t52 22q33 0 53.5 -22t20.5 -54t-20.5 -53.5t-53.5 -21.5zM92 530q-32 0 -53.5 22t-21.5 54t21.5 53t53.5 21t52.5 -21t20.5 -53q0 -33 -20.5 -54.5t-52.5 -21.5zM197 606q0 32 21.5 53t53.5 21t52.5 -21t20.5 -53t-21 -54
t-52 -22q-32 0 -53.5 22t-21.5 54zM337 129q20 0 20 -69q0 -60 -20 -60h-83q-13 -95 -71.5 -140.5t-169.5 -50.5l-18 125q64 7 89.5 28t25.5 70v394h148v-297h79z" />
    <glyph glyph-name="uniFB8D" unicode="&#x691;" horiz-adv-x="337" arabic-form="final" 
d="M13 -191l-18 125q64 7 89.5 28t25.5 70v394h148v-297h79q20 0 20 -69q0 -60 -20 -60h-83q-13 -95 -71.5 -140.5t-169.5 -50.5zM303 546h-288v73h45v172h68v-95q35 48 89 48q47 0 75.5 -30.5t28.5 -82.5q0 -37 -18 -85zM128 619h117q1 4 1 12q0 19 -10.5 29.5t-27.5 10.5
q-45 0 -80 -52z" />
    <glyph glyph-name="uniFB8F" unicode="&#x6a9;" horiz-adv-x="890" arabic-form="final" 
d="M279 0q-120 0 -189.5 58.5t-69.5 151.5q0 77 32 162l127 -33q-16 -69 -16 -98q0 -52 38 -82t102 -30h379q-1 58 -21 95.5t-79.5 69t-165.5 51.5v139l283 273l96 -98l-230 -222q80 -23 133 -55t80 -74t38 -83t13 -96h61q20 0 20 -69q0 -60 -20 -60h-611z" />
    <glyph glyph-name="uniFB90" unicode="&#x6a9;" horiz-adv-x="478" arabic-form="initial" 
d="M173 437q70 -20 119.5 -48.5t77.5 -59t43.5 -72t20 -77.5t4.5 -87v-93h-438v129h290q-1 58 -21 95.5t-79.5 69t-165.5 51.5v139l283 273l96 -98z" />
    <glyph glyph-name="uniFB91" unicode="&#x6a9;" horiz-adv-x="504" arabic-form="medial" 
d="M0 0v129h290q-1 58 -21 95.5t-79.5 69t-165.5 51.5v139l283 273l96 -98l-230 -222q80 -23 133 -55t80 -74t38 -83t13 -96h67q20 0 20 -69q0 -60 -20 -60h-504z" />
    <glyph glyph-name="uniFB93" unicode="&#x6af;" horiz-adv-x="890" arabic-form="final" 
d="M279 0q-120 0 -189.5 58.5t-69.5 151.5q0 77 32 162l127 -33q-16 -69 -16 -98q0 -52 38 -82t102 -30h379q-1 58 -21 95.5t-79.5 69t-165.5 51.5v139l283 273l96 -98l-230 -222q80 -23 133 -55t80 -74t38 -83t13 -96h61q20 0 20 -69q0 -60 -20 -60h-611zM399 547l-69 69
l262 250l68 -69z" />
    <glyph glyph-name="uniFB94" unicode="&#x6af;" horiz-adv-x="478" arabic-form="initial" 
d="M268 797l-261 -250l-69 69l262 250zM173 437q70 -20 119.5 -48.5t77.5 -59t43.5 -72t20 -77.5t4.5 -87v-93h-438v129h290q-1 58 -21 95.5t-79.5 69t-165.5 51.5v139l283 273l96 -98z" />
    <glyph glyph-name="uniFB95" unicode="&#x6af;" horiz-adv-x="504" arabic-form="medial" 
d="M0 129h290q-1 58 -21 95.5t-79.5 69t-165.5 51.5v139l283 273l96 -98l-230 -222q80 -23 133 -55t80 -74t38 -83t13 -96h67q20 0 20 -69q0 -60 -20 -60h-504v129zM-62 616l262 250l68 -69l-261 -250z" />
    <glyph glyph-name="uniFB9F" unicode="&#x6ba;" horiz-adv-x="656" arabic-form="final" 
d="M656 129q20 0 20 -69q0 -60 -20 -60h-78q-20 -93 -93.5 -138t-184.5 -45q-71 0 -126.5 22.5t-88 60t-49 80.5t-16.5 88q0 85 46 190l129 -46q-27 -72 -27 -124q0 -64 36 -100.5t99 -36.5q66 0 100 35t34 121v246h148v-224h71z" />
    <glyph glyph-name="uniFBA7" unicode="&#x6c1;" horiz-adv-x="578" arabic-form="final" 
d="M143 -22l-113 48q118 273 283 273q49 0 85 -23t71 -77q30 -43 50.5 -56.5t58.5 -13.5q20 0 20 -69q0 -60 -20 -60q-83 0 -127 22.5t-84 84.5q-23 36 -37 49.5t-30 13.5q-33 0 -75.5 -52.5t-81.5 -139.5z" />
    <glyph glyph-name="uniFBA8" unicode="&#x6c1;" horiz-adv-x="281" arabic-form="initial" 
d="M0 0v129q52 0 69.5 20.5t17.5 85.5v191h148v-209q0 -123 -55.5 -170t-179.5 -47zM87 -297q-41 61 -41 142q0 61 22 113l94 -19q-8 -30 -8 -59q0 -67 42 -127z" />
    <glyph glyph-name="uniFBA9" unicode="&#x6c1;" horiz-adv-x="521" arabic-form="medial" 
d="M0 0v129h199q-30 -78 -34 -129q0 -46 14.5 -73.5t54.5 -40.5q6 243 279 243h8q20 0 20 -69q0 -60 -20 -60h-6q-88 0 -127 -43t-39 -142q0 -36 2 -56q-12 -1 -35 -1q-125 0 -207.5 55t-82.5 150q0 17 3 37h-29z" />
    <glyph glyph-name="uniFBAB" unicode="&#x6be;" horiz-adv-x="721" arabic-form="final" 
d="M30 29l30 126q84 -26 183 -26h4v51q0 113 59 182.5t164 69.5q59 0 103 -21.5t66 -55.5t32.5 -67t10.5 -64q0 -51 -19 -95h58q20 0 20 -69q0 -60 -20 -60h-63q27 -44 27 -86q0 -69 -53 -111.5t-149 -42.5q-126 0 -181 54t-55 155v31h-5q-127 0 -212 29zM395 129h40
q99 0 99 93q0 32 -16.5 54t-49.5 22q-34 0 -53.5 -24t-19.5 -65v-80zM520 0h-125v-18q0 -45 18 -66.5t60 -21.5q64 0 64 52q0 29 -17 54z" />
    <glyph glyph-name="uniFBAC" unicode="&#x6be;" horiz-adv-x="647" arabic-form="initial" 
d="M0 129h71q-23 41 -23 95q0 74 43 120q-10 0 -29 1t-28 1l17 115q70 -2 123.5 -6t115 -13.5t106.5 -24t88.5 -39.5t71 -59t44 -82.5t16.5 -108.5q0 -56 -15 -128h-257q-67 0 -117 20q-43 -20 -120 -20h-107v129zM170 238q0 -66 59 -107q65 37 65 107q0 35 -16.5 55.5
t-45.5 20.5q-28 0 -45 -20.5t-17 -55.5zM392 129h100q1 5 1 14q0 92 -87 139q10 -26 10 -55q0 -53 -24 -98z" />
    <glyph glyph-name="uniFBAD" unicode="&#x6be;" horiz-adv-x="515" arabic-form="medial" 
d="M0 129h41v51q0 113 59 182.5t164 69.5q59 0 103 -21.5t66 -55.5t32.5 -67t10.5 -64q0 -48 -22 -95h61q20 0 20 -69q0 -60 -20 -60h-63q27 -44 27 -86q0 -69 -53 -111.5t-149 -42.5q-126 0 -181 54t-55 155v31h-41v129zM189 126h40q46 0 72.5 24.5t26.5 71.5
q0 32 -16.5 54t-49.5 22q-34 0 -53.5 -24t-19.5 -65v-83zM189 0v-18q0 -45 18 -66.5t60 -21.5q64 0 64 52q0 29 -17 54h-125z" />
    <glyph glyph-name="uniFBAF" unicode="&#x6d2;" horiz-adv-x="441" arabic-form="final" 
d="M363 -260q-193 0 -269 45.5t-76 146.5q0 103 71 150t216 47h136q20 0 20 -69q0 -60 -20 -60h-145q-138 0 -138 -64q0 -34 47 -50t181 -16q186 0 369 28l5 -128q-192 -30 -397 -30z" />
    <glyph glyph-name="uniFBB1" unicode="&#x6d3;" horiz-adv-x="441" arabic-form="final" 
d="M18 -68q0 103 71 150t216 47h136q20 0 20 -69q0 -60 -20 -60h-145q-138 0 -138 -64q0 -34 47 -50t181 -16q186 0 369 28l5 -128q-192 -30 -397 -30q-193 0 -269 45.5t-76 146.5zM157 327h42q-15 25 -15 53q0 45 32.5 73t87.5 28q36 0 67 -7l-14 -83q-18 5 -40 5
q-45 0 -45 -36q0 -16 10 -33h101v-85h-226v85z" />
    <glyph glyph-name="uniFBE8" unicode="&#x649;" horiz-adv-x="281" arabic-form="initial" 
d="M0 0v129q52 0 69.5 20.5t17.5 85.5v191h148v-209q0 -123 -55.5 -170t-179.5 -47z" />
    <glyph glyph-name="uniFBE9" unicode="&#x649;" horiz-adv-x="324" arabic-form="medial" 
d="M324 129q20 0 20 -69q0 -60 -20 -60q-98 0 -137 54q-51 -54 -187 -54v129q52 0 69.5 20.5t17.5 85.5v191h148v-205q0 -92 89 -92z" />
    <glyph glyph-name="uniFBFD" unicode="&#x6cc;" horiz-adv-x="773" arabic-form="final" 
d="M773 129q20 0 20 -69q0 -60 -20 -60h-38q30 -34 30 -83q0 -75 -100 -126t-276 -51q-191 0 -285 68t-94 184q0 60 27 141l131 -35q-10 -51 -10 -84q0 -70 54.5 -100t186.5 -30q109 0 163.5 19.5t54.5 51.5q0 46 -77 66l-149 39l37 110l135 -32q39 -9 99 -9h111z" />
    <glyph glyph-name="uniFBFE" unicode="&#x6cc;" horiz-adv-x="350" arabic-form="initial" 
d="M0 0v129h29q60 0 78.5 21t18.5 85v191h148v-209q0 -122 -54.5 -169.5t-186.5 -47.5h-33zM76 -226q-32 0 -53.5 21t-21.5 52q0 32 21.5 54t53.5 22t52.5 -21.5t20.5 -54.5q0 -32 -20.5 -52.5t-52.5 -20.5zM256 -226q-32 0 -53.5 21t-21.5 52q0 32 21.5 54t53.5 22
q31 0 52 -22t21 -54q0 -31 -20.5 -52t-52.5 -21z" />
    <glyph glyph-name="uniFBFF" unicode="&#x6cc;" horiz-adv-x="363" arabic-form="medial" 
d="M363 129q20 0 20 -69q0 -60 -20 -60q-98 0 -137 54q-53 -54 -193 -54h-33v129h29q60 0 78.5 21t18.5 85v191h148v-205q0 -92 89 -92zM89 -77q32 0 52.5 -21.5t20.5 -54.5q0 -32 -20.5 -52.5t-52.5 -20.5t-53.5 21t-21.5 52q0 32 21.5 54t53.5 22zM269 -77q31 0 52 -22
t21 -54q0 -31 -21 -52t-52 -21q-32 0 -53.5 21t-21.5 52q0 32 21.5 54t53.5 22z" />
    <glyph glyph-name="uniFDF2" unicode="&#xfdf2;" horiz-adv-x="1478" arabic-form="isolated" 
d="M21 208q0 88 70.5 153t203.5 65h205v-219q0 -44 15 -61t57 -17q51 0 68.5 23t17.5 83v351h148v-369q0 -88 89 -88q51 0 68.5 23t17.5 83v521h148v-539q0 -123 -55 -170t-179 -47q-97 1 -136 54q-53 -54 -187 -54q-131 0 -175 37q-63 -30 -137 -30q-100 0 -169.5 52
t-69.5 149zM1272 0v756h148v-756h-148zM275 297q-48 0 -75 -21t-27 -58q0 -76 108 -76q40 0 63 9v146h-69zM601 706q0 27 11 56l40 -10q-3 -14 -3 -23q0 -32 27 -32q23 0 23 32q0 9 -1 14l41 8q4 -24 4 -36v-3q12 -7 26 -7q21 0 21 27q0 16 -7 34l46 18q18 -37 18 -71
q0 -33 -17.5 -52.5t-45.5 -19.5q-29 0 -54 19q-18 -26 -56 -26q-34 0 -53.5 19t-19.5 53zM696 796h-6v141h68v-124z" />
    <glyph glyph-name="uniFDFA" unicode="&#xfdfa;" horiz-adv-x="1166" arabic-form="isolated" 
d="M35 265q0 95 121 95h80v-66q0 -22 18 -22h3q14 0 18.5 4.5t4.5 18.5v65h92v-69q0 -19 18 -19h130v50h91v-50h167q17 0 17 23v143h92v-153q0 -13 14 -13h99q-4 18 -4 23q0 36 25.5 57t71.5 21q27 0 56 -8l-16 -76q-12 3 -24 3q-16 0 -16 -11q0 -5 2 -9h64v-88h-261
q-34 0 -51 11q-18 -11 -66 -11h-170v-182q0 -11 12 -11h5q7 0 7 6v63h92v-65q0 -4 7 -4q8 0 8 5v64h91v-66q0 -3 8 -3t8 4v91h91v-120q0 -63 -82 -63q-24 0 -49 11q-23 -11 -53 -11q-34 0 -57 11q-26 -11 -63 -11h-13q-33 0 -51 11q-20 -11 -67 -11h-173q-24 -35 -80 -35
h-71q-14 15 -22 35h-4q-13 0 -13 -19v-74h-87v94q0 87 83 87h11q8 35 35.5 55.5t69.5 20.5q37 0 63 -19.5t32 -56.5h152q11 0 15 4.5t4 16.5v172h-137q-34 0 -51 11q-20 -11 -72 -11h-18q-44 0 -63 12q-23 -11 -60 -11t-60.5 21.5t-23.5 58.5zM443 444q0 22 14 49l85 -16
q-4 -8 -4 -16q0 -24 47 -24q59 0 59 25q0 6 -8.5 10.5t-41.5 14.5l24 77q45 -11 72 -11q9 0 12.5 5t3.5 19v174h90v-186q0 -12 11 -12q10 0 10 12v63h92v-64q0 -11 12 -11q47 101 133 101q100 0 100 -109q0 -33 -12 -80h-216q-31 0 -56 11q-19 -11 -60 -11q-27 0 -40 11
q-19 -11 -40 -11q9 -11 9 -28q0 -37 -43 -63t-116 -26q-68 0 -102.5 25.5t-34.5 70.5zM28 546q0 95 122 95h79v-76q0 -12 11 -12q7 0 8.5 2.5t1.5 11.5v130h91v-132q0 -12 10 -12q11 0 11 20v178h92v-190q0 -58 -22.5 -77t-80.5 -19q-33 0 -49 11q-18 -11 -67 -11
q-43 0 -63 12q-23 -11 -60 -11t-60.5 21.5t-23.5 58.5zM959 6q0 38 26.5 61t73.5 23q96 0 96 -103v-57q0 -61 -34 -88t-107 -27q-13 0 -35 1l-5 82q26 -2 34 -2q58 0 55 23q-6 -1 -20 -1q-37 0 -60.5 23t-23.5 65zM478 505v246h92v-246h-92zM231 126q0 18 11.5 30t30.5 12
q17 0 28.5 -12t11.5 -30q0 -17 -11.5 -28.5t-28.5 -11.5q-19 0 -30.5 11.5t-11.5 28.5zM322 126q0 18 11.5 30t30.5 12q17 0 28 -12t11 -30q0 -17 -11 -28.5t-28 -11.5q-19 0 -30.5 11.5t-11.5 28.5zM237 739q0 12 4 24l28 -5q-1 -6 -1 -11t4 -5t4 5v8l27 3q1 -7 1 -16h3
q5 0 5 7q0 6 -2 12l32 9q7 -17 7 -31q0 -16 -9 -24t-22 -8q-12 0 -23 7q-10 -8 -28 -8q-30 0 -30 33zM249 -14q-19 0 -19 -22q0 -9 3 -19h11q25 0 25 21q0 20 -20 20zM1042 1q0 -15 15 -15h15v11q0 20 -15 20t-15 -16zM1013 553h52v1q0 19 -18 19q-19 0 -34 -20zM146 292
q-24 0 -24 -14t18 -14h10v28h-4zM115 559q0 -14 18 -14h10v28h-4q-24 0 -24 -14z" />
    <glyph glyph-name="uniFE82" unicode="&#x622;" horiz-adv-x="292" arabic-form="final" 
d="M205 801q-29 0 -87 13.5t-71 13.5q-23 0 -47 -17l-42 58q42 42 90 42q19 0 74.5 -14.5t78.5 -14.5q24 0 50 23l47 -51q-41 -53 -93 -53zM292 0q-129 0 -181.5 47t-52.5 149v560h148v-558q0 -36 20 -52.5t66 -16.5q20 0 20 -69q0 -60 -20 -60z" />
    <glyph glyph-name="uniFE84" unicode="&#x623;" horiz-adv-x="292" arabic-form="final" 
d="M58 756h148v-558q0 -36 20 -52.5t66 -16.5q20 0 20 -69q0 -60 -20 -60q-129 0 -181.5 47t-52.5 149v560zM218 799h-178v67h32q-11 20 -11 41q0 36 25.5 58t69.5 22q28 0 53 -7l-12 -64q-16 4 -31 4q-35 0 -35 -29q0 -11 7 -25h80v-67z" />
    <glyph glyph-name="uniFE86" unicode="&#x624;" horiz-adv-x="565" arabic-form="final" 
d="M50 207q0 97 66.5 163.5t168.5 66.5q109 0 163.5 -61t54.5 -152v-95h62q20 0 20 -69q0 -60 -20 -60h-65q-12 -91 -75.5 -142.5t-209.5 -51.5q-33 0 -71 3l-8 133q52 -4 72 -4q126 0 143 62h-58q-112 0 -177.5 57t-65.5 150zM167 635h42q-15 25 -15 53q0 45 32.5 73
t87.5 28q36 0 67 -7l-14 -83q-18 5 -40 5q-45 0 -45 -36q0 -16 10 -33h101v-85h-226v85zM202 216q0 -41 23.5 -64t68.5 -23h61v75q0 99 -74 99q-36 0 -57.5 -25.5t-21.5 -61.5z" />
    <glyph glyph-name="uniFE88" unicode="&#x625;" horiz-adv-x="292" arabic-form="final" 
d="M58 756h148v-558q0 -36 20 -52.5t66 -16.5q20 0 20 -69q0 -60 -20 -60q-129 0 -181.5 47t-52.5 149v560zM48 -259v66h33q-12 19 -12 42q0 36 25.5 58t69.5 22q28 0 53 -7l-12 -64q-16 4 -31 4q-35 0 -35 -29q0 -13 8 -26h79v-66h-178z" />
    <glyph glyph-name="uniFE8A" unicode="&#x626;" horiz-adv-x="773" arabic-form="final" 
d="M10 -8q0 60 27 141l131 -35q-10 -51 -10 -84q0 -70 54.5 -100t186.5 -30q109 0 163.5 19.5t54.5 51.5q0 46 -77 66l-149 39l37 110l135 -32q39 -9 99 -9h111q20 0 20 -69q0 -60 -20 -60h-38q30 -34 30 -83q0 -75 -100 -126t-276 -51q-191 0 -285 68t-94 184zM64 300h42
q-15 26 -15 53q0 45 32.5 73t87.5 28q35 0 67 -7l-14 -83q-18 5 -40 5q-45 0 -45 -36q0 -16 10 -33h101v-85h-226v85z" />
    <glyph glyph-name="uniFE8B" unicode="&#x626;" horiz-adv-x="350" arabic-form="initial" 
d="M0 0v129h29q60 0 78.5 21t18.5 85v191h148v-209q0 -122 -54.5 -169.5t-186.5 -47.5h-33zM62 539v85h42q-15 26 -15 53q0 45 32.5 73t87.5 28q35 0 67 -7l-14 -83q-18 5 -40 5q-45 0 -45 -36q0 -16 10 -33h101v-85h-226z" />
    <glyph glyph-name="uniFE8C" unicode="&#x626;" horiz-adv-x="363" arabic-form="medial" 
d="M33 0h-33v129h29q60 0 78.5 21t18.5 85v191h148v-205q0 -92 89 -92q20 0 20 -69q0 -60 -20 -60q-98 0 -137 54q-53 -54 -193 -54zM62 624h42q-15 26 -15 53q0 45 32.5 73t87.5 28q35 0 67 -7l-14 -83q-18 5 -40 5q-45 0 -45 -36q0 -16 10 -33h101v-85h-226v85z" />
    <glyph glyph-name="uniFE8E" unicode="&#x627;" horiz-adv-x="292" arabic-form="final" 
d="M292 0q-129 0 -181.5 47t-52.5 149v560h148v-558q0 -36 20 -52.5t66 -16.5q20 0 20 -69q0 -60 -20 -60z" />
    <glyph glyph-name="uniFE90" unicode="&#x628;" horiz-adv-x="1013" arabic-form="final" 
d="M1013 129q20 0 20 -69q0 -60 -20 -60q-90 0 -130 45q-43 -45 -129 -45h-475q-120 0 -189.5 58.5t-69.5 151.5q0 77 32 162l127 -33q-16 -69 -16 -98q0 -52 38 -82t102 -30h397q42 0 59 19t17 65v213h148v-205q0 -92 89 -92zM474 -77q33 0 52.5 -21.5t19.5 -54.5
q0 -32 -19.5 -52.5t-52.5 -20.5t-53.5 20.5t-20.5 52.5q0 33 20.5 54.5t53.5 21.5z" />
    <glyph glyph-name="uniFE91" unicode="&#x628;" horiz-adv-x="281" arabic-form="initial" 
d="M0 0v129q52 0 69.5 20.5t17.5 85.5v191h148v-209q0 -123 -55.5 -170t-179.5 -47zM121 -226q-33 0 -53.5 20.5t-20.5 52.5q0 33 20.5 54.5t53.5 21.5t52.5 -21.5t19.5 -54.5q0 -32 -19.5 -52.5t-52.5 -20.5z" />
    <glyph glyph-name="uniFE92" unicode="&#x628;" horiz-adv-x="324" arabic-form="medial" 
d="M324 129q20 0 20 -69q0 -60 -20 -60q-98 0 -137 54q-51 -54 -187 -54v129q52 0 69.5 20.5t17.5 85.5v191h148v-205q0 -92 89 -92zM148 -77q33 0 52.5 -21.5t19.5 -54.5q0 -32 -19.5 -52.5t-52.5 -20.5t-53.5 20.5t-20.5 52.5q0 33 20.5 54.5t53.5 21.5z" />
    <glyph glyph-name="uniFE94" unicode="&#x629;" horiz-adv-x="568" arabic-form="final" 
d="M200 542q-32 0 -53.5 21.5t-21.5 53.5t21.5 53t53.5 21t52.5 -21t20.5 -53t-20.5 -53.5t-52.5 -21.5zM380 542q-32 0 -53.5 21.5t-21.5 53.5t21.5 53t53.5 21t52.5 -21t20.5 -53t-21 -53.5t-52 -21.5zM568 129q20 0 20 -69q0 -60 -20 -60q-129 0 -175 37
q-63 -30 -137 -30q-100 0 -167.5 52t-67.5 149q0 88 69 153t201 65h205v-219q0 -44 15 -61t57 -17zM340 151v146h-69q-48 0 -75 -21t-27 -58q0 -76 108 -76q41 0 63 9z" />
    <glyph glyph-name="uniFE96" unicode="&#x62a;" horiz-adv-x="1013" arabic-form="final" 
d="M393 429q-32 0 -53.5 21.5t-21.5 53.5t21.5 53t53.5 21t52.5 -21t20.5 -53t-20.5 -53.5t-52.5 -21.5zM573 429q-32 0 -53.5 21.5t-21.5 53.5t21.5 53t53.5 21t52.5 -21t20.5 -53t-21 -53.5t-52 -21.5zM1013 129q20 0 20 -69q0 -60 -20 -60q-90 0 -130 45
q-43 -45 -129 -45h-475q-120 0 -189.5 58.5t-69.5 151.5q0 77 32 162l127 -33q-16 -69 -16 -98q0 -52 38 -82t102 -30h397q42 0 59 19t17 65v213h148v-205q0 -92 89 -92z" />
    <glyph glyph-name="uniFE97" unicode="&#x62a;" horiz-adv-x="350" arabic-form="initial" 
d="M89 542q-32 0 -53.5 21.5t-21.5 53.5t21.5 53t53.5 21t52.5 -21t20.5 -53t-20.5 -53.5t-52.5 -21.5zM269 542q-32 0 -53.5 21.5t-21.5 53.5t21.5 53t53.5 21t52.5 -21t20.5 -53t-21 -53.5t-52 -21.5zM0 0v129h29q60 0 78.5 21t18.5 85v191h148v-209q0 -122 -54.5 -169.5
t-186.5 -47.5h-33z" />
    <glyph glyph-name="uniFE98" unicode="&#x62a;" horiz-adv-x="363" arabic-form="medial" 
d="M89 542q-32 0 -53.5 21.5t-21.5 53.5t21.5 53t53.5 21t52.5 -21t20.5 -53t-20.5 -53.5t-52.5 -21.5zM269 542q-32 0 -53.5 21.5t-21.5 53.5t21.5 53t53.5 21t52.5 -21t20.5 -53t-21 -53.5t-52 -21.5zM363 129q20 0 20 -69q0 -60 -20 -60q-98 0 -137 54q-53 -54 -193 -54
h-33v129h29q60 0 78.5 21t18.5 85v191h148v-205q0 -92 89 -92z" />
    <glyph glyph-name="uniFE9A" unicode="&#x62b;" horiz-adv-x="1013" arabic-form="final" 
d="M486 570q-31 0 -52 22t-21 53q0 32 21 54t52 22q33 0 53.5 -22t20.5 -54t-20.5 -53.5t-53.5 -21.5zM393 417q-32 0 -53.5 22t-21.5 54t21.5 53t53.5 21t52.5 -21t20.5 -53q0 -33 -20.5 -54.5t-52.5 -21.5zM498 493q0 32 21.5 53t53.5 21t52.5 -21t20.5 -53t-21 -54
t-52 -22q-32 0 -53.5 22t-21.5 54zM1013 129q20 0 20 -69q0 -60 -20 -60q-90 0 -130 45q-43 -45 -129 -45h-475q-120 0 -189.5 58.5t-69.5 151.5q0 77 32 162l127 -33q-16 -69 -16 -98q0 -52 38 -82t102 -30h397q42 0 59 19t17 65v213h148v-205q0 -92 89 -92z" />
    <glyph glyph-name="uniFE9B" unicode="&#x62b;" horiz-adv-x="350" arabic-form="initial" 
d="M182 683q-31 0 -52 22t-21 53q0 32 21 54t52 22q33 0 53.5 -22t20.5 -54t-20.5 -53.5t-53.5 -21.5zM89 530q-32 0 -53.5 22t-21.5 54t21.5 53t53.5 21t52.5 -21t20.5 -53q0 -33 -20.5 -54.5t-52.5 -21.5zM269 530q-32 0 -53.5 22t-21.5 54t21.5 53t53.5 21t52.5 -21
t20.5 -53t-21 -54t-52 -22zM0 0v129h29q60 0 78.5 21t18.5 85v191h148v-209q0 -122 -54.5 -169.5t-186.5 -47.5h-33z" />
    <glyph glyph-name="uniFE9C" unicode="&#x62b;" horiz-adv-x="363" arabic-form="medial" 
d="M182 683q-31 0 -52 22t-21 53q0 32 21 54t52 22q33 0 53.5 -22t20.5 -54t-20.5 -53.5t-53.5 -21.5zM89 530q-32 0 -53.5 22t-21.5 54t21.5 53t53.5 21t52.5 -21t20.5 -53q0 -33 -20.5 -54.5t-52.5 -21.5zM194 606q0 32 21.5 53t53.5 21t52.5 -21t20.5 -53t-21 -54
t-52 -22q-32 0 -53.5 22t-21.5 54zM363 129q20 0 20 -69q0 -60 -20 -60q-98 0 -137 54q-53 -54 -193 -54h-33v129h29q60 0 78.5 21t18.5 85v191h148v-205q0 -92 89 -92z" />
    <glyph glyph-name="uniFE9E" unicode="&#x62c;" horiz-adv-x="606" arabic-form="final" 
d="M253 -260q-101 0 -166.5 50.5t-65.5 136.5q0 95 59.5 148.5t162.5 53.5h173v3q0 93 -34 132t-110 39q-46 0 -96 -11l-32 122q58 23 136 23q274 0 274 -286v-22h52q20 0 20 -69q0 -60 -20 -60h-359q-34 0 -54 -18t-20 -49t22.5 -49t52.5 -18h1l6 -126h-2zM363 -167
q-30 0 -48.5 18t-18.5 47q0 30 18.5 49.5t48.5 19.5q29 0 47 -19.5t18 -49.5q0 -29 -17.5 -47t-47.5 -18z" />
    <glyph glyph-name="uniFE9F" unicode="&#x62c;" horiz-adv-x="473" arabic-form="initial" 
d="M0 0v129h281q10 76 -20 125t-115 49q-45 0 -95 -11l-33 122q63 23 137 23q349 0 259 -437h-414zM206 -226q-33 0 -53.5 20.5t-20.5 52.5q0 33 20.5 54.5t53.5 21.5t52.5 -21.5t19.5 -54.5q0 -32 -19.5 -52.5t-52.5 -20.5z" />
    <glyph glyph-name="uniFEA0" unicode="&#x62c;" horiz-adv-x="471" arabic-form="medial" 
d="M0 129h281q10 76 -20 125t-115 49q-45 0 -95 -11l-33 122q63 23 137 23q293 0 276 -308h40q20 0 20 -69q0 -60 -20 -60h-471v129zM206 -226q-33 0 -53.5 20.5t-20.5 52.5q0 33 20.5 54.5t53.5 21.5t52.5 -21.5t19.5 -54.5q0 -32 -19.5 -52.5t-52.5 -20.5z" />
    <glyph glyph-name="uniFEA2" unicode="&#x62d;" horiz-adv-x="606" arabic-form="final" 
d="M254 -260q-103 0 -168 53t-65 148q0 85 59.5 136.5t158.5 51.5h177v3q0 93 -34 132t-110 39q-46 0 -96 -11l-32 122q58 23 136 23q145 0 214.5 -76t69.5 -210v-22h42q20 0 20 -69q0 -60 -20 -60h-359q-35 0 -56.5 -17t-21.5 -46q0 -63 97 -63q39 0 73 7l26 -123
q-57 -18 -111 -18z" />
    <glyph glyph-name="uniFEA3" unicode="&#x62d;" horiz-adv-x="473" arabic-form="initial" 
d="M0 0v129h281q10 76 -20 125t-115 49q-45 0 -95 -11l-33 122q63 23 137 23q349 0 259 -437h-414z" />
    <glyph glyph-name="uniFEA4" unicode="&#x62d;" horiz-adv-x="471" arabic-form="medial" 
d="M0 0v129h281q10 76 -20 125t-115 49q-45 0 -95 -11l-33 122q63 23 137 23q293 0 276 -308h40q20 0 20 -69q0 -60 -20 -60h-471z" />
    <glyph glyph-name="uniFEA6" unicode="&#x62e;" horiz-adv-x="606" arabic-form="final" 
d="M254 -260q-103 0 -168 53t-65 148q0 85 59.5 136.5t158.5 51.5h177v3q0 93 -34 132t-110 39q-46 0 -96 -11l-32 122q58 23 136 23q145 0 214.5 -76t69.5 -210v-22h42q20 0 20 -69q0 -60 -20 -60h-359q-35 0 -56.5 -17t-21.5 -46q0 -63 97 -63q39 0 73 7l26 -123
q-57 -18 -111 -18zM280 553q-33 0 -53.5 21.5t-20.5 53.5q0 33 20.5 53.5t53.5 20.5t52.5 -20.5t19.5 -53.5q0 -32 -19.5 -53.5t-52.5 -21.5z" />
    <glyph glyph-name="uniFEA7" unicode="&#x62e;" horiz-adv-x="473" arabic-form="initial" 
d="M155 553q-33 0 -53.5 21.5t-20.5 53.5q0 33 20.5 53.5t53.5 20.5t52.5 -20.5t19.5 -53.5q0 -32 -19.5 -53.5t-52.5 -21.5zM0 0v129h281q10 76 -20 125t-115 49q-45 0 -95 -11l-33 122q63 23 137 23q349 0 259 -437h-414z" />
    <glyph glyph-name="uniFEA8" unicode="&#x62e;" horiz-adv-x="471" arabic-form="medial" 
d="M0 0v129h281q10 76 -20 125t-115 49q-45 0 -95 -11l-33 122q63 23 137 23q293 0 276 -308h40q20 0 20 -69q0 -60 -20 -60h-471zM155 553q-33 0 -53.5 21.5t-20.5 53.5q0 33 20.5 53.5t53.5 20.5t52.5 -20.5t19.5 -53.5q0 -32 -19.5 -53.5t-52.5 -21.5z" />
    <glyph glyph-name="uniFEAA" unicode="&#x62f;" horiz-adv-x="509" arabic-form="final" 
d="M30 129h280q-5 62 -60 122t-107 90l90 119q116 -75 165 -154.5t58 -176.5h53q20 0 20 -69q0 -60 -20 -60h-479v129z" />
    <glyph glyph-name="uniFEAC" unicode="&#x630;" horiz-adv-x="509" arabic-form="final" 
d="M30 0v129h280q-5 62 -60 122t-107 90l90 119q116 -75 165 -154.5t58 -176.5h53q20 0 20 -69q0 -60 -20 -60h-479zM108 598q0 33 20.5 53.5t53.5 20.5t52.5 -20.5t19.5 -53.5q0 -32 -19.5 -53.5t-52.5 -21.5t-53.5 21.5t-20.5 53.5z" />
    <glyph glyph-name="uniFEAE" unicode="&#x631;" horiz-adv-x="337" arabic-form="final" 
d="M337 129q20 0 20 -69q0 -60 -20 -60h-83q-13 -95 -71.5 -140.5t-169.5 -50.5l-18 125q64 7 89.5 28t25.5 70v394h148v-297h79z" />
    <glyph glyph-name="uniFEB0" unicode="&#x632;" horiz-adv-x="337" arabic-form="final" 
d="M183 542q-33 0 -53.5 21.5t-20.5 53.5q0 33 20.5 53.5t53.5 20.5t52.5 -20.5t19.5 -53.5q0 -32 -19.5 -53.5t-52.5 -21.5zM337 129q20 0 20 -69q0 -60 -20 -60h-83q-13 -95 -71.5 -140.5t-169.5 -50.5l-18 125q64 7 89.5 28t25.5 70v394h148v-297h79z" />
    <glyph glyph-name="uniFEB2" unicode="&#x633;" horiz-adv-x="1222" arabic-form="final" 
d="M10 68q0 85 46 190l129 -46q-27 -72 -27 -124q0 -64 36 -100.5t99 -36.5q66 0 100 35t34 121v246h148v-168q0 -56 65 -56q42 0 54 18.5t12 61.5v144h148v-168q0 -56 65 -56q42 0 54 18.5t12 61.5v217h148v-205q0 -92 89 -92q20 0 20 -69q0 -60 -20 -60q-97 0 -136 53
q-53 -53 -145 -53q-79 0 -134 38q-52 -38 -142 -38q-57 0 -94 19q-15 -102 -90 -152t-191 -50q-71 0 -126.5 22.5t-88 60t-49 80.5t-16.5 88z" />
    <glyph glyph-name="uniFEB3" unicode="&#x633;" horiz-adv-x="844" arabic-form="initial" 
d="M0 129h26q41 0 53.5 18.5t12.5 61.5v144h148v-168q0 -56 65 -56q42 0 54 18.5t12 61.5v144h148v-168q0 -56 65 -56q41 0 53.5 19t12.5 61v217h148v-253q0 -79 -54 -126t-139 -47q-78 0 -133 38q-52 -38 -142 -38q-98 0 -147 40q-27 -22 -61 -31t-95 -9h-27v129z" />
    <glyph glyph-name="uniFEB4" unicode="&#x633;" horiz-adv-x="887" arabic-form="medial" 
d="M0 0v129h26q41 0 53.5 18.5t12.5 61.5v144h148v-168q0 -56 65 -56q42 0 54 18.5t12 61.5v144h148v-168q0 -56 65 -56q41 0 53.5 19t12.5 61v217h148v-205q0 -92 89 -92q20 0 20 -69q0 -60 -20 -60q-97 0 -136 53q-55 -53 -146 -53q-78 0 -133 38q-52 -38 -142 -38
q-98 0 -147 40q-27 -22 -61 -31t-95 -9h-27z" />
    <glyph glyph-name="uniFEB6" unicode="&#x634;" horiz-adv-x="1222" arabic-form="final" 
d="M10 68q0 85 46 190l129 -46q-27 -72 -27 -124q0 -64 36 -100.5t99 -36.5q66 0 100 35t34 121v246h148v-168q0 -56 65 -56q42 0 54 18.5t12 61.5v144h148v-168q0 -56 65 -56q42 0 54 18.5t12 61.5v217h148v-205q0 -92 89 -92q20 0 20 -69q0 -60 -20 -60q-97 0 -136 53
q-53 -53 -145 -53q-79 0 -134 38q-52 -38 -142 -38q-57 0 -94 19q-15 -102 -90 -152t-191 -50q-71 0 -126.5 22.5t-88 60t-49 80.5t-16.5 88zM614 533q0 32 21.5 53t53.5 21t52.5 -21t20.5 -53q0 -33 -20.5 -54.5t-52.5 -21.5t-53.5 22t-21.5 54zM794 533q0 32 21.5 53
t53.5 21t52.5 -21t20.5 -53t-21 -54t-52 -22q-32 0 -53.5 22t-21.5 54zM709 685q0 32 21 54t52 22q33 0 53.5 -22t20.5 -54t-20.5 -53.5t-53.5 -21.5q-31 0 -52 22t-21 53z" />
    <glyph glyph-name="uniFEB7" unicode="&#x634;" horiz-adv-x="844" arabic-form="initial" 
d="M27 0h-27v129h26q41 0 53.5 18.5t12.5 61.5v144h148v-168q0 -56 65 -56q42 0 54 18.5t12 61.5v144h148v-168q0 -56 65 -56q41 0 53.5 19t12.5 61v217h148v-253q0 -79 -54 -126t-139 -47q-78 0 -133 38q-52 -38 -142 -38q-98 0 -147 40q-27 -22 -61 -31t-95 -9zM278 533
q0 32 21.5 53t53.5 21t52.5 -21t20.5 -53q0 -33 -20.5 -54.5t-52.5 -21.5t-53.5 22t-21.5 54zM458 533q0 32 21.5 53t53.5 21t52.5 -21t20.5 -53t-21 -54t-52 -22q-32 0 -53.5 22t-21.5 54zM446 610q-31 0 -52 22t-21 53q0 32 21 54t52 22q33 0 53.5 -22t20.5 -54
t-20.5 -53.5t-53.5 -21.5z" />
    <glyph glyph-name="uniFEB8" unicode="&#x634;" horiz-adv-x="887" arabic-form="medial" 
d="M27 0h-27v129h26q41 0 53.5 18.5t12.5 61.5v144h148v-168q0 -56 65 -56q42 0 54 18.5t12 61.5v144h148v-168q0 -56 65 -56q41 0 53.5 19t12.5 61v217h148v-205q0 -92 89 -92q20 0 20 -69q0 -60 -20 -60q-97 0 -136 53q-55 -53 -146 -53q-78 0 -133 38q-52 -38 -142 -38
q-98 0 -147 40q-27 -22 -61 -31t-95 -9zM278 533q0 32 21.5 53t53.5 21t52.5 -21t20.5 -53q0 -33 -20.5 -54.5t-52.5 -21.5t-53.5 22t-21.5 54zM533 457q-32 0 -53.5 22t-21.5 54t21.5 53t53.5 21t52.5 -21t20.5 -53t-21 -54t-52 -22zM446 610q-31 0 -52 22t-21 53
q0 32 21 54t52 22q33 0 53.5 -22t20.5 -54t-20.5 -53.5t-53.5 -21.5z" />
    <glyph glyph-name="uniFEBA" unicode="&#x635;" horiz-adv-x="1343" arabic-form="final" 
d="M10 68q0 85 46 190l129 -46q-27 -72 -27 -124q0 -64 36 -100.5t99 -36.5q66 0 100 35t34 121v246h148v-157q0 -27 20.5 -46t55.5 -21q37 76 82.5 134t86.5 90t85.5 52t76.5 26t63 6q116 0 179.5 -69t63.5 -193q0 -14 -2 -46h57q20 0 20 -69q0 -60 -20 -60h-661
q-71 0 -109 27q-13 -106 -88.5 -158t-194.5 -52q-71 0 -126.5 22.5t-88 60t-49 80.5t-16.5 88zM1025 303q-57 0 -112.5 -47t-95.5 -127h323q2 24 2 33q0 66 -30 103.5t-87 37.5z" />
    <glyph glyph-name="uniFEBB" unicode="&#x635;" horiz-adv-x="945" arabic-form="initial" 
d="M662 437q116 0 179 -69t63 -193q0 -83 -26 -175h-580q-81 0 -135 30q-43 -30 -163 -30v129q45 0 56 14.5t11 74.5v135h148v-167q0 -31 10 -43.5t43 -13.5q45 94 101.5 159.5t111.5 95.5t98 41.5t83 11.5zM757 129q2 24 2 33q0 66 -30.5 103.5t-87.5 37.5
q-56 0 -111.5 -47t-95.5 -127h323z" />
    <glyph glyph-name="uniFEBC" unicode="&#x635;" horiz-adv-x="959" arabic-form="medial" 
d="M0 0v129q45 0 56 14.5t11 74.5v135h148v-167q0 -31 10 -43.5t43 -13.5q45 94 101.5 159.5t111.5 95.5t98 41.5t83 11.5q116 0 179 -69t63 -193q0 -14 -2 -46h57q20 0 20 -69q0 -60 -20 -60h-661q-81 0 -135 30q-43 -30 -163 -30zM434 129h323q2 24 2 33q0 66 -30.5 103.5
t-87.5 37.5q-56 0 -111.5 -47t-95.5 -127z" />
    <glyph glyph-name="uniFEBE" unicode="&#x636;" horiz-adv-x="1343" arabic-form="final" 
d="M10 68q0 85 46 190l129 -46q-27 -72 -27 -124q0 -64 36 -100.5t99 -36.5q66 0 100 35t34 121v246h148v-157q0 -27 20.5 -46t55.5 -21q37 76 82.5 134t86.5 90t85.5 52t76.5 26t63 6q116 0 179.5 -69t63.5 -193q0 -14 -2 -46h57q20 0 20 -69q0 -60 -20 -60h-661
q-71 0 -109 27q-13 -106 -88.5 -158t-194.5 -52q-71 0 -126.5 22.5t-88 60t-49 80.5t-16.5 88zM1025 303q-57 0 -112.5 -47t-95.5 -127h323q2 24 2 33q0 66 -30 103.5t-87 37.5zM886 628q0 33 20.5 53.5t53.5 20.5t52.5 -20.5t19.5 -53.5q0 -32 -19.5 -53.5t-52.5 -21.5
t-53.5 21.5t-20.5 53.5z" />
    <glyph glyph-name="uniFEBF" unicode="&#x636;" horiz-adv-x="945" arabic-form="initial" 
d="M561 553q-33 0 -53.5 21.5t-20.5 53.5q0 33 20.5 53.5t53.5 20.5t52.5 -20.5t19.5 -53.5q0 -32 -19.5 -53.5t-52.5 -21.5zM662 437q116 0 179 -69t63 -193q0 -83 -26 -175h-580q-81 0 -135 30q-43 -30 -163 -30v129q45 0 56 14.5t11 74.5v135h148v-167q0 -31 10 -43.5
t43 -13.5q45 94 101.5 159.5t111.5 95.5t98 41.5t83 11.5zM757 129q2 24 2 33q0 66 -30.5 103.5t-87.5 37.5q-56 0 -111.5 -47t-95.5 -127h323z" />
    <glyph glyph-name="uniFEC0" unicode="&#x636;" horiz-adv-x="959" arabic-form="medial" 
d="M0 0v129q45 0 56 14.5t11 74.5v135h148v-167q0 -31 10 -43.5t43 -13.5q45 94 101.5 159.5t111.5 95.5t98 41.5t83 11.5q116 0 179 -69t63 -193q0 -14 -2 -46h57q20 0 20 -69q0 -60 -20 -60h-661q-81 0 -135 30q-43 -30 -163 -30zM434 129h323q2 24 2 33q0 66 -30.5 103.5
t-87.5 37.5q-56 0 -111.5 -47t-95.5 -127zM561 553q-33 0 -53.5 21.5t-20.5 53.5q0 33 20.5 53.5t53.5 20.5t52.5 -20.5t19.5 -53.5q0 -32 -19.5 -53.5t-52.5 -21.5z" />
    <glyph glyph-name="uniFEC2" unicode="&#x637;" horiz-adv-x="840" arabic-form="final" 
d="M20 129h85v627h148v-470q60 77 136.5 114t148.5 37q120 0 183.5 -68.5t63.5 -192.5q0 -15 -2 -47h57q20 0 20 -69q0 -60 -20 -60h-820v129zM253 129h385q2 24 2 33q0 66 -31 103.5t-91 37.5q-62 0 -132.5 -47t-132.5 -127z" />
    <glyph glyph-name="uniFEC3" unicode="&#x637;" horiz-adv-x="797" arabic-form="initial" 
d="M0 0v129h76v627h148v-469q60 76 136.5 113t147.5 37q120 0 184 -68.5t64 -192.5q0 -82 -26 -176h-730zM225 129h383q0 3 1.5 15t1.5 18q0 66 -31 103.5t-91 37.5q-65 0 -134 -47t-130 -127z" />
    <glyph glyph-name="uniFEC4" unicode="&#x637;" horiz-adv-x="811" arabic-form="medial" 
d="M0 129h76v627h148v-469q60 76 136.5 113t147.5 37q120 0 184 -68.5t64 -192.5q0 -15 -2 -47h57q20 0 20 -69q0 -60 -20 -60h-811v129zM225 129h383q0 3 1.5 15t1.5 18q0 66 -31 103.5t-91 37.5q-65 0 -134 -47t-130 -127z" />
    <glyph glyph-name="uniFEC6" unicode="&#x638;" horiz-adv-x="840" arabic-form="final" 
d="M20 129h85v627h148v-470q60 77 136.5 114t148.5 37q120 0 183.5 -68.5t63.5 -192.5q0 -15 -2 -47h57q20 0 20 -69q0 -60 -20 -60h-820v129zM518 303q-62 0 -132.5 -47t-132.5 -127h385q2 24 2 33q0 66 -31 103.5t-91 37.5zM431 628q0 33 20.5 53.5t53.5 20.5t52.5 -20.5
t19.5 -53.5q0 -32 -19.5 -53.5t-52.5 -21.5t-53.5 21.5t-20.5 53.5z" />
    <glyph glyph-name="uniFEC7" unicode="&#x638;" horiz-adv-x="797" arabic-form="initial" 
d="M0 0v129h76v627h148v-469q60 76 136.5 113t147.5 37q120 0 184 -68.5t64 -192.5q0 -82 -26 -176h-730zM225 129h383q0 3 1.5 15t1.5 18q0 66 -31 103.5t-91 37.5q-65 0 -134 -47t-130 -127zM388 628q0 33 20.5 53.5t53.5 20.5t52.5 -20.5t19.5 -53.5q0 -32 -19.5 -53.5
t-52.5 -21.5t-53.5 21.5t-20.5 53.5z" />
    <glyph glyph-name="uniFEC8" unicode="&#x638;" horiz-adv-x="811" arabic-form="medial" 
d="M0 129h76v627h148v-469q60 76 136.5 113t147.5 37q120 0 184 -68.5t64 -192.5q0 -15 -2 -47h57q20 0 20 -69q0 -60 -20 -60h-811v129zM225 129h383q0 3 1.5 15t1.5 18q0 66 -31 103.5t-91 37.5q-65 0 -134 -47t-130 -127zM462 553q-33 0 -53.5 21.5t-20.5 53.5
q0 33 20.5 53.5t53.5 20.5t52.5 -20.5t19.5 -53.5q0 -32 -19.5 -53.5t-52.5 -21.5z" />
    <glyph glyph-name="uniFECA" unicode="&#x639;" horiz-adv-x="577" arabic-form="final" 
d="M577 129q20 0 20 -69q0 -60 -20 -60h-88q-112 0 -207 20q-109 -32 -109 -95q0 -51 89 -51q45 0 75 5l26 -123q-44 -16 -108 -16q-108 0 -171 44.5t-63 127.5q0 122 152 186q-66 103 -129 152q10 89 29 133q116 54 239 54q95 0 150.5 -39t55.5 -109q0 -78 -63 -160h122z
M189 292l-1 -4q73 -68 110 -138q33 23 52 51t19 49q0 23 -22 38t-68 15q-52 0 -90 -11z" />
    <glyph glyph-name="uniFECB" unicode="&#x639;" horiz-adv-x="471" arabic-form="initial" 
d="M0 129h66q-19 45 -19 102q0 93 64.5 149.5t180.5 56.5q65 0 129 -16l-28 -128q-52 10 -86 10q-112 0 -112 -88q0 -45 24 -86h227v-129h-446v129z" />
    <glyph glyph-name="uniFECC" unicode="&#x639;" horiz-adv-x="584" arabic-form="medial" 
d="M584 129q20 0 20 -69q0 -60 -20 -60h-87q-117 0 -205 20q-99 -20 -260 -20h-32v129h159q-57 81 -108 120q11 93 28 134q116 54 240 54q95 0 150 -39t55 -110q0 -76 -62 -159h122zM195 292l-1 -4q75 -68 111 -139q32 17 51.5 46.5t19.5 54.5q0 23 -22 38t-68 15
q-52 0 -91 -11z" />
    <glyph glyph-name="uniFECE" unicode="&#x63a;" horiz-adv-x="577" arabic-form="final" 
d="M302 553q-33 0 -53.5 21.5t-20.5 53.5q0 33 20.5 53.5t53.5 20.5t52.5 -20.5t19.5 -53.5q0 -32 -19.5 -53.5t-52.5 -21.5zM577 129q20 0 20 -69q0 -60 -20 -60h-88q-112 0 -207 20q-109 -32 -109 -95q0 -51 89 -51q45 0 75 5l26 -123q-44 -16 -108 -16q-108 0 -171 44.5
t-63 127.5q0 122 152 186q-66 103 -129 152q10 89 29 133q116 54 239 54q95 0 150.5 -39t55.5 -109q0 -78 -63 -160h122zM189 292l-1 -4q73 -68 110 -138q33 23 52 51t19 49q0 23 -22 38t-68 15q-52 0 -90 -11z" />
    <glyph glyph-name="uniFECF" unicode="&#x63a;" horiz-adv-x="471" arabic-form="initial" 
d="M0 0v129h66q-19 45 -19 102q0 93 64.5 149.5t180.5 56.5q65 0 129 -16l-28 -128q-52 10 -86 10q-112 0 -112 -88q0 -45 24 -86h227v-129h-446zM218 628q0 33 20.5 53.5t53.5 20.5t52.5 -20.5t19.5 -53.5q0 -32 -19.5 -53.5t-52.5 -21.5t-53.5 21.5t-20.5 53.5z" />
    <glyph glyph-name="uniFED0" unicode="&#x63a;" horiz-adv-x="584" arabic-form="medial" 
d="M309 553q-33 0 -53.5 21.5t-20.5 53.5q0 33 20.5 53.5t53.5 20.5t52.5 -20.5t19.5 -53.5q0 -32 -19.5 -53.5t-52.5 -21.5zM584 129q20 0 20 -69q0 -60 -20 -60h-87q-117 0 -205 20q-99 -20 -260 -20h-32v129h159q-57 81 -108 120q11 93 28 134q116 54 240 54
q95 0 150 -39t55 -110q0 -76 -62 -159h122zM195 292l-1 -4q75 -68 111 -139q32 17 51.5 46.5t19.5 54.5q0 23 -22 38t-68 15q-52 0 -91 -11z" />
    <glyph glyph-name="uniFED2" unicode="&#x641;" horiz-adv-x="1106" arabic-form="final" 
d="M289 0q-120 0 -189.5 58.5t-69.5 151.5q0 77 32 162l127 -33q-16 -69 -16 -98q0 -52 38 -82t102 -30h290q-28 45 -28 101q0 84 64.5 145.5t178.5 61.5q111 0 174.5 -59.5t63.5 -141.5q0 -56 -33 -107h83q20 0 20 -69q0 -60 -20 -60h-112q-96 0 -185 13q-95 -13 -172 -13
h-348zM816 303q-41 0 -67 -21.5t-26 -55.5q0 -35 31.5 -63t59.5 -33q28 2 60.5 30t32.5 65q0 33 -24.5 55.5t-66.5 22.5zM744 628q0 33 20.5 53.5t53.5 20.5t52.5 -20.5t19.5 -53.5q0 -32 -19.5 -53.5t-52.5 -21.5t-53.5 21.5t-20.5 53.5z" />
    <glyph glyph-name="uniFED3" unicode="&#x641;" horiz-adv-x="589" arabic-form="initial" 
d="M0 0v129h77q-13 37 -13 77q0 101 67 166t182 65q53 0 95 -15.5t67.5 -39.5t42.5 -54.5t23.5 -59t6.5 -55.5q0 -105 -40 -213h-508zM310 303q-47 0 -72.5 -25.5t-25.5 -68.5q0 -39 16 -80h164q7 35 7 68q0 46 -21.5 76t-67.5 30zM239 628q0 33 20.5 53.5t53.5 20.5
t52.5 -20.5t19.5 -53.5q0 -32 -19.5 -53.5t-52.5 -21.5t-53.5 21.5t-20.5 53.5z" />
    <glyph glyph-name="uniFED4" unicode="&#x641;" horiz-adv-x="595" arabic-form="medial" 
d="M0 129h92q-28 45 -28 101q0 84 64.5 145.5t178.5 61.5q111 0 174.5 -59.5t63.5 -141.5q0 -56 -33 -107h83q20 0 20 -69q0 -60 -20 -60h-112q-96 0 -185 13q-95 -13 -172 -13h-126v129zM212 226q0 -35 31.5 -63t59.5 -33q28 2 60.5 30t32.5 65q0 33 -24.5 55.5t-66.5 22.5
q-41 0 -67 -21.5t-26 -55.5zM233 628q0 33 20.5 53.5t53.5 20.5t52.5 -20.5t19.5 -53.5q0 -32 -19.5 -53.5t-52.5 -21.5t-53.5 21.5t-20.5 53.5z" />
    <glyph glyph-name="uniFED6" unicode="&#x642;" horiz-adv-x="828" arabic-form="final" 
d="M10 68q0 64 27 141l135 -36q-10 -43 -10 -81q0 -31 8.5 -53.5t32 -44t72.5 -32.5t122 -11q177 0 211 49h-49q-127 0 -189.5 55.5t-62.5 151.5t66.5 163t168.5 67q109 0 163.5 -61t54.5 -152v-95h68q20 0 20 -69q0 -60 -20 -60h-81q-54 -183 -352 -183q-385 0 -385 251z
M535 303q-34 0 -55 -25t-21 -63q0 -41 23 -63.5t69 -22.5h61v75q0 99 -77 99zM451 553q-32 0 -53.5 21.5t-21.5 53.5t21.5 53t53.5 21t52.5 -21t20.5 -53t-20.5 -53.5t-52.5 -21.5zM631 553q-32 0 -53.5 21.5t-21.5 53.5t21.5 53t53.5 21t52.5 -21t20.5 -53t-21 -53.5
t-52 -21.5z" />
    <glyph glyph-name="uniFED7" unicode="&#x642;" horiz-adv-x="589" arabic-form="initial" 
d="M0 0v129h77q-13 37 -13 77q0 101 67 166t182 65q53 0 95 -15.5t67.5 -39.5t42.5 -54.5t23.5 -59t6.5 -55.5q0 -105 -40 -213h-508zM310 303q-47 0 -72.5 -25.5t-25.5 -68.5q0 -39 16 -80h164q7 35 7 68q0 46 -21.5 76t-67.5 30zM147 628q0 32 21.5 53t53.5 21t52.5 -21
t20.5 -53t-20.5 -53.5t-52.5 -21.5t-53.5 21.5t-21.5 53.5zM327 628q0 32 21.5 53t53.5 21t52.5 -21t20.5 -53t-21 -53.5t-52 -21.5q-32 0 -53.5 21.5t-21.5 53.5z" />
    <glyph glyph-name="uniFED8" unicode="&#x642;" horiz-adv-x="595" arabic-form="medial" 
d="M0 0v129h92q-28 45 -28 101q0 84 64.5 145.5t178.5 61.5q111 0 174.5 -59.5t63.5 -141.5q0 -56 -33 -107h83q20 0 20 -69q0 -60 -20 -60h-112q-96 0 -185 13q-95 -13 -172 -13h-126zM212 226q0 -35 31.5 -63t59.5 -33q28 2 60.5 30t32.5 65q0 33 -24.5 55.5t-66.5 22.5
q-41 0 -67 -21.5t-26 -55.5zM216 553q-32 0 -53.5 21.5t-21.5 53.5t21.5 53t53.5 21t52.5 -21t20.5 -53t-20.5 -53.5t-52.5 -21.5zM321 628q0 32 21.5 53t53.5 21t52.5 -21t20.5 -53t-21 -53.5t-52 -21.5q-32 0 -53.5 21.5t-21.5 53.5z" />
    <glyph glyph-name="uniFEDA" unicode="&#x643;" horiz-adv-x="899" arabic-form="final" 
d="M20 210q0 77 32 162l127 -33q-16 -69 -16 -98q0 -52 38 -82t102 -30h273q51 0 69 23t18 83v521h148v-552q8 -75 88 -75q20 0 20 -69q0 -60 -20 -60q-97 0 -136 54q-53 -54 -187 -54h-297q-120 0 -189.5 58.5t-69.5 151.5zM316 320v74h38q-10 19 -10 41q0 39 30.5 66.5
t83.5 27.5q25 0 53 -8l-10 -73q-20 4 -32 4q-36 0 -36 -28q0 -17 11 -30h78v-74h-206z" />
    <glyph glyph-name="uniFEDB" unicode="&#x643;" horiz-adv-x="478" arabic-form="initial" 
d="M173 437q70 -20 119.5 -48.5t77.5 -59t43.5 -72t20 -77.5t4.5 -87v-93h-438v129h290q-1 58 -21 95.5t-79.5 69t-165.5 51.5v139l283 273l96 -98z" />
    <glyph glyph-name="uniFEDC" unicode="&#x643;" horiz-adv-x="504" arabic-form="medial" 
d="M0 0v129h290q-1 58 -21 95.5t-79.5 69t-165.5 51.5v139l283 273l96 -98l-230 -222q80 -23 133 -55t80 -74t38 -83t13 -96h67q20 0 20 -69q0 -60 -20 -60h-504z" />
    <glyph glyph-name="uniFEDE" unicode="&#x644;" horiz-adv-x="675" arabic-form="final" 
d="M290 -183q-71 0 -126.5 22.5t-88 59.5t-49 80.5t-16.5 88.5q0 86 47 190l128 -46q-27 -72 -27 -124q0 -64 36 -100.5t99 -36.5q67 0 100.5 35.5t33.5 120.5v649h148v-686q0 -128 -77 -190.5t-208 -62.5zM675 0h-91v129h91q20 0 20 -69q0 -60 -20 -60z" />
    <glyph glyph-name="uniFEDF" unicode="&#x644;" horiz-adv-x="293" arabic-form="initial" 
d="M0 0v129q51 0 69 23t18 83v521h148v-539q0 -123 -55.5 -170t-179.5 -47z" />
    <glyph glyph-name="uniFEE0" unicode="&#x644;" horiz-adv-x="323" arabic-form="medial" 
d="M323 129q20 0 20 -69q0 -60 -20 -60q-97 0 -136 54q-53 -54 -187 -54v129q51 0 69 23t18 83v521h148v-552q8 -75 88 -75z" />
    <glyph glyph-name="uniFEE2" unicode="&#x645;" horiz-adv-x="749" arabic-form="final" 
d="M165 -260h-144v212q0 85 51.5 131t145.5 46h2v17q0 104 68.5 171.5t180.5 67.5q104 0 165.5 -64t61.5 -169q0 -16 -1 -23h54q20 0 20 -69q0 -60 -20 -60h-108q-68 -71 -199 -71h-101q-47 33 -74 71h-24q-40 0 -59 -16t-19 -58v-186zM369 129q6 -46 26 -71h49
q48 0 76 25.5t28 71.5q0 38 -23.5 66.5t-63.5 28.5q-41 0 -67 -30.5t-26 -76.5q0 -9 1 -14z" />
    <glyph glyph-name="uniFEE3" unicode="&#x645;" horiz-adv-x="562" arabic-form="initial" 
d="M260 0h-260v129h67q-21 41 -21 97q0 93 69.5 152t177.5 59q109 0 169 -63t60 -148q0 -41 -11 -77t-38 -71.5t-81.5 -56.5t-131.5 -21zM194 206q0 -40 22 -77h61q97 0 97 90q0 38 -24 61t-63 23q-42 0 -67.5 -25t-25.5 -72z" />
    <glyph glyph-name="uniFEE4" unicode="&#x645;" horiz-adv-x="576" arabic-form="medial" 
d="M0 129h47v17q0 104 68.5 171.5t180.5 67.5q104 0 165.5 -64t61.5 -169q0 -16 -1 -23h54q20 0 20 -69q0 -60 -20 -60h-108q-66 -71 -198 -71h-102q-44 31 -74 71h-94v129zM196 129q3 -41 21 -71h54q48 0 76 25.5t28 71.5q0 38 -23.5 66.5t-63.5 28.5q-44 0 -68.5 -30
t-24.5 -77q0 -9 1 -14z" />
    <glyph glyph-name="uniFEE6" unicode="&#x646;" horiz-adv-x="656" arabic-form="final" 
d="M311 409q-33 0 -53.5 21.5t-20.5 53.5q0 33 20.5 53.5t53.5 20.5t52.5 -20.5t19.5 -53.5q0 -32 -19.5 -53.5t-52.5 -21.5zM656 129q20 0 20 -69q0 -60 -20 -60h-78q-20 -93 -93.5 -138t-184.5 -45q-71 0 -126.5 22.5t-88 60t-49 80.5t-16.5 88q0 85 46 190l129 -46
q-27 -72 -27 -124q0 -64 36 -100.5t99 -36.5q66 0 100 35t34 121v246h148v-224h71z" />
    <glyph glyph-name="uniFEE7" unicode="&#x646;" horiz-adv-x="281" arabic-form="initial" 
d="M161 542q-33 0 -53.5 21.5t-20.5 53.5q0 33 20.5 53.5t53.5 20.5t52.5 -20.5t19.5 -53.5q0 -32 -19.5 -53.5t-52.5 -21.5zM0 0v129q52 0 69.5 20.5t17.5 85.5v191h148v-209q0 -123 -55.5 -170t-179.5 -47z" />
    <glyph glyph-name="uniFEE8" unicode="&#x646;" horiz-adv-x="324" arabic-form="medial" 
d="M161 542q-33 0 -53.5 21.5t-20.5 53.5q0 33 20.5 53.5t53.5 20.5t52.5 -20.5t19.5 -53.5q0 -32 -19.5 -53.5t-52.5 -21.5zM324 129q20 0 20 -69q0 -60 -20 -60q-98 0 -137 54q-51 -54 -187 -54v129q52 0 69.5 20.5t17.5 85.5v191h148v-205q0 -92 89 -92z" />
    <glyph glyph-name="uniFEE9" unicode="&#x647;" horiz-adv-x="526" arabic-form="isolated" 
d="M255 -5q-106 0 -170 54t-64 151q0 108 64.5 172.5t169.5 64.5q104 0 167.5 -65.5t63.5 -171.5q0 -97 -61 -151t-170 -54zM255 129q35 0 57 22t22 60q0 43 -22 67.5t-57 24.5q-37 0 -59.5 -24t-22.5 -66q0 -41 21 -62.5t61 -21.5z" />
    <glyph glyph-name="uniFEEA" unicode="&#x647;" horiz-adv-x="568" arabic-form="final" 
d="M568 129q20 0 20 -69q0 -60 -20 -60q-129 0 -175 37q-63 -30 -137 -30q-100 0 -167.5 52t-67.5 149q0 88 69 153t201 65h205v-219q0 -44 15 -61t57 -17zM340 151v146h-69q-48 0 -75 -21t-27 -58q0 -76 108 -76q41 0 63 9z" />
    <glyph glyph-name="uniFEEB" unicode="&#x647;" horiz-adv-x="647" arabic-form="initial" 
d="M0 129h71q-23 41 -23 95q0 74 43 120q-10 0 -29 1t-28 1l17 115q70 -2 123.5 -6t115 -13.5t106.5 -24t88.5 -39.5t71 -59t44 -82.5t16.5 -108.5q0 -56 -15 -128h-257q-67 0 -117 20q-43 -20 -120 -20h-107v129zM170 238q0 -66 59 -107q65 37 65 107q0 35 -16.5 55.5
t-45.5 20.5q-28 0 -45 -20.5t-17 -55.5zM392 129h100q1 5 1 14q0 92 -87 139q10 -26 10 -55q0 -53 -24 -98z" />
    <glyph glyph-name="uniFEEC" unicode="&#x647;" horiz-adv-x="515" arabic-form="medial" 
d="M0 129h41v51q0 113 59 182.5t164 69.5q59 0 103 -21.5t66 -55.5t32.5 -67t10.5 -64q0 -48 -22 -95h61q20 0 20 -69q0 -60 -20 -60h-63q27 -44 27 -86q0 -69 -53 -111.5t-149 -42.5q-126 0 -181 54t-55 155v31h-41v129zM189 126h40q46 0 72.5 24.5t26.5 71.5
q0 32 -16.5 54t-49.5 22q-34 0 -53.5 -24t-19.5 -65v-83zM189 0v-18q0 -45 18 -66.5t60 -21.5q64 0 64 52q0 29 -17 54h-125z" />
    <glyph glyph-name="uniFEEE" unicode="&#x648;" horiz-adv-x="565" arabic-form="final" 
d="M293 0q-112 0 -177.5 57t-65.5 150q0 97 66.5 163.5t168.5 66.5q109 0 163.5 -61t54.5 -152v-95h62q20 0 20 -69q0 -60 -20 -60h-65q-12 -91 -75.5 -142.5t-209.5 -51.5q-33 0 -71 3l-8 133q52 -4 72 -4q126 0 143 62h-58zM202 216q0 -41 23.5 -64t68.5 -23h61v75
q0 99 -74 99q-36 0 -57.5 -25.5t-21.5 -61.5z" />
    <glyph glyph-name="uniFEF0" unicode="&#x649;" horiz-adv-x="773" arabic-form="final" 
d="M773 129q20 0 20 -69q0 -60 -20 -60h-38q30 -34 30 -83q0 -75 -100 -126t-276 -51q-191 0 -285 68t-94 184q0 60 27 141l131 -35q-10 -51 -10 -84q0 -70 54.5 -100t186.5 -30q109 0 163.5 19.5t54.5 51.5q0 46 -77 66l-149 39l37 110l135 -32q39 -9 99 -9h111z" />
    <glyph glyph-name="uniFEF2" unicode="&#x64a;" horiz-adv-x="773" arabic-form="final" 
d="M773 129q20 0 20 -69q0 -60 -20 -60h-38q30 -34 30 -83q0 -75 -100 -126t-276 -51q-191 0 -285 68t-94 184q0 60 27 141l131 -35q-10 -51 -10 -84q0 -70 54.5 -100t186.5 -30q109 0 163.5 19.5t54.5 51.5q0 46 -77 66l-149 39l37 110l135 -32q39 -9 99 -9h111zM297 -337
q32 0 52.5 -21.5t20.5 -54.5q0 -32 -20.5 -52.5t-52.5 -20.5t-53.5 21t-21.5 52q0 32 21.5 54t53.5 22zM477 -337q31 0 52 -22t21 -54q0 -31 -21 -52t-52 -21q-32 0 -53.5 21t-21.5 52q0 32 21.5 54t53.5 22z" />
    <glyph glyph-name="uniFEF3" unicode="&#x64a;" horiz-adv-x="350" arabic-form="initial" 
d="M0 0v129h29q60 0 78.5 21t18.5 85v191h148v-209q0 -122 -54.5 -169.5t-186.5 -47.5h-33zM76 -226q-32 0 -53.5 21t-21.5 52q0 32 21.5 54t53.5 22t52.5 -21.5t20.5 -54.5q0 -32 -20.5 -52.5t-52.5 -20.5zM256 -226q-32 0 -53.5 21t-21.5 52q0 32 21.5 54t53.5 22
q31 0 52 -22t21 -54q0 -31 -20.5 -52t-52.5 -21z" />
    <glyph glyph-name="uniFEF4" unicode="&#x64a;" horiz-adv-x="363" arabic-form="medial" 
d="M363 129q20 0 20 -69q0 -60 -20 -60q-98 0 -137 54q-53 -54 -193 -54h-33v129h29q60 0 78.5 21t18.5 85v191h148v-205q0 -92 89 -92zM89 -77q32 0 52.5 -21.5t20.5 -54.5q0 -32 -20.5 -52.5t-52.5 -20.5t-53.5 21t-21.5 52q0 32 21.5 54t53.5 22zM269 -77q31 0 52 -22
t21 -54q0 -31 -21 -52t-52 -21q-32 0 -53.5 21t-21.5 52q0 32 21.5 54t53.5 22z" />
    <glyph glyph-name="uniFEF5" unicode="&#xfef5;" horiz-adv-x="670" arabic-form="isolated" 
d="M20 129h173v421h148v-421h43q43 0 61.5 22.5t18.5 68.5v536h148v-573q0 -83 -47 -133t-139 -50h-406v129zM93 694q42 42 90 42q19 0 74.5 -14.5t78.5 -14.5q24 0 50 23l47 -51q-41 -53 -93 -53q-29 0 -87 13.5t-71 13.5q-23 0 -47 -17z" />
    <glyph glyph-name="uniFEF6" unicode="&#xfef6;" horiz-adv-x="701" arabic-form="final" 
d="M20 129h173v421h148v-421h43q43 0 61.5 22.5t18.5 68.5v536h148v-535q0 -92 89 -92q20 0 20 -69q0 -60 -20 -60q-95 0 -135 52q-47 -52 -140 -52h-406v129zM93 694q42 42 90 42q19 0 74.5 -14.5t78.5 -14.5q24 0 50 23l47 -51q-41 -53 -93 -53q-29 0 -87 13.5t-71 13.5
q-23 0 -47 -17z" />
    <glyph glyph-name="uniFEF7" unicode="&#xfef7;" horiz-adv-x="670" arabic-form="isolated" 
d="M20 129h173v421h148v-421h43q43 0 61.5 22.5t18.5 68.5v536h148v-573q0 -83 -47 -133t-139 -50h-406v129zM175 691h32q-11 20 -11 41q0 36 25.5 58t69.5 22q29 0 53 -7l-12 -64q-16 4 -31 4q-35 0 -35 -29q0 -11 7 -25h80v-67h-178v67z" />
    <glyph glyph-name="uniFEF8" unicode="&#xfef8;" horiz-adv-x="701" arabic-form="final" 
d="M20 129h173v421h148v-421h43q43 0 61.5 22.5t18.5 68.5v536h148v-535q0 -92 89 -92q20 0 20 -69q0 -60 -20 -60q-95 0 -135 52q-47 -52 -140 -52h-406v129zM353 624h-178v67h32q-11 20 -11 41q0 36 25.5 58t69.5 22q29 0 53 -7l-12 -64q-16 4 -31 4q-35 0 -35 -29
q0 -11 7 -25h80v-67z" />
    <glyph glyph-name="uniFEF9" unicode="&#xfef9;" horiz-adv-x="670" arabic-form="isolated" 
d="M20 129h173v421h148v-421h43q43 0 61.5 22.5t18.5 68.5v536h148v-573q0 -83 -47 -133t-139 -50h-406v129zM176 -193h33q-12 19 -12 42q0 36 25.5 58t69.5 22q28 0 53 -7l-12 -64q-16 4 -31 4q-35 0 -35 -29q0 -13 8 -26h79v-66h-178v66z" />
    <glyph glyph-name="uniFEFA" unicode="&#xfefa;" horiz-adv-x="701" arabic-form="final" 
d="M20 129h173v421h148v-421h43q43 0 61.5 22.5t18.5 68.5v536h148v-535q0 -92 89 -92q20 0 20 -69q0 -60 -20 -60q-95 0 -135 52q-47 -52 -140 -52h-406v129zM354 -259h-178v66h33q-12 19 -12 42q0 36 25.5 58t69.5 22q28 0 53 -7l-12 -64q-16 4 -31 4q-35 0 -35 -29
q0 -13 8 -26h79v-66z" />
    <glyph glyph-name="uniFEFB" unicode="&#xfefb;" horiz-adv-x="670" arabic-form="isolated" 
d="M20 129h173v421h148v-421h43q43 0 61.5 22.5t18.5 68.5v536h148v-573q0 -83 -47 -133t-139 -50h-406v129z" />
    <glyph glyph-name="uniFEFC" unicode="&#xfefc;" horiz-adv-x="701" arabic-form="final" 
d="M20 129h173v421h148v-421h43q43 0 61.5 22.5t18.5 68.5v536h148v-535q0 -92 89 -92q20 0 20 -69q0 -60 -20 -60q-95 0 -135 52q-47 -52 -140 -52h-406v129z" />
    <glyph glyph-name=".notdef" horiz-adv-x="512" 
d="M512 718v-718h-512v718h512zM462 50v617h-412v-617h412zM259 609q55 0 89.5 -36.5t34.5 -94.5q0 -38 -14 -63.5t-51 -57.5q-35 -32 -41 -50q-6 -14 -6 -73h-46l-2 19q0 52 13 79.5t51 63.5q45 42 45 78q0 35 -23 60t-53 25q-70 0 -82 -95l-50 8q6 67 41 102t94 35z
M222 184h56v-67h-56v67z" />
    <glyph glyph-name="uni0000" 
 />
    <glyph glyph-name="uni0000" 
 />
    <glyph glyph-name="uni000D" unicode="&#xd;" horiz-adv-x="296" 
 />
    <glyph glyph-name="space" unicode=" " horiz-adv-x="296" 
 />
    <glyph glyph-name="exclam" unicode="!" horiz-adv-x="444" 
d="M297 708v-474h-150v474h150zM314 86q0 -37 -26.5 -64.5t-65.5 -27.5t-65.5 27t-26.5 65q0 39 27 65.5t65 26.5t65 -26.5t27 -65.5z" />
    <glyph glyph-name="quotedbl" unicode="&#x22;" horiz-adv-x="520" 
d="M313 426v282h126v-282h-126zM81 426v282h126v-282h-126z" />
    <glyph glyph-name="numbersign" unicode="#" horiz-adv-x="592" 
d="M45 291h96l17 126h-84v90h96l28 201h97l-28 -201h99l28 201h97l-28 -201h84v-90h-96l-17 -126h84v-90h-96l-28 -201h-97l28 201h-99l-28 -201h-97l28 201h-84v90zM255 417l-17 -126h99l17 126h-99z" />
    <glyph glyph-name="dollar" unicode="$" horiz-adv-x="592" 
d="M15 69l106 119q45 -55 141 -62v169l-69 21q-82 25 -120.5 70t-38.5 118q0 83 62.5 143t165.5 73v70h66v-70q135 0 214 -63l-96 -117q-44 39 -118 42v-159l94 -27q71 -21 109 -68t38 -114q0 -93 -64.5 -154t-176.5 -72v-70h-66v70q-158 0 -247 81zM328 278v-150
q85 17 85 74q0 28 -17 43.5t-68 32.5zM190 511q0 -17 5 -29.5t16 -20t18 -11.5t20 -8l13 -3v140q-72 -15 -72 -68z" />
    <glyph glyph-name="percent" unicode="%" horiz-adv-x="907" 
d="M210 11l405 729l84 -47l-413 -725zM399 522q0 -83 -57.5 -140.5t-139.5 -57.5q-83 0 -140 58t-57 140q0 83 57.5 140.5t139.5 57.5q81 0 139 -57.5t58 -140.5zM202 426q39 0 67 27.5t28 68.5t-28 68.5t-67 27.5t-67 -28.5t-28 -67.5t28 -67.5t67 -28.5zM902 187
q0 -82 -57.5 -140.5t-139.5 -58.5t-139.5 58t-57.5 141q0 82 57.5 140t139.5 58t139.5 -58t57.5 -140zM705 90q40 0 67.5 28t27.5 69t-28 68.5t-67 27.5t-67 -28.5t-28 -67.5q0 -40 27.5 -68.5t67.5 -28.5z" />
    <glyph glyph-name="ampersand" unicode="&#x26;" horiz-adv-x="759" 
d="M335 726q88 0 147 -45t59 -129q0 -115 -131 -184l91 -97l69 94h174l-149 -198l158 -167h-193l-59 67q-82 -85 -208 -85q-109 0 -180 58t-71 154q0 63 40.5 116t109.5 77q-45 47 -61.5 82t-16.5 77q0 92 65.5 136t155.5 44zM264 540q0 -36 59 -89q80 45 80 91
q0 28 -19.5 46t-50.5 18q-30 0 -49.5 -18.5t-19.5 -47.5zM204 201q0 -37 28 -62t67 -25q30 0 53.5 11t57.5 41l-125 136q-29 -18 -41 -26.5t-26 -29t-14 -45.5z" />
    <glyph glyph-name="quotesingle" unicode="'" horiz-adv-x="296" 
d="M211 708v-282h-126v282h126z" />
    <glyph glyph-name="parenleft" unicode="(" horiz-adv-x="314" 
d="M293 672q-73 -113 -101 -199t-28 -185q0 -100 28 -186t101 -198l-103 -60l-2 4q-144 215 -144 440q0 96 25.5 187.5t52.5 143t66 109.5l2 4z" />
    <glyph glyph-name="parenright" unicode=")" horiz-adv-x="314" 
d="M124 732l2 -4q144 -208 144 -440q0 -225 -144 -440l-2 -4l-103 60q68 106 98.5 191t30.5 193q0 107 -31.5 194.5t-97.5 189.5z" />
    <glyph glyph-name="asterisk" unicode="*" horiz-adv-x="482" 
d="M293 708v-138l131 43l30 -95l-131 -42l83 -114l-83 -61l-84 115l-81 -110l-81 61l84 109l-133 46l32 95l131 -47v138h102z" />
    <glyph glyph-name="plus" unicode="+" horiz-adv-x="666" 
d="M59 240v126h211v211h126v-211h211v-126h-211v-211h-126v211h-211z" />
    <glyph glyph-name="comma" unicode="," horiz-adv-x="296" 
d="M235 162l-90 -282h-128l74 282h144z" />
    <glyph glyph-name="hyphen" unicode="-" horiz-adv-x="296" 
d="M271 309v-120h-246v120h246z" />
    <glyph glyph-name="period" unicode="." horiz-adv-x="296" 
d="M148 178q38 0 65 -26.5t27 -65.5t-27 -65.5t-65 -26.5q-39 0 -65.5 27t-26.5 65t27 65t65 27z" />
    <glyph glyph-name="slash" unicode="/" horiz-adv-x="407" 
d="M410 726l-300 -779l-113 35l299 779z" />
    <glyph glyph-name="zero" unicode="0" horiz-adv-x="592" 
d="M296 720q128 0 195.5 -96t67.5 -270t-67.5 -270t-195.5 -96t-195.5 96.5t-67.5 269.5q0 174 68 270t195 96zM183 354q0 -228 113 -228t113 228t-114 228q-112 0 -112 -228z" />
    <glyph glyph-name="one" unicode="1" horiz-adv-x="592" 
d="M432 708v-708h-144v540l-142 -125l-85 98l231 195h140z" />
    <glyph glyph-name="two" unicode="2" horiz-adv-x="592" 
d="M308 720q103 0 166 -57t63 -156q0 -65 -24 -108t-84 -95l-200 -172h314v-132h-494v159l275 247q37 33 50 54t13 45q0 34 -25.5 55.5t-61.5 21.5q-38 0 -63 -24.5t-29 -65.5l-150 11q7 104 73 160.5t177 56.5z" />
    <glyph glyph-name="three" unicode="3" horiz-adv-x="592" 
d="M290 720q107 0 173 -52t66 -145q0 -61 -32 -102t-89 -53v-3q61 -8 97 -54.5t36 -110.5q0 -98 -70.5 -155t-184.5 -57q-103 0 -168.5 47.5t-85.5 135.5l158 37q16 -82 105 -82q46 0 71 24t25 67q0 23 -9.5 39.5t-21.5 24.5t-34 12.5t-35 5t-36 0.5h-39v130h46
q117 0 117 79q0 33 -25.5 53.5t-62.5 20.5q-32 0 -56 -17t-32 -49l-165 34q22 83 86.5 126.5t165.5 43.5z" />
    <glyph glyph-name="four" unicode="4" horiz-adv-x="592" 
d="M24 142v126l289 440h164v-440h91v-126h-91v-142h-144v142h-309zM331 512l-157 -244h159v244h-2z" />
    <glyph glyph-name="five" unicode="5" horiz-adv-x="592" 
d="M517 708v-132h-281l-3 -109q23 8 62 8q113 0 179.5 -64.5t66.5 -169.5q0 -116 -74 -184.5t-196 -68.5q-93 0 -154.5 46t-84.5 135l157 36q6 -39 32 -62t65 -23q45 0 75 29t30 77q0 57 -42 87t-121 30q-72 0 -147 -26l8 391h428z" />
    <glyph glyph-name="six" unicode="6" horiz-adv-x="592" 
d="M270 708h183l-166 -253q28 7 49 7q97 0 159.5 -66t62.5 -165q0 -109 -76.5 -176t-187.5 -67q-109 0 -186.5 66t-77.5 177q0 67 20 116t66 120zM180 237q0 -51 34 -81t80 -30q49 0 81.5 30.5t32.5 80.5t-33 80.5t-82 30.5q-48 0 -80.5 -31.5t-32.5 -79.5z" />
    <glyph glyph-name="seven" unicode="7" horiz-adv-x="592" 
d="M555 708v-132l-283 -576h-175l290 570h-350v138h518z" />
    <glyph glyph-name="eight" unicode="8" horiz-adv-x="592" 
d="M296 720q108 0 172.5 -52.5t64.5 -142.5q0 -58 -31.5 -99.5t-88.5 -57.5v-2q132 -37 132 -172q0 -93 -69.5 -149.5t-179.5 -56.5t-179.5 55.5t-69.5 150.5q0 136 132 172v2q-57 16 -88.5 57.5t-31.5 99.5q0 88 64 141.5t173 53.5zM209 504q0 -33 24.5 -56t62.5 -23
t62.5 22.5t24.5 56.5t-24.5 56t-63.5 22t-62.5 -23t-23.5 -55zM197 215q0 -39 28.5 -64t70.5 -25t70.5 24.5t28.5 64.5q0 39 -28.5 64.5t-71.5 25.5q-42 0 -70 -25.5t-28 -64.5z" />
    <glyph glyph-name="nine" unicode="9" horiz-adv-x="592" 
d="M298 720q111 0 187.5 -67t76.5 -176q0 -47 -13 -90.5t-28 -71t-46 -76.5l-153 -239h-183l166 253q-28 -7 -50 -7q-97 0 -159 66t-62 165q0 108 76.5 175.5t187.5 67.5zM184 471q0 -49 32 -80t82 -31q49 0 81.5 31t32.5 80t-33 80t-82 31q-48 0 -80.5 -31.5t-32.5 -79.5z
" />
    <glyph glyph-name="colon" unicode=":" horiz-adv-x="296" 
d="M148 498q38 0 65 -26.5t27 -65.5q0 -38 -27 -65t-65 -27t-65 27t-27 65t27 65t65 27zM148 178q38 0 65 -26.5t27 -65.5q0 -38 -27 -65t-65 -27t-65 26.5t-27 65.5q0 38 27 65t65 27z" />
    <glyph glyph-name="semicolon" unicode=";" horiz-adv-x="296" 
d="M148 498q39 0 65.5 -27t26.5 -65t-27 -65t-65 -27t-65 27t-27 65t27 65t65 27zM235 162l-90 -282h-128l74 282h144z" />
    <glyph glyph-name="less" unicode="&#x3c;" horiz-adv-x="666" 
d="M586 42l-506 198v126l506 198v-136l-317 -124v-2l317 -124v-136z" />
    <glyph glyph-name="equal" unicode="=" horiz-adv-x="666" 
d="M607 336h-548v126h548v-126zM59 270h548v-126h-548v126z" />
    <glyph glyph-name="greater" unicode="&#x3e;" horiz-adv-x="666" 
d="M80 564l506 -198v-126l-506 -198v136l317 124v2l-317 124v136z" />
    <glyph glyph-name="question" unicode="?" horiz-adv-x="556" 
d="M304 726q98 0 161.5 -53t63.5 -144q0 -60 -26.5 -99.5t-91.5 -92.5q-25 -20 -35 -36t-10 -42v-25h-150v37q0 64 36 98l85 78q42 39 42 72q0 31 -20 50t-52 19q-42 0 -68.5 -23.5t-30.5 -65.5l-154 10q10 103 76.5 160t173.5 57zM291 178q37 0 64.5 -27t27.5 -65
q0 -39 -27 -65.5t-65 -26.5t-65 26.5t-27 65.5q0 38 27 65t65 27z" />
    <glyph glyph-name="at" unicode="@" horiz-adv-x="800" 
d="M414 726q147 0 250.5 -91.5t103.5 -237.5q0 -122 -66 -183q-65 -61 -156 -61q-39 0 -58.5 16.5t-20.5 37.5h-2q-51 -54 -128 -54q-68 0 -106 48.5t-38 119.5q0 93 55.5 159t144.5 66q80 0 108 -57h2l8 45h94l-36 -192q-10 -57 -10 -71q0 -28 27 -28q39 0 62.5 41.5
t23.5 107.5q0 117 -71.5 180.5t-189.5 63.5q-125 0 -201 -80.5t-76 -202.5q0 -129 82.5 -205t211.5 -76q112 0 189 61h110q-54 -73 -133.5 -112t-173.5 -39q-162 0 -275 105t-113 266q0 158 111.5 265.5t270.5 107.5zM301 332q0 -89 70 -89q52 0 78 33t26 88q0 40 -18.5 66
t-56.5 26q-46 0 -72.5 -37t-26.5 -87z" />
    <glyph glyph-name="A" unicode="A" horiz-adv-x="741" 
d="M171 0h-172l306 708h129l308 -708h-176l-61 150h-275zM365 502l-86 -220h173z" />
    <glyph glyph-name="B" unicode="B" horiz-adv-x="648" 
d="M72 708h270q253 0 253 -180q0 -58 -33 -98t-89 -58v-2q66 -8 110.5 -54t44.5 -119q0 -53 -23.5 -93t-63 -61.5t-84 -32t-94.5 -10.5h-291v708zM228 293v-161h143q42 0 71.5 21.5t29.5 61.5q0 30 -21 48.5t-46 24t-55 5.5h-122zM337 576h-109v-151h116q40 0 67.5 19.5
t27.5 57.5q0 39 -30 56.5t-72 17.5z" />
    <glyph glyph-name="C" unicode="C" horiz-adv-x="685" 
d="M416 726q72 0 136 -27t103 -77l-120 -98q-48 58 -134 58t-145.5 -63t-59.5 -165q0 -93 55 -160.5t145 -67.5q95 0 146 76l130 -97q-40 -59 -110 -91t-146 -32q-168 0 -275 102t-107 270q0 167 106.5 269.5t275.5 102.5z" />
    <glyph glyph-name="D" unicode="D" horiz-adv-x="759" 
d="M72 708h240q87 0 159.5 -20t130.5 -61.5t90.5 -111.5t32.5 -162q0 -109 -54.5 -190.5t-143 -122t-196.5 -40.5h-259v708zM228 144h86q113 0 181 51.5t68 163.5q0 100 -68.5 152.5t-170.5 52.5h-96v-420z" />
    <glyph glyph-name="E" unicode="E" horiz-adv-x="630" 
d="M78 0v708h481v-144h-325v-132h307v-144h-307v-144h343v-144h-499z" />
    <glyph glyph-name="F" unicode="F" horiz-adv-x="593" 
d="M78 0v708h475v-144h-319v-144h295v-144h-295v-276h-156z" />
    <glyph glyph-name="G" unicode="G" horiz-adv-x="778" 
d="M417 726q181 0 281 -91l-110 -120q-63 67 -171 67q-99 0 -160 -63.5t-61 -164.5t61 -164.5t160 -63.5q80 0 146 35v115h-127v144h277v-370q-128 -68 -296 -68q-169 0 -276 101.5t-107 270.5q0 168 107 270t276 102z" />
    <glyph glyph-name="H" unicode="H" horiz-adv-x="759" 
d="M72 0v708h156v-264h303v264h156v-708h-156v306h-303v-306h-156z" />
    <glyph glyph-name="I" unicode="I" horiz-adv-x="296" 
d="M226 708v-708h-156v708h156z" />
    <glyph glyph-name="J" unicode="J" horiz-adv-x="500" 
d="M438 708v-477q0 -129 -56 -189t-170 -60q-88 0 -144 42t-73 123l143 35q4 -27 24.5 -44.5t45.5 -17.5q39 0 56.5 29.5t17.5 99.5v459h156z" />
    <glyph glyph-name="K" unicode="K" horiz-adv-x="722" 
d="M78 0v708h156v-294l275 294h204l-315 -329l342 -379h-218l-288 336v-336h-156z" />
    <glyph glyph-name="L" unicode="L" horiz-adv-x="537" 
d="M234 708v-564h289v-144h-445v708h156z" />
    <glyph glyph-name="M" unicode="M" horiz-adv-x="944" 
d="M72 0v708h236l163 -462h2l164 462h235v-708h-156v543h-2l-186 -543h-119l-179 543h-2v-543h-156z" />
    <glyph glyph-name="N" unicode="N" horiz-adv-x="815" 
d="M228 0h-156v708h212l301 -492h2v492h156v-708h-204l-309 504h-2v-504z" />
    <glyph glyph-name="O" unicode="O" horiz-adv-x="832" 
d="M416 726q170 0 276 -102t106 -270q0 -167 -107 -269.5t-275 -102.5q-169 0 -275.5 102t-106.5 270t106.5 270t275.5 102zM196 354q0 -101 60.5 -164.5t159.5 -63.5q98 0 159 64t61 164q0 101 -61 164.5t-160 63.5q-98 0 -158.5 -63.5t-60.5 -164.5z" />
    <glyph glyph-name="P" unicode="P" horiz-adv-x="630" 
d="M228 0h-156v708h268q264 0 264 -215q0 -217 -257 -217h-119v-276zM228 576v-168h107q49 0 78 21.5t29 63.5q0 83 -130 83h-84z" />
    <glyph glyph-name="Q" unicode="Q" horiz-adv-x="852" 
d="M412 726q159 0 268.5 -102t109.5 -261q0 -79 -36.5 -145.5t-104.5 -95.5v-2h198v-120h-434q-165 0 -272 98.5t-107 264.5q0 158 109.5 260.5t268.5 102.5zM196 363q0 -90 63 -154.5t153 -64.5t153 64.5t63 154.5q0 92 -63.5 155.5t-153.5 63.5t-152.5 -65t-62.5 -154z
" />
    <glyph glyph-name="R" unicode="R" horiz-adv-x="648" 
d="M228 0h-156v708h279q41 0 76.5 -5.5t70.5 -20.5t60 -38.5t40 -62t15 -88.5q0 -78 -40.5 -129t-112.5 -65l180 -299h-187l-148 283h-77v-283zM228 415h97q62 0 94 16.5t32 62.5q0 82 -117 82h-106v-161z" />
    <glyph glyph-name="S" unicode="S" horiz-adv-x="574" 
d="M312 726q132 0 217 -74l-107 -117q-18 23 -50 35t-63 12q-39 0 -72 -18.5t-33 -54.5q0 -13 4 -23.5t13.5 -19t17.5 -14.5t25.5 -12.5t27 -10t33 -10t32.5 -9.5q37 -11 63.5 -24t54 -34.5t41.5 -56t14 -80.5q0 -114 -78 -173.5t-195 -59.5q-143 0 -238 89l111 122
q53 -67 136 -67q40 0 74 18.5t34 55.5q0 11 -4 21t-8.5 17.5t-15.5 15t-18.5 12t-24.5 10.5l-25.5 9t-29 9.5t-28.5 9.5q-39 13 -65.5 25.5t-55 34t-43 55t-14.5 77.5q0 108 79.5 169t190.5 61z" />
    <glyph glyph-name="T" unicode="T" horiz-adv-x="574" 
d="M7 570v138h560v-138h-202v-570h-156v570h-202z" />
    <glyph glyph-name="U" unicode="U" horiz-adv-x="741" 
d="M72 708h156v-431q0 -64 40.5 -107.5t102.5 -43.5q58 0 100 42t42 109v431h156v-438q0 -124 -76.5 -206t-221.5 -82t-222 82t-77 206v438z" />
    <glyph glyph-name="V" unicode="V" horiz-adv-x="704" 
d="M2 708h178l175 -464h2l178 464h167l-292 -708h-125z" />
    <glyph glyph-name="W" unicode="W" horiz-adv-x="1000" 
d="M208 0l-210 708h170l113 -454h2l148 454h145l147 -466h2l119 466h158l-207 -708h-139l-156 490h-2l-156 -490h-134z" />
    <glyph glyph-name="X" unicode="X" horiz-adv-x="722" 
d="M185 0h-185l248 370l-234 338h196l151 -248l145 248h189l-229 -335l256 -373h-196l-173 285z" />
    <glyph glyph-name="Y" unicode="Y" horiz-adv-x="648" 
d="M-20 708h194l150 -265l159 265h185l-266 -406v-302h-156v302z" />
    <glyph glyph-name="Z" unicode="Z" horiz-adv-x="630" 
d="M583 708v-138l-352 -426h364v-144h-560v144l359 426h-346v138h535z" />
    <glyph glyph-name="bracketleft" unicode="[" horiz-adv-x="296" 
d="M66 -156v888h210v-90h-90v-708h90v-90h-210z" />
    <glyph glyph-name="backslash" unicode="\" horiz-adv-x="407" 
d="M111 761l299 -779l-113 -35l-300 779z" />
    <glyph glyph-name="bracketright" unicode="]" horiz-adv-x="296" 
d="M230 -156h-210v90h90v708h-90v90h210v-888z" />
    <glyph glyph-name="asciicircum" unicode="^" horiz-adv-x="666" 
d="M221 343h-141l180 365h146l180 -365h-142l-111 238z" />
    <glyph glyph-name="underscore" unicode="_" horiz-adv-x="500" 
d="M500 -75v-50h-500v50h500z" />
    <glyph glyph-name="grave" unicode="`" horiz-adv-x="260" 
d="M131 708l101 -144h-132l-173 144h204z" />
    <glyph glyph-name="a" unicode="a" horiz-adv-x="537" 
d="M29 138q0 35 12.5 63t31 45.5t49.5 30t56 18.5t63.5 9.5t60 4t56.5 0.5q0 40 -28.5 63.5t-67.5 23.5q-70 0 -122 -58l-80 82q81 78 214 78q122 0 172 -59t50 -185v-254h-138v61h-2q-46 -73 -154 -73q-72 0 -122.5 40t-50.5 110zM313 213q-140 0 -140 -70q0 -26 22 -39.5
t50 -13.5q46 0 79.5 24t33.5 68v31h-45z" />
    <glyph glyph-name="b" unicode="b" horiz-adv-x="630" 
d="M67 756h150v-322h2q46 64 154 64q101 0 161.5 -77.5t60.5 -181.5q0 -110 -65.5 -180.5t-173.5 -70.5q-43 0 -83.5 20.5t-65.5 55.5h-2v-64h-138v756zM205 243q0 -55 32.5 -89t87.5 -34t87.5 33.5t32.5 89.5q0 57 -32.5 90t-88.5 33q-52 0 -85.5 -32t-33.5 -91z" />
    <glyph glyph-name="c" unicode="c" horiz-adv-x="482" 
d="M308 498q111 0 173 -65l-99 -104q-27 37 -74 37q-55 0 -87.5 -34t-32.5 -89q0 -56 33 -89.5t87 -33.5q44 0 74 37l99 -104q-64 -65 -173 -65q-115 0 -192.5 70.5t-77.5 184.5t77.5 184.5t192.5 70.5z" />
    <glyph glyph-name="d" unicode="d" horiz-adv-x="630" 
d="M413 756h150v-756h-138v64h-2q-24 -35 -65.5 -55.5t-84.5 -20.5q-108 0 -173 70.5t-65 180.5q0 104 60.5 181.5t161.5 77.5q107 0 154 -64h2v322zM185 243q0 -55 32.5 -89t87.5 -34t87.5 33.5t32.5 89.5q0 58 -33.5 90.5t-87.5 32.5q-55 0 -87 -33.5t-32 -89.5z" />
    <glyph glyph-name="e" unicode="e" horiz-adv-x="574" 
d="M38 243q0 114 77.5 184.5t196.5 70.5q30 0 59.5 -7.5t60 -26t53 -47t37 -75t14.5 -104.5v-42h-348q9 -43 38.5 -68.5t74.5 -25.5q62 0 107 59l105 -77q-35 -45 -91 -70.5t-114 -25.5q-113 0 -191.5 70t-78.5 185zM188 298h198q0 41 -26.5 66.5t-66.5 25.5q-43 0 -72 -25
t-33 -67z" />
    <glyph glyph-name="f" unicode="f" horiz-adv-x="370" 
d="M105 366h-99v120h99v91q0 95 43 143t147 48q52 0 88 -9l-7 -127q-29 10 -49 10q-41 0 -56.5 -18t-15.5 -62v-76h111v-120h-111v-366h-150v366z" />
    <glyph glyph-name="g" unicode="g" horiz-adv-x="630" 
d="M257 498q113 0 166 -76h2v64h138v-450q0 -136 -72 -206t-209 -70q-154 0 -244 71l83 124q76 -63 158 -63q59 0 96.5 30t37.5 87v49h-2q-23 -31 -60.5 -47.5t-77.5 -16.5q-108 0 -173 71t-65 180q0 101 61.5 177t160.5 76zM185 246q0 -50 35.5 -85t84.5 -35q48 0 84 35.5
t36 84.5t-35.5 84.5t-85.5 35.5q-48 0 -83.5 -36t-35.5 -84z" />
    <glyph glyph-name="h" unicode="h" horiz-adv-x="574" 
d="M203 0h-150v756h150v-336h2q13 35 51 56.5t85 21.5q96 0 138 -54t42 -171v-273h-150v247q0 66 -19 92.5t-59 26.5q-90 0 -90 -119v-247z" />
    <glyph glyph-name="i" unicode="i" horiz-adv-x="260" 
d="M130 726q36 0 61.5 -25.5t25.5 -61.5t-25.5 -61.5t-61.5 -25.5t-61.5 26t-25.5 61q0 37 25.5 62t61.5 25zM205 486v-486h-150v486h150z" />
    <glyph glyph-name="j" unicode="j" horiz-adv-x="260" 
d="M130 726q36 0 61.5 -25.5t25.5 -61.5t-25.5 -61.5t-61.5 -25.5t-61.5 26t-25.5 61q0 36 25.5 61.5t61.5 25.5zM205 486v-527q0 -101 -44 -150t-136 -49q-45 0 -70 8l8 133q19 -9 39 -9q53 0 53 94v500h150z" />
    <glyph glyph-name="k" unicode="k" horiz-adv-x="556" 
d="M53 0v756h150v-462l166 192h184l-193 -219l198 -267h-189l-164 246h-2v-246h-150z" />
    <glyph glyph-name="l" unicode="l" horiz-adv-x="260" 
d="M205 756v-756h-150v756h150z" />
    <glyph glyph-name="m" unicode="m" horiz-adv-x="870" 
d="M203 0h-150v486h144v-66h2q20 37 58 57.5t84 20.5q110 0 150 -87q49 87 154 87q172 0 172 -206v-292h-150v285q0 81 -66 81q-91 0 -91 -106v-260h-150v266q0 54 -16.5 77t-50.5 23q-46 0 -68 -28t-22 -91v-247z" />
    <glyph glyph-name="n" unicode="n" horiz-adv-x="574" 
d="M203 0h-150v486h144v-66h2q20 37 57.5 57.5t84.5 20.5q93 0 136.5 -52t43.5 -171v-275h-150v250q0 63 -19 89.5t-59 26.5q-90 0 -90 -119v-247z" />
    <glyph glyph-name="o" unicode="o" horiz-adv-x="610" 
d="M305 498q115 0 192.5 -70.5t77.5 -184.5q0 -113 -78 -184t-192 -71q-115 0 -192.5 70t-77.5 185q0 114 77.5 184.5t192.5 70.5zM185 243q0 -55 32.5 -89t87.5 -34t87.5 33.5t32.5 89.5q0 57 -32.5 90t-88.5 33q-54 0 -86.5 -34t-32.5 -89z" />
    <glyph glyph-name="p" unicode="p" horiz-adv-x="630" 
d="M356 498q108 0 173.5 -70.5t65.5 -180.5q0 -102 -59.5 -180.5t-162.5 -78.5q-108 0 -154 64h-2v-280h-150v714h138v-64h2q25 34 65.5 55t83.5 21zM205 243q0 -55 32.5 -89t87.5 -34t87.5 33.5t32.5 89.5q0 57 -32.5 90t-88.5 33q-54 0 -86.5 -34t-32.5 -89z" />
    <glyph glyph-name="q" unicode="q" horiz-adv-x="630" 
d="M273 498q44 0 85.5 -21t64.5 -55h2v64h138v-714h-150v280h-2q-47 -64 -154 -64q-102 0 -162 78t-60 181q0 110 65.5 180.5t172.5 70.5zM185 243q0 -55 32.5 -89t87.5 -34t87.5 33.5t32.5 89.5q0 57 -32.5 90t-88.5 33q-57 0 -88 -35.5t-31 -87.5z" />
    <glyph glyph-name="r" unicode="r" horiz-adv-x="407" 
d="M53 0v486h150v-78h2q49 90 141 90q32 0 49 -5v-137q-37 10 -64 10q-76 0 -102 -37.5t-26 -119.5v-209h-150z" />
    <glyph glyph-name="s" unicode="s" horiz-adv-x="463" 
d="M240 498q119 0 180 -64l-92 -91q-34 41 -86 41q-25 0 -40.5 -11t-15.5 -29q0 -17 19.5 -27t70.5 -20q88 -17 125.5 -52.5t37.5 -96.5q0 -79 -61.5 -119.5t-162.5 -40.5q-127 0 -191 66l91 101q45 -53 106 -53q68 0 68 35q0 19 -19 29t-58 18q-32 7 -51 11.5t-46 16
t-42 26t-26 39.5t-11 57q0 76 57 120t147 44z" />
    <glyph glyph-name="t" unicode="t" horiz-adv-x="407" 
d="M102 366h-96v120h96v144h150v-144h132v-120h-132v-171q0 -44 16.5 -62.5t54.5 -18.5q47 0 61 14v-125q-44 -15 -105 -15q-86 0 -131.5 38t-45.5 105v235z" />
    <glyph glyph-name="u" unicode="u" horiz-adv-x="574" 
d="M53 486h150v-241q0 -21 0.5 -32.5t4.5 -32t11.5 -31.5t23.5 -20t38 -9q47 0 68.5 29.5t21.5 90.5v246h150v-486h-144v66h-2q-20 -37 -58 -57.5t-85 -20.5q-95 0 -137 53.5t-42 170.5v274z" />
    <glyph glyph-name="v" unicode="v" horiz-adv-x="556" 
d="M2 486h162l123 -330h2l114 330h151l-192 -486h-159z" />
    <glyph glyph-name="w" unicode="w" horiz-adv-x="833" 
d="M173 0l-178 486h160l99 -305h2l83 305h164l90 -305h2l91 305h152l-173 -486h-148l-101 323h-2l-90 -323h-151z" />
    <glyph glyph-name="x" unicode="x" horiz-adv-x="556" 
d="M167 0h-175l192 260l-162 226h177l86 -132l83 132h167l-158 -226l187 -260h-177l-106 162z" />
    <glyph glyph-name="y" unicode="y" horiz-adv-x="556" 
d="M216 -4l-213 490h162l125 -321h2l107 321h154l-218 -560q-11 -27 -15.5 -38.5t-14 -32.5t-16.5 -29.5t-19 -22.5t-24.5 -19.5t-30.5 -12.5t-39.5 -9t-48.5 -2q-58 0 -112 18l20 123q35 -15 70 -15q17 0 30 2t23 9t16 11.5t13 18t10 19.5t9.5 24.5t9.5 25.5z" />
    <glyph glyph-name="z" unicode="z" horiz-adv-x="500" 
d="M460 486v-144l-264 -222h270v-120h-432v150l252 216h-246v120h420z" />
    <glyph glyph-name="braceleft" unicode="{" horiz-adv-x="370" 
d="M14 345q48 0 78 19t30 48v178q0 75 37 108.5t89 33.5h108v-114h-39q-17 0 -26.5 -1.5t-22.5 -6.5t-19.5 -18.5t-6.5 -34.5v-158q0 -56 -22.5 -81t-77.5 -29v-2q46 -3 73 -23.5t27 -78.5v-161q0 -39 17 -52.5t54 -13.5h43v-114h-108q-58 0 -92 37.5t-34 110.5v170
q0 32 -29.5 50.5t-78.5 18.5v114z" />
    <glyph glyph-name="bar" unicode="|" horiz-adv-x="222" 
d="M174 750v-1000h-126v1000h126z" />
    <glyph glyph-name="braceright" unicode="}" horiz-adv-x="370" 
d="M14 618v114h108q59 0 92.5 -39t33.5 -102v-180q0 -29 29.5 -47.5t78.5 -18.5v-114q-48 0 -78 -18t-30 -49v-172q0 -14 -0.5 -23.5t-7 -36t-18.5 -43t-38.5 -31t-63.5 -14.5h-106v114h40q18 0 28.5 1.5t22.5 7.5t17.5 19.5t5.5 35.5v161q0 57 27 79t73 25v2
q-56 4 -78 28.5t-22 81.5v158q0 38 -19.5 49.5t-54.5 11.5h-40z" />
    <glyph glyph-name="asciitilde" unicode="~" horiz-adv-x="666" 
d="M227 400q39 0 111 -32q79 -36 102 -36q21 0 40 13.5t48 54.5l36 -108q-46 -86 -125 -86q-40 0 -111 32q-79 36 -102 36q-20 0 -39.5 -14t-48.5 -54l-36 108q46 86 125 86z" />
    <glyph glyph-name="uni00A0" unicode="&#xa0;" horiz-adv-x="296" 
 />
    <glyph glyph-name="exclamdown" unicode="&#xa1;" horiz-adv-x="444" 
d="M222 492q37 0 64.5 -26.5t27.5 -65.5q0 -37 -27 -64.5t-65 -27.5t-65 27t-27 65t27 65t65 27zM297 252v-474h-150v474h150z" />
    <glyph glyph-name="cent" unicode="&#xa2;" horiz-adv-x="592" 
d="M76 243q0 105 63 173t171 82v66h60v-66q98 0 172 -62l-96 -102q-38 38 -76 38v-258q40 0 83 43l91 -107q-60 -60 -174 -62v-69h-60v69q-104 5 -169 78t-65 177zM310 372q-42 -7 -66 -42t-24 -86q0 -102 90 -130v258z" />
    <glyph glyph-name="sterling" unicode="&#xa3;" horiz-adv-x="592" 
d="M48 312v102h96v66q0 105 69 172.5t179 67.5q138 0 209 -68l-100 -107q-43 43 -91 43q-116 0 -116 -131v-43h156v-102h-156v-198h253v-114h-499v114h96v198h-96z" />
    <glyph glyph-name="currency" unicode="&#xa4;" horiz-adv-x="592" 
d="M96 614l49 -48q67 48 151 48t151 -48l49 48l60 -59l-49 -49q49 -68 49 -152q0 -85 -49 -152l49 -49l-60 -59l-49 48q-67 -48 -151 -48t-151 48l-49 -48l-60 59l49 49q-49 68 -49 152t49 152l-49 49zM168 354q0 -56 37.5 -95t90.5 -39q54 0 91 39.5t37 94.5q0 56 -37.5 95
t-91.5 39q-52 0 -89.5 -38.5t-37.5 -95.5z" />
    <glyph glyph-name="yen" unicode="&#xa5;" horiz-adv-x="592" 
d="M-36 708h182l150 -264l150 264h182l-185 -290h100v-96h-157l-12 -20v-48h169v-96h-169v-158h-156v158h-169v96h169v48l-12 20h-157v96h100z" />
    <glyph glyph-name="brokenbar" unicode="&#xa6;" horiz-adv-x="222" 
d="M174 325h-126v350h126v-350zM48 175h126v-350h-126v350z" />
    <glyph glyph-name="section" unicode="&#xa7;" horiz-adv-x="592" 
d="M293 726q73 0 134.5 -25.5t89.5 -83.5l-126 -72q-10 28 -35.5 44.5t-56.5 16.5q-26 0 -45.5 -14t-19.5 -39q0 -26 32 -47.5t78 -39t92 -39t78 -59t32 -87.5q0 -40 -24 -76.5t-60 -53.5q55 -46 55 -119q0 -61 -39.5 -104t-93.5 -61t-113 -18q-176 0 -233 126l128 63
q8 -33 40 -51t69 -18q31 0 55.5 12t24.5 40q0 22 -22.5 39.5t-55.5 29.5t-72.5 30t-72.5 37.5t-55.5 55t-22.5 80.5q0 94 87 148q-63 41 -63 115q0 81 65 125.5t150 44.5zM192 321q0 -45 56 -71l126 -58h1q33 22 33 61q0 42 -54 67l-127 60q-35 -20 -35 -59z" />
    <glyph glyph-name="dieresis" unicode="&#xa8;" horiz-adv-x="260" 
d="M23 726q34 0 60.5 -23t26.5 -59t-24 -61t-61 -25q-35 0 -59 25.5t-24 60.5q0 33 24 57.5t57 24.5zM231 726q35 0 61 -23.5t26 -58.5q0 -36 -24 -61t-61 -25q-34 0 -58.5 25.5t-24.5 60.5q0 33 24.5 57.5t56.5 24.5z" />
    <glyph glyph-name="copyright" unicode="&#xa9;" horiz-adv-x="800" 
d="M400 726q154 0 263 -109t109 -263q0 -155 -109 -263.5t-263 -108.5t-263 109t-109 263q0 153 109 262.5t263 109.5zM130 354q0 -115 78.5 -198.5t191.5 -83.5q114 0 192 84t78 198q0 115 -78.5 198.5t-192.5 83.5q-113 0 -191 -84.5t-78 -197.5zM408 567q72 0 121 -39
t59 -109h-94q-12 58 -78 58q-50 0 -73.5 -33t-23.5 -85q0 -51 24 -88.5t71 -37.5q77 0 80 67h94q-10 -71 -58 -114t-120 -43q-91 0 -145 60.5t-54 153.5q0 95 52 152.5t145 57.5z" />
    <glyph glyph-name="ordfeminine" unicode="&#xaa;" horiz-adv-x="349" 
d="M183 726q75 0 109 -33.5t34 -108.5v-153h-96v37h-2q-20 -43 -93 -43q-48 0 -80 24.5t-32 64.5q0 105 199 105h8q0 20 -16.5 33.5t-39.5 13.5q-43 0 -79 -36l-52 49q56 47 140 47zM125 518q0 -27 43 -27q26 0 47 14.5t21 35.5v18h-15q-96 0 -96 -41z" />
    <glyph glyph-name="guillemotleft" unicode="&#xab;" horiz-adv-x="538" 
d="M268 422l-116 -173l116 -173l-91 -61l-159 234l159 234zM510 422l-116 -173l116 -173l-91 -61l-159 234l159 234z" />
    <glyph glyph-name="logicalnot" unicode="&#xac;" horiz-adv-x="666" 
d="M607 462v-320h-126v194h-422v126h548z" />
    <glyph glyph-name="uni00AD" unicode="&#xad;" horiz-adv-x="296" 
d="M271 309v-120h-246v120h246z" />
    <glyph glyph-name="registered" unicode="&#xae;" horiz-adv-x="800" 
d="M28 354q0 153 109 262.5t263 109.5t263 -109t109 -263q0 -155 -109 -263.5t-263 -108.5t-263 109t-109 263zM399 636q-113 0 -191 -84.5t-78 -197.5q0 -115 78.5 -198.5t191.5 -83.5q114 0 192 84t78 198q0 115 -78.5 198.5t-192.5 83.5zM359 163h-102v390h143
q161 0 161 -126q0 -96 -91 -109l100 -155h-105l-89 150h-17v-150zM401 475h-43v-84h43q58 0 58 42t-58 42z" />
    <glyph glyph-name="macron" unicode="&#xaf;" horiz-adv-x="260" 
d="M300 687v-96h-340v96h340z" />
    <glyph glyph-name="degree" unicode="&#xb0;" horiz-adv-x="400" 
d="M200 720q72 0 122 -50.5t50 -121.5t-50 -121.5t-122 -50.5q-70 0 -121 50t-51 122t50.5 122t121.5 50zM112 548q0 -37 25.5 -62.5t62.5 -25.5q36 0 62 25.5t26 62.5q0 36 -25.5 62t-62.5 26q-36 0 -62 -25.5t-26 -62.5z" />
    <glyph glyph-name="plusminus" unicode="&#xb1;" horiz-adv-x="666" 
d="M59 323v126h211v128h126v-128h211v-126h-211v-128h-126v128h-211zM59 29v126h548v-126h-548z" />
    <glyph glyph-name="twosuperior" unicode="&#xb2;" horiz-adv-x="385" 
d="M199 720q72 0 117 -32t45 -88q0 -44 -12 -66.5t-46 -48.5l-143 -110v-2h201v-84h-337v89l195 165q34 29 34 48q0 18 -16 28.5t-43 10.5q-29 0 -46.5 -15.5t-19.5 -38.5l-102 6q5 67 50 102.5t123 35.5z" />
    <glyph glyph-name="threesuperior" unicode="&#xb3;" horiz-adv-x="385" 
d="M195 720q72 0 118 -30.5t46 -83.5q0 -36 -21.5 -61t-61.5 -32v-2q42 -4 67 -33t25 -67q0 -59 -48.5 -93.5t-127.5 -34.5q-148 0 -175 118l109 22q11 -50 66 -50q68 0 68 48q0 24 -18 35.5t-64 11.5h-35v84h33q75 0 75 45q0 33 -56 33q-53 0 -64 -44l-110 20
q30 114 174 114z" />
    <glyph glyph-name="acute" unicode="&#xb4;" horiz-adv-x="260" 
d="M335 708l-173 -144h-132l101 144h204z" />
    <glyph glyph-name="mu" unicode="&#xb5;" horiz-adv-x="574" 
d="M53 -228v714h150v-249q0 -62 18.5 -89.5t59.5 -27.5q47 0 68.5 29.5t21.5 90.5v246h150v-486h-144v66h-2q-20 -37 -58 -57.5t-84 -20.5q-17 0 -30 3v-219h-150z" />
    <glyph glyph-name="paragraph" unicode="&#xb6;" horiz-adv-x="620" 
d="M13 530q0 92 59 135t183 43h306v-841h-108v745h-109v-745h-108v492q-108 0 -165.5 44.5t-57.5 126.5z" />
    <glyph glyph-name="periodcentered" unicode="&#xb7;" horiz-adv-x="296" 
d="M148 375q39 0 65.5 -27t26.5 -65q0 -39 -27 -65.5t-65 -26.5t-65 27t-27 65t26.5 65t65.5 27z" />
    <glyph glyph-name="cedilla" unicode="&#xb8;" horiz-adv-x="260" 
d="M168 0l-41 -60h6q120 0 120 -83q0 -45 -41.5 -71t-98.5 -26q-61 0 -124 30l25 47q44 -17 74 -17q69 0 69 32q0 16 -15 25t-35 9q-17 0 -36 -8l-32 29l62 93h67z" />
    <glyph glyph-name="onesuperior" unicode="&#xb9;" horiz-adv-x="385" 
d="M291 714v-425h-108v317l-89 -75l-58 66l159 117h96z" />
    <glyph glyph-name="ordmasculine" unicode="&#xba;" horiz-adv-x="397" 
d="M198 726q76 0 126 -42.5t50 -108.5q0 -68 -49 -109t-127 -41t-126.5 41.5t-48.5 108.5q0 66 49.5 108.5t125.5 42.5zM125 576q0 -28 20.5 -47.5t52.5 -19.5t53 19t21 47q0 30 -21.5 48.5t-52.5 18.5t-52 -18.5t-21 -47.5z" />
    <glyph glyph-name="guillemotright" unicode="&#xbb;" horiz-adv-x="538" 
d="M119 483l159 -234l-159 -234l-91 61l116 173l-116 173zM361 483l159 -234l-159 -234l-91 61l116 173l-116 173z" />
    <glyph glyph-name="onequarter" unicode="&#xbc;" horiz-adv-x="889" 
d="M716 85h-209v78l199 262h118v-256h57v-84h-57v-85h-108v85zM189 11l405 729l84 -47l-413 -725zM66 531l-58 66l159 117h96v-425h-108v317zM714 305l-99 -136h101v136h-2z" />
    <glyph glyph-name="onehalf" unicode="&#xbd;" horiz-adv-x="889" 
d="M594 740l84 -47l-413 -725l-76 43zM263 714v-425h-108v317l-89 -75l-58 66l159 117h96zM719 431q72 0 117 -32t45 -88q0 -44 -12 -66.5t-46 -48.5l-143 -110v-2h201v-84h-337v89l195 165q34 29 34 48q0 18 -16 28.5t-43 10.5q-28 0 -46 -15.5t-20 -38.5l-102 6
q5 67 50 102.5t123 35.5z" />
    <glyph glyph-name="threequarters" unicode="&#xbe;" horiz-adv-x="889" 
d="M4 401l109 22q11 -50 66 -50q68 0 68 48q0 24 -18 35.5t-64 11.5h-35v84h33q75 0 75 45q0 33 -56 33q-53 0 -64 -44l-110 20q30 114 174 114q72 0 118 -30.5t46 -83.5q0 -36 -21.5 -61t-61.5 -32v-2q42 -4 67 -33t25 -67q0 -59 -48.5 -93.5t-127.5 -34.5q-148 0 -175 118
zM511 163l199 262h118v-256h57v-84h-57v-85h-108v85h-209v78zM289 -32l-76 43l405 729l84 -47zM619 169h101v136h-2z" />
    <glyph glyph-name="questiondown" unicode="&#xbf;" horiz-adv-x="556" 
d="M265 492q38 0 65 -27.5t27 -64.5q0 -38 -27 -65t-65 -27t-65 27t-27 65t27.5 65t64.5 27zM340 252v-36q0 -42 -10 -64t-46 -54l-66 -60q-41 -37 -41 -70q0 -31 19.5 -50.5t52.5 -19.5q42 0 68.5 23.5t30.5 65.5l154 -10q-10 -104 -77 -160.5t-173 -56.5
q-100 0 -162.5 53.5t-62.5 143.5q0 59 28 101.5t91 91.5q26 20 35 36.5t9 43.5v22h150z" />
    <glyph glyph-name="Agrave" unicode="&#xc0;" horiz-adv-x="741" 
d="M171 0h-172l306 708h129l308 -708h-176l-61 150h-275zM168 904h204l101 -144h-132zM365 502l-86 -220h173z" />
    <glyph glyph-name="Aacute" unicode="&#xc1;" horiz-adv-x="741" 
d="M171 0h-172l306 708h129l308 -708h-176l-61 150h-275zM271 760l101 144h204l-173 -144h-132zM365 502l-86 -220h173z" />
    <glyph glyph-name="Acircumflex" unicode="&#xc2;" horiz-adv-x="741" 
d="M-1 0l306 708h129l308 -708h-176l-61 150h-275l-59 -150h-172zM172 760l119 144h163l116 -144h-138l-63 78l-62 -78h-135zM365 502l-86 -220h173z" />
    <glyph glyph-name="Atilde" unicode="&#xc3;" horiz-adv-x="741" 
d="M-1 0l306 708h129l308 -708h-176l-61 150h-275l-59 -150h-172zM254 766h-79q10 61 44 99.5t83 38.5q35 0 87 -21q35 -15 56 -15q28 0 44 36h78q-23 -138 -130 -138q-30 0 -78 21q-47 21 -63 21q-29 0 -42 -42zM279 282h173l-87 220z" />
    <glyph glyph-name="Adieresis" unicode="&#xc4;" horiz-adv-x="741" 
d="M-1 0l306 708h129l308 -708h-176l-61 150h-275l-59 -150h-172zM183 840q0 33 24 57.5t57 24.5q36 0 61.5 -23.5t25.5 -58.5q0 -36 -24 -61t-61 -25q-34 0 -58.5 25.5t-24.5 60.5zM391 840q0 33 24.5 57.5t56.5 24.5q36 0 61.5 -23.5t25.5 -58.5q0 -36 -24 -61t-61 -25
q-34 0 -58.5 25.5t-24.5 60.5zM279 282h173l-87 220z" />
    <glyph glyph-name="Aring" unicode="&#xc5;" horiz-adv-x="741" 
d="M-1 0l306 708h129l308 -708h-176l-61 150h-275l-59 -150h-172zM260 842q0 45 33 78t78 33q46 0 78.5 -33.5t32.5 -77.5q0 -45 -33 -78t-78 -33t-78 33t-33 78zM365 502l-86 -220h173zM320 842q0 -21 15 -36t36 -15t36 15t15 36t-15 36t-37 15q-19 0 -34.5 -15t-15.5 -36z
" />
    <glyph glyph-name="AE" unicode="&#xc6;" horiz-adv-x="1037" 
d="M176 0h-191l449 708h538v-144h-282v-132h258v-144h-258v-144h294v-144h-450v150h-263zM338 282h196v282h-17z" />
    <glyph glyph-name="Ccedilla" unicode="&#xc7;" horiz-adv-x="685" 
d="M416 726q72 0 136 -27t103 -77l-120 -98q-48 58 -134 58t-145.5 -63t-59.5 -165q0 -93 55 -160.5t145 -67.5q95 0 146 76l130 -97q-41 -59 -110 -91t-146 -32q-12 0 -19 1l-29 -43h6q120 0 120 -83q0 -45 -42 -71t-97 -26q-63 0 -125 30l25 47q45 -17 77 -17q66 0 66 32
q0 15 -15 24.5t-35 9.5q-17 0 -36 -8l-32 29l54 82q-136 24 -218 121.5t-82 243.5q0 167 106.5 269.5t275.5 102.5z" />
    <glyph glyph-name="Egrave" unicode="&#xc8;" horiz-adv-x="630" 
d="M78 0v708h481v-144h-325v-132h307v-144h-307v-144h343v-144h-499zM112 904h204l101 -144h-132z" />
    <glyph glyph-name="Eacute" unicode="&#xc9;" horiz-adv-x="630" 
d="M78 0v708h481v-144h-325v-132h307v-144h-307v-144h343v-144h-499zM215 760l101 144h204l-173 -144h-132z" />
    <glyph glyph-name="Ecircumflex" unicode="&#xca;" horiz-adv-x="630" 
d="M78 708h481v-144h-325v-132h307v-144h-307v-144h343v-144h-499v708zM251 760h-135l119 144h163l116 -144h-138l-63 78z" />
    <glyph glyph-name="Edieresis" unicode="&#xcb;" horiz-adv-x="630" 
d="M577 0h-499v708h481v-144h-325v-132h307v-144h-307v-144h343v-144zM127 840q0 33 24 57.5t57 24.5q36 0 61.5 -23.5t25.5 -58.5q0 -36 -24 -61t-61 -25q-34 0 -58.5 25.5t-24.5 60.5zM335 840q0 33 24.5 57.5t56.5 24.5q36 0 61.5 -23.5t25.5 -58.5q0 -36 -24 -61
t-61 -25q-34 0 -58.5 25.5t-24.5 60.5z" />
    <glyph glyph-name="Igrave" unicode="&#xcc;" horiz-adv-x="296" 
d="M149 904l101 -144h-132l-173 144h204zM226 708v-708h-156v708h156z" />
    <glyph glyph-name="Iacute" unicode="&#xcd;" horiz-adv-x="296" 
d="M353 904l-173 -144h-132l101 144h204zM226 708v-708h-156v708h156z" />
    <glyph glyph-name="Icircumflex" unicode="&#xce;" horiz-adv-x="296" 
d="M70 0v708h156v-708h-156zM84 760h-135l119 144h163l116 -144h-138l-63 78z" />
    <glyph glyph-name="Idieresis" unicode="&#xcf;" horiz-adv-x="296" 
d="M41 922q36 0 61.5 -23.5t25.5 -58.5q0 -36 -24 -61t-61 -25q-34 0 -58.5 25.5t-24.5 60.5q0 33 24 57.5t57 24.5zM249 922q36 0 61.5 -23.5t25.5 -58.5q0 -36 -24 -61t-61 -25q-34 0 -58.5 25.5t-24.5 60.5q0 33 24.5 57.5t56.5 24.5zM226 708v-708h-156v708h156z" />
    <glyph glyph-name="Eth" unicode="&#xd0;" horiz-adv-x="759" 
d="M72 318h-60v102h60v288h240q87 0 159.5 -20t130.5 -61.5t90.5 -111.5t32.5 -162q0 -109 -54.5 -190.5t-143 -122t-196.5 -40.5h-259v318zM228 564v-144h198v-102h-198v-174h86q113 0 181 51.5t68 163.5q0 100 -68.5 152.5t-170.5 52.5h-96z" />
    <glyph glyph-name="Ntilde" unicode="&#xd1;" horiz-adv-x="815" 
d="M228 0h-156v708h212l301 -492h2v492h156v-708h-204l-309 504h-2v-504zM291 766h-79q10 61 44 99.5t83 38.5q35 0 87 -21q35 -15 56 -15q28 0 44 36h78q-23 -138 -130 -138q-30 0 -78 21q-47 21 -63 21q-29 0 -42 -42z" />
    <glyph glyph-name="Ograve" unicode="&#xd2;" horiz-adv-x="832" 
d="M417 904l101 -144h-132l-173 144h204zM416 726q170 0 276 -102t106 -270q0 -167 -107 -269.5t-275 -102.5q-169 0 -275.5 102t-106.5 270t106.5 270t275.5 102zM196 354q0 -101 60.5 -164.5t159.5 -63.5q98 0 159 64t61 164q0 101 -61 164.5t-160 63.5
q-98 0 -158.5 -63.5t-60.5 -164.5z" />
    <glyph glyph-name="Oacute" unicode="&#xd3;" horiz-adv-x="832" 
d="M621 904l-173 -144h-132l101 144h204zM416 726q170 0 276 -102t106 -270q0 -167 -107 -269.5t-275 -102.5q-169 0 -275.5 102t-106.5 270t106.5 270t275.5 102zM196 354q0 -101 60.5 -164.5t159.5 -63.5q98 0 159 64t61 164q0 101 -61 164.5t-160 63.5
q-98 0 -158.5 -63.5t-60.5 -164.5z" />
    <glyph glyph-name="Ocircumflex" unicode="&#xd4;" horiz-adv-x="832" 
d="M34 354q0 168 106.5 270t275.5 102q170 0 276 -102t106 -270q0 -167 -107 -269.5t-275 -102.5q-169 0 -275.5 102t-106.5 270zM415 582q-98 0 -158.5 -63.5t-60.5 -164.5t60.5 -164.5t159.5 -63.5q98 0 159 64t61 164q0 101 -61 164.5t-160 63.5zM352 760h-135l119 144
h163l116 -144h-138l-63 78z" />
    <glyph glyph-name="Otilde" unicode="&#xd5;" horiz-adv-x="832" 
d="M347 904q35 0 87 -21q35 -15 56 -15q28 0 44 36h78q-23 -138 -130 -138q-30 0 -78 21q-47 21 -63 21q-29 0 -42 -42h-79q10 61 44 99.5t83 38.5zM416 726q170 0 276 -102t106 -270q0 -167 -107 -269.5t-275 -102.5q-169 0 -275.5 102t-106.5 270t106.5 270t275.5 102z
M196 354q0 -101 60.5 -164.5t159.5 -63.5q98 0 159 64t61 164q0 101 -61 164.5t-160 63.5q-98 0 -158.5 -63.5t-60.5 -164.5z" />
    <glyph glyph-name="Odieresis" unicode="&#xd6;" horiz-adv-x="832" 
d="M309 922q36 0 61.5 -23.5t25.5 -58.5q0 -36 -24 -61t-61 -25q-34 0 -58.5 25.5t-24.5 60.5q0 33 24 57.5t57 24.5zM517 922q36 0 61.5 -23.5t25.5 -58.5q0 -36 -24 -61t-61 -25q-34 0 -58.5 25.5t-24.5 60.5q0 33 24.5 57.5t56.5 24.5zM416 726q170 0 276 -102t106 -270
q0 -167 -107 -269.5t-275 -102.5q-169 0 -275.5 102t-106.5 270t106.5 270t275.5 102zM196 354q0 -101 60.5 -164.5t159.5 -63.5q98 0 159 64t61 164q0 101 -61 164.5t-160 63.5q-98 0 -158.5 -63.5t-60.5 -164.5z" />
    <glyph glyph-name="multiply" unicode="&#xd7;" horiz-adv-x="666" 
d="M334 395l172 174l89 -86l-173 -180l180 -173l-92 -93l-176 176l-177 -177l-89 86l174 181l-178 172l93 95z" />
    <glyph glyph-name="Oslash" unicode="&#xd8;" horiz-adv-x="832" 
d="M735 762l55 -49l-90 -98q98 -101 98 -261q0 -168 -107 -270t-275 -102q-138 0 -233 68l-93 -101l-56 48l93 102q-93 102 -93 255q0 168 106.5 270t275.5 102q130 0 227 -64zM196 354q0 -78 39 -137l304 331q-54 34 -124 34q-98 0 -158.5 -65t-60.5 -163zM592 497
l-305 -333q53 -38 129 -38q98 0 159 64t61 164q0 84 -44 143z" />
    <glyph glyph-name="Ugrave" unicode="&#xd9;" horiz-adv-x="741" 
d="M72 708h156v-431q0 -64 40.5 -107.5t102.5 -43.5q58 0 100 42t42 109v431h156v-438q0 -124 -76.5 -206t-221.5 -82t-222 82t-77 206v438zM168 904h204l101 -144h-132z" />
    <glyph glyph-name="Uacute" unicode="&#xda;" horiz-adv-x="741" 
d="M72 708h156v-431q0 -64 40.5 -107.5t102.5 -43.5q58 0 100 42t42 109v431h156v-438q0 -124 -76.5 -206t-221.5 -82t-222 82t-77 206v438zM403 760h-132l101 144h204z" />
    <glyph glyph-name="Ucircumflex" unicode="&#xdb;" horiz-adv-x="741" 
d="M72 708h156v-431q0 -64 40.5 -107.5t102.5 -43.5q58 0 100 42t42 109v431h156v-438q0 -124 -76.5 -206t-221.5 -82t-222 82t-77 206v438zM307 760h-135l119 144h163l116 -144h-138l-63 78z" />
    <glyph glyph-name="Udieresis" unicode="&#xdc;" horiz-adv-x="741" 
d="M371 -18q-145 0 -222 82t-77 206v438h156v-431q0 -64 40.5 -107.5t102.5 -43.5q58 0 100 42t42 109v431h156v-438q0 -124 -76.5 -206t-221.5 -82zM183 840q0 33 24 57.5t57 24.5q36 0 61.5 -23.5t25.5 -58.5q0 -36 -24 -61t-61 -25q-34 0 -58.5 25.5t-24.5 60.5zM474 754
q-34 0 -58.5 25.5t-24.5 60.5q0 33 24.5 57.5t56.5 24.5q36 0 61.5 -23.5t25.5 -58.5q0 -36 -24 -61t-61 -25z" />
    <glyph glyph-name="Yacute" unicode="&#xdd;" horiz-adv-x="648" 
d="M246 302l-266 406h194l150 -265l159 265h185l-266 -406v-302h-156v302zM224 786l101 144h204l-173 -144h-132z" />
    <glyph glyph-name="Thorn" unicode="&#xde;" horiz-adv-x="630" 
d="M72 0v708h156v-126h112q264 0 264 -215q0 -217 -257 -217h-119v-150h-156zM228 282h106q51 0 79.5 22t28.5 63q0 83 -130 83h-84v-168z" />
    <glyph glyph-name="germandbls" unicode="&#xdf;" horiz-adv-x="630" 
d="M309 768q100 0 165.5 -49.5t65.5 -133.5q0 -118 -102 -160v-2q74 -15 115 -69t41 -137q0 -105 -66 -167t-172 -62q-44 0 -93 12v122q26 -8 49 -8q63 0 100.5 31.5t37.5 85.5q0 58 -35.5 90t-104.5 32h-17v126h10q42 0 67.5 21.5t25.5 57.5q0 35 -26.5 56.5t-64.5 21.5
q-46 0 -74 -27t-28 -68v-541h-150v517q0 251 256 251z" />
    <glyph glyph-name="agrave" unicode="&#xe0;" horiz-adv-x="537" 
d="M202 -12q-72 0 -122.5 40t-50.5 110q0 35 12.5 63t31 45.5t49.5 30t56 18.5t63.5 9.5t60 4t56.5 0.5q0 40 -28.5 63.5t-67.5 23.5q-70 0 -122 -58l-80 82q81 78 214 78q122 0 172 -59t50 -185v-254h-138v61h-2q-46 -73 -154 -73zM66 708h204l101 -144h-132zM313 213
q-140 0 -140 -70q0 -26 22 -39.5t50 -13.5q46 0 79.5 24t33.5 68v31h-45z" />
    <glyph glyph-name="aacute" unicode="&#xe1;" horiz-adv-x="537" 
d="M29 138q0 35 12.5 63t31 45.5t49.5 30t56 18.5t63.5 9.5t60 4t56.5 0.5q0 40 -28.5 63.5t-67.5 23.5q-70 0 -122 -58l-80 82q81 78 214 78q122 0 172 -59t50 -185v-254h-138v61h-2q-46 -73 -154 -73q-72 0 -122.5 40t-50.5 110zM301 564h-132l101 144h204zM173 143
q0 -26 22 -39.5t50 -13.5q46 0 79.5 24t33.5 68v31h-45q-140 0 -140 -70z" />
    <glyph glyph-name="acircumflex" unicode="&#xe2;" horiz-adv-x="537" 
d="M202 -12q-72 0 -122.5 40t-50.5 110q0 35 12.5 63t31 45.5t49.5 30t56 18.5t63.5 9.5t60 4t56.5 0.5q0 40 -28.5 63.5t-67.5 23.5q-70 0 -122 -58l-80 82q81 78 214 78q122 0 172 -59t50 -185v-254h-138v61h-2q-46 -73 -154 -73zM205 564h-135l119 144h163l116 -144h-138
l-63 78zM173 143q0 -26 22 -39.5t50 -13.5q46 0 79.5 24t33.5 68v31h-45q-140 0 -140 -70z" />
    <glyph glyph-name="atilde" unicode="&#xe3;" horiz-adv-x="537" 
d="M29 138q0 35 12.5 63t31 45.5t49.5 30t56 18.5t63.5 9.5t60 4t56.5 0.5q0 40 -28.5 63.5t-67.5 23.5q-70 0 -122 -58l-80 82q81 78 214 78q122 0 172 -59t50 -185v-254h-138v61h-2q-46 -73 -154 -73q-72 0 -122.5 40t-50.5 110zM152 570h-79q10 61 44 99.5t83 38.5
q35 0 87 -21q35 -15 56 -15q28 0 44 36h78q-23 -138 -130 -138q-30 0 -78 21q-47 21 -63 21q-29 0 -42 -42zM313 213q-140 0 -140 -70q0 -26 22 -39.5t50 -13.5q46 0 79.5 24t33.5 68v31h-45z" />
    <glyph glyph-name="adieresis" unicode="&#xe4;" horiz-adv-x="537" 
d="M202 -12q-72 0 -122.5 40t-50.5 110q0 35 12.5 63t31 45.5t49.5 30t56 18.5t63.5 9.5t60 4t56.5 0.5q0 40 -28.5 63.5t-67.5 23.5q-70 0 -122 -58l-80 82q81 78 214 78q122 0 172 -59t50 -185v-254h-138v61h-2q-46 -73 -154 -73zM81 644q0 33 24 57.5t57 24.5
q34 0 60.5 -23t26.5 -59t-24 -61t-61 -25q-35 0 -59 25.5t-24 60.5zM289 644q0 33 24.5 57.5t56.5 24.5q35 0 61 -23.5t26 -58.5q0 -36 -24 -61t-61 -25q-34 0 -58.5 25.5t-24.5 60.5zM313 213q-140 0 -140 -70q0 -26 22 -39.5t50 -13.5q46 0 79.5 24t33.5 68v31h-45z" />
    <glyph glyph-name="aring" unicode="&#xe5;" horiz-adv-x="537" 
d="M202 -12q-72 0 -122.5 40t-50.5 110q0 35 12.5 63t31 45.5t49.5 30t56 18.5t63.5 9.5t60 4t56.5 0.5q0 40 -28.5 63.5t-67.5 23.5q-70 0 -122 -58l-80 82q81 78 214 78q122 0 172 -59t50 -185v-254h-138v61h-2q-46 -73 -154 -73zM158 656q0 45 33 78t78 33
q46 0 78.5 -33.5t32.5 -77.5t-32.5 -77.5t-78.5 -33.5q-44 0 -77.5 33t-33.5 78zM173 143q0 -26 22 -39.5t50 -13.5q46 0 79.5 24t33.5 68v31h-45q-140 0 -140 -70zM218 656q0 -21 15 -36t36 -15t36 15t15 36t-15 36t-37 15q-19 0 -34.5 -15t-15.5 -36z" />
    <glyph glyph-name="ae" unicode="&#xe6;" horiz-adv-x="852" 
d="M29 138q0 37 13.5 65t40 45t53.5 27.5t66.5 15t66 6t63.5 1.5h17q0 42 -23 70t-64 28q-70 0 -122 -58l-80 82q40 38 97 58t116 20q99 0 159 -59q60 59 163 59q100 0 164 -66t64 -190v-46h-348q9 -42 39.5 -68t73.5 -26q64 0 107 59l105 -77q-36 -45 -91 -70.5t-114 -25.5
q-140 0 -194 79q-56 -79 -198 -79q-71 0 -122.5 39.5t-51.5 110.5zM173 139q0 -49 77 -49q99 0 99 104v2h-19h-8q-149 0 -149 -57zM475 298h198q0 40 -27 66t-66 26q-42 0 -71.5 -25t-33.5 -67z" />
    <glyph glyph-name="ccedilla" unicode="&#xe7;" horiz-adv-x="482" 
d="M308 498q111 0 173 -65l-99 -104q-27 37 -74 37q-55 0 -87.5 -34t-32.5 -89q0 -56 33 -89.5t87 -33.5q44 0 74 37l99 -104q-64 -65 -173 -65h-10l-32 -48h6q120 0 120 -83q0 -50 -46 -73.5t-93 -23.5q-63 0 -125 30l25 47q45 -17 77 -17q66 0 66 32q0 15 -15 24.5
t-35 9.5q-17 0 -36 -8l-32 29l59 89q-89 20 -144 86t-55 161q0 114 77.5 184.5t192.5 70.5z" />
    <glyph glyph-name="egrave" unicode="&#xe8;" horiz-adv-x="574" 
d="M288 708l101 -144h-132l-173 144h204zM38 243q0 114 77.5 184.5t196.5 70.5q30 0 59.5 -7.5t60 -26t53 -47t37 -75t14.5 -104.5v-42h-348q9 -43 38.5 -68.5t74.5 -25.5q62 0 107 59l105 -77q-35 -45 -91 -70.5t-114 -25.5q-113 0 -191.5 70t-78.5 185zM188 298h198
q0 41 -26.5 66.5t-66.5 25.5q-43 0 -72 -25t-33 -67z" />
    <glyph glyph-name="eacute" unicode="&#xe9;" horiz-adv-x="574" 
d="M492 708l-173 -144h-132l101 144h204zM38 243q0 114 77.5 184.5t196.5 70.5q30 0 59.5 -7.5t60 -26t53 -47t37 -75t14.5 -104.5v-42h-348q9 -43 38.5 -68.5t74.5 -25.5q62 0 107 59l105 -77q-35 -45 -91 -70.5t-114 -25.5q-113 0 -191.5 70t-78.5 185zM188 298h198
q0 41 -26.5 66.5t-66.5 25.5q-43 0 -72 -25t-33 -67z" />
    <glyph glyph-name="ecircumflex" unicode="&#xea;" horiz-adv-x="574" 
d="M308 -12q-113 0 -191.5 70t-78.5 185q0 114 77.5 184.5t196.5 70.5q30 0 59.5 -7.5t60 -26t53 -47t37 -75t14.5 -104.5v-42h-348q9 -43 38.5 -68.5t74.5 -25.5q62 0 107 59l105 -77q-35 -45 -91 -70.5t-114 -25.5zM88 564l119 144h163l116 -144h-138l-63 78l-62 -78h-135
zM188 298h198q0 41 -26.5 66.5t-66.5 25.5q-43 0 -72 -25t-33 -67z" />
    <glyph glyph-name="edieresis" unicode="&#xeb;" horiz-adv-x="574" 
d="M180 726q34 0 60.5 -23t26.5 -59t-24 -61t-61 -25q-35 0 -59 25.5t-24 60.5q0 33 24 57.5t57 24.5zM388 726q35 0 61 -23.5t26 -58.5q0 -36 -24 -61t-61 -25q-34 0 -58.5 25.5t-24.5 60.5q0 33 24.5 57.5t56.5 24.5zM38 243q0 114 77.5 184.5t196.5 70.5q30 0 59.5 -7.5
t60 -26t53 -47t37 -75t14.5 -104.5v-42h-348q9 -43 38.5 -68.5t74.5 -25.5q62 0 107 59l105 -77q-35 -45 -91 -70.5t-114 -25.5q-113 0 -191.5 70t-78.5 185zM188 298h198q0 41 -26.5 66.5t-66.5 25.5q-43 0 -72 -25t-33 -67z" />
    <glyph glyph-name="igrave" unicode="&#xec;" horiz-adv-x="260" 
d="M131 708l101 -144h-132l-173 144h204zM205 486v-486h-150v486h150z" />
    <glyph glyph-name="iacute" unicode="&#xed;" horiz-adv-x="260" 
d="M335 708l-173 -144h-132l101 144h204zM205 486v-486h-150v486h150z" />
    <glyph glyph-name="icircumflex" unicode="&#xee;" horiz-adv-x="260" 
d="M55 0v486h150v-486h-150zM66 564h-135l119 144h163l116 -144h-138l-63 78z" />
    <glyph glyph-name="idieresis" unicode="&#xef;" horiz-adv-x="260" 
d="M23 726q34 0 60.5 -23t26.5 -59t-24 -61t-61 -25q-35 0 -59 25.5t-24 60.5q0 33 24 57.5t57 24.5zM231 726q35 0 61 -23.5t26 -58.5q0 -36 -24 -61t-61 -25q-34 0 -58.5 25.5t-24.5 60.5q0 33 24.5 57.5t56.5 24.5zM205 486v-486h-150v486h150z" />
    <glyph glyph-name="eth" unicode="&#xf0;" horiz-adv-x="610" 
d="M133 731l122 70q33 -25 80 -72l114 48l77 -67l-123 -51q84 -87 128 -177t44 -198q0 -133 -67.5 -214.5t-199.5 -81.5q-116 0 -194.5 69.5t-78.5 185.5q0 112 76 183.5t172 71.5q65 0 98 -26l2 2q-51 72 -111 129l-106 -45l-72 68l108 46q-34 36 -69 59zM185 243
q0 -55 32.5 -89t87.5 -34q56 0 88 34t32 89t-32.5 89t-88.5 34q-55 0 -87 -34t-32 -89z" />
    <glyph glyph-name="ntilde" unicode="&#xf1;" horiz-adv-x="574" 
d="M203 0h-150v486h144v-66h2q20 37 57.5 57.5t84.5 20.5q93 0 136.5 -52t43.5 -171v-275h-150v250q0 63 -19 89.5t-59 26.5q-90 0 -90 -119v-247zM170 570h-79q10 61 44 99.5t83 38.5q35 0 87 -21q35 -15 56 -15q28 0 44 36h78q-23 -138 -130 -138q-30 0 -78 21
q-47 21 -63 21q-29 0 -42 -42z" />
    <glyph glyph-name="ograve" unicode="&#xf2;" horiz-adv-x="610" 
d="M306 708l101 -144h-132l-173 144h204zM305 498q115 0 192.5 -70.5t77.5 -184.5q0 -113 -78 -184t-192 -71q-115 0 -192.5 70t-77.5 185q0 114 77.5 184.5t192.5 70.5zM185 243q0 -55 32.5 -89t87.5 -34t87.5 33.5t32.5 89.5q0 57 -32.5 90t-88.5 33q-54 0 -86.5 -34
t-32.5 -89z" />
    <glyph glyph-name="oacute" unicode="&#xf3;" horiz-adv-x="610" 
d="M510 708l-173 -144h-132l101 144h204zM305 498q115 0 192.5 -70.5t77.5 -184.5q0 -113 -78 -184t-192 -71q-115 0 -192.5 70t-77.5 185q0 114 77.5 184.5t192.5 70.5zM185 243q0 -55 32.5 -89t87.5 -34t87.5 33.5t32.5 89.5q0 57 -32.5 90t-88.5 33q-54 0 -86.5 -34
t-32.5 -89z" />
    <glyph glyph-name="ocircumflex" unicode="&#xf4;" horiz-adv-x="610" 
d="M35 243q0 114 77.5 184.5t192.5 70.5t192.5 -70.5t77.5 -184.5q0 -113 -78 -184t-192 -71q-115 0 -192.5 70t-77.5 185zM304 366q-54 0 -86.5 -34t-32.5 -89t32.5 -89t87.5 -34t87.5 33.5t32.5 89.5q0 57 -32.5 90t-88.5 33zM106 564l119 144h163l116 -144h-138l-63 78
l-62 -78h-135z" />
    <glyph glyph-name="otilde" unicode="&#xf5;" horiz-adv-x="610" 
d="M236 708q35 0 87 -21q35 -15 56 -15q28 0 44 36h78q-23 -138 -130 -138q-30 0 -78 21q-47 21 -63 21q-29 0 -42 -42h-79q10 61 44 99.5t83 38.5zM305 498q115 0 192.5 -70.5t77.5 -184.5q0 -113 -78 -184t-192 -71q-115 0 -192.5 70t-77.5 185q0 114 77.5 184.5
t192.5 70.5zM185 243q0 -55 32.5 -89t87.5 -34t87.5 33.5t32.5 89.5q0 57 -32.5 90t-88.5 33q-54 0 -86.5 -34t-32.5 -89z" />
    <glyph glyph-name="odieresis" unicode="&#xf6;" horiz-adv-x="610" 
d="M198 726q34 0 60.5 -23t26.5 -59t-24 -61t-61 -25q-35 0 -59 25.5t-24 60.5q0 33 24 57.5t57 24.5zM406 726q35 0 61 -23.5t26 -58.5q0 -36 -24 -61t-61 -25q-34 0 -58.5 25.5t-24.5 60.5q0 33 24.5 57.5t56.5 24.5zM305 498q115 0 192.5 -70.5t77.5 -184.5
q0 -113 -78 -184t-192 -71q-115 0 -192.5 70t-77.5 185q0 114 77.5 184.5t192.5 70.5zM185 243q0 -55 32.5 -89t87.5 -34t87.5 33.5t32.5 89.5q0 57 -32.5 90t-88.5 33q-54 0 -86.5 -34t-32.5 -89z" />
    <glyph glyph-name="divide" unicode="&#xf7;" horiz-adv-x="666" 
d="M333 578q36 0 61 -25.5t25 -60.5t-25 -60.5t-61 -25.5q-35 0 -60.5 25.5t-25.5 60.5t25 60.5t61 25.5zM607 366v-126h-548v126h548zM333 200q36 0 61 -25.5t25 -60.5t-25 -60.5t-61 -25.5q-35 0 -60.5 25.5t-25.5 60.5t25.5 60.5t60.5 25.5z" />
    <glyph glyph-name="oslash" unicode="&#xf8;" horiz-adv-x="610" 
d="M26 6l70 70q-61 68 -61 167q0 114 77.5 184.5t192.5 70.5q94 0 165 -49l67 67l47 -45l-66 -66q57 -67 57 -162q0 -114 -77.5 -184.5t-192.5 -70.5q-91 0 -159 46l-73 -73zM304 366q-54 0 -86.5 -34t-32.5 -89q0 -37 15 -63l170 170q-27 16 -66 16zM413 300l-167 -166
q28 -14 59 -14q55 0 87.5 33.5t32.5 89.5q0 30 -12 57z" />
    <glyph glyph-name="ugrave" unicode="&#xf9;" horiz-adv-x="574" 
d="M53 212v274h150v-241q0 -21 0.5 -32.5t4.5 -32t11.5 -31.5t23.5 -20t38 -9q47 0 68.5 29.5t21.5 90.5v246h150v-486h-144v66h-2q-20 -37 -58 -57.5t-85 -20.5q-95 0 -137 53.5t-42 170.5zM84 708h204l101 -144h-132z" />
    <glyph glyph-name="uacute" unicode="&#xfa;" horiz-adv-x="574" 
d="M53 212v274h150v-241q0 -21 0.5 -32.5t4.5 -32t11.5 -31.5t23.5 -20t38 -9q47 0 68.5 29.5t21.5 90.5v246h150v-486h-144v66h-2q-20 -37 -58 -57.5t-85 -20.5q-95 0 -137 53.5t-42 170.5zM319 564h-132l101 144h204z" />
    <glyph glyph-name="ucircumflex" unicode="&#xfb;" horiz-adv-x="574" 
d="M53 212v274h150v-241q0 -21 0.5 -32.5t4.5 -32t11.5 -31.5t23.5 -20t38 -9q47 0 68.5 29.5t21.5 90.5v246h150v-486h-144v66h-2q-20 -37 -58 -57.5t-85 -20.5q-95 0 -137 53.5t-42 170.5zM223 564h-135l119 144h163l116 -144h-138l-63 78z" />
    <glyph glyph-name="udieresis" unicode="&#xfc;" horiz-adv-x="574" 
d="M53 486h150v-241q0 -21 0.5 -32.5t4.5 -32t11.5 -31.5t23.5 -20t38 -9q47 0 68.5 29.5t21.5 90.5v246h150v-486h-144v66h-2q-20 -37 -58 -57.5t-85 -20.5q-95 0 -137 53.5t-42 170.5v274zM99 644q0 33 24 57.5t57 24.5q34 0 60.5 -23t26.5 -59t-24 -61t-61 -25
q-35 0 -59 25.5t-24 60.5zM307 644q0 33 24.5 57.5t56.5 24.5q35 0 61 -23.5t26 -58.5q0 -36 -24 -61t-61 -25q-34 0 -58.5 25.5t-24.5 60.5z" />
    <glyph glyph-name="yacute" unicode="&#xfd;" horiz-adv-x="556" 
d="M216 -4l-213 490h162l125 -321h2l107 321h154l-218 -560q-11 -27 -15.5 -38.5t-14 -32.5t-16.5 -29.5t-19 -22.5t-24.5 -19.5t-30.5 -12.5t-39.5 -9t-48.5 -2q-58 0 -112 18l20 123q35 -15 70 -15q17 0 30 2t23 9t16 11.5t13 18t10 19.5t9.5 24.5t9.5 25.5zM178 564
l101 144h204l-173 -144h-132z" />
    <glyph glyph-name="thorn" unicode="&#xfe;" horiz-adv-x="630" 
d="M217 -228h-150v984h150v-322h2q19 30 58 47t79 17q108 0 173.5 -70.5t65.5 -180.5q0 -103 -60 -181t-162 -78q-107 0 -153 63h-3v-279zM205 243q0 -55 32 -89t88 -34q55 0 87.5 33.5t32.5 89.5q0 57 -32.5 90t-88.5 33q-55 0 -87 -34.5t-32 -88.5z" />
    <glyph glyph-name="ydieresis" unicode="&#xff;" horiz-adv-x="556" 
d="M216 -4l-213 490h162l125 -321h2l107 321h154l-218 -560q-11 -27 -15.5 -38.5t-14 -32.5t-16.5 -29.5t-19 -22.5t-24.5 -19.5t-30.5 -12.5t-39.5 -9t-48.5 -2q-58 0 -112 18l20 123q35 -15 70 -15q17 0 30 2t23 9t16 11.5t13 18t10 19.5t9.5 24.5t9.5 25.5zM90 644
q0 33 24 57.5t57 24.5q34 0 60.5 -23t26.5 -59t-24 -61t-61 -25q-35 0 -59 25.5t-24 60.5zM381 558q-34 0 -58.5 25.5t-24.5 60.5q0 33 24.5 57.5t56.5 24.5q35 0 61 -23.5t26 -58.5q0 -36 -24 -61t-61 -25z" />
    <glyph glyph-name="dotlessi" unicode="&#x131;" horiz-adv-x="260" 
d="M205 486v-486h-150v486h150z" />
    <glyph glyph-name="Lslash" unicode="&#x141;" horiz-adv-x="537" 
d="M18 240l60 52v416h156v-281l210 185v-130l-210 -184v-154h289v-144h-445v160l-60 -52v132z" />
    <glyph glyph-name="lslash" unicode="&#x142;" horiz-adv-x="260" 
d="M55 248l-60 -61v129l60 61v379h150v-229l60 61v-129l-60 -61v-398h-150v248z" />
    <glyph glyph-name="OE" unicode="&#x152;" horiz-adv-x="1018" 
d="M34 354q0 165 109.5 259.5t276.5 94.5h533v-144h-288v-132h264v-144h-264v-144h300v-144h-536q-52 0 -104.5 11.5t-105.5 38t-93.5 66t-66 101.5t-25.5 137zM458 564q-48 0 -91.5 -10t-83.5 -33t-63.5 -65.5t-23.5 -101.5q0 -103 72.5 -156.5t183.5 -53.5h57v420h-51z
" />
    <glyph glyph-name="oe" unicode="&#x153;" horiz-adv-x="944" 
d="M306 498q109 0 182 -73q69 73 190 73q108 0 168 -71.5t60 -185.5v-45h-348q9 -42 39.5 -68t73.5 -26q63 0 107 59l105 -77q-36 -45 -91 -70.5t-114 -25.5q-126 0 -190 69q-68 -69 -182 -69q-116 0 -193.5 70t-77.5 185t77.5 185t193.5 70zM558 298h198q0 41 -26.5 66.5
t-66.5 25.5q-43 0 -72 -25t-33 -67zM185 243q0 -56 32.5 -89.5t88.5 -33.5q55 0 87.5 33.5t32.5 89.5q0 57 -32.5 90t-88.5 33q-55 0 -87.5 -34t-32.5 -89z" />
    <glyph glyph-name="Scaron" unicode="&#x160;" horiz-adv-x="574" 
d="M19 71l111 122q53 -67 136 -67q40 0 74 18.5t34 55.5q0 11 -4 21t-8.5 17.5t-15.5 15t-18.5 12t-24.5 10.5l-25.5 9t-29 9.5t-28.5 9.5q-39 13 -65.5 25.5t-55 34t-43 55t-14.5 77.5q0 108 79.5 169t190.5 61q132 0 217 -74l-107 -117q-18 23 -50 35t-63 12
q-39 0 -72 -18.5t-33 -54.5q0 -13 4 -23.5t13.5 -19t17.5 -14.5t25.5 -12.5t27 -10t33 -10t32.5 -9.5q37 -11 63.5 -24t54 -34.5t41.5 -56t14 -80.5q0 -114 -78 -173.5t-195 -59.5q-143 0 -238 89zM200 786l-116 144h138l63 -78l62 78h135l-119 -144h-163z" />
    <glyph glyph-name="scaron" unicode="&#x161;" horiz-adv-x="463" 
d="M24 54l91 101q45 -53 106 -53q68 0 68 35q0 19 -19 29t-58 18q-32 7 -51 11.5t-46 16t-42 26t-26 39.5t-11 57q0 76 57 120t147 44q119 0 180 -64l-92 -91q-34 41 -86 41q-25 0 -40.5 -11t-15.5 -29q0 -17 19.5 -27t70.5 -20q88 -17 125.5 -52.5t37.5 -96.5
q0 -79 -61.5 -119.5t-162.5 -40.5q-127 0 -191 66zM145 564l-116 144h138l63 -78l62 78h135l-119 -144h-163z" />
    <glyph glyph-name="Ydieresis" unicode="&#x178;" horiz-adv-x="648" 
d="M246 302l-266 406h194l150 -265l159 265h185l-266 -406v-302h-156v302zM136 866q0 33 24 57.5t57 24.5q36 0 61.5 -23.5t25.5 -58.5q0 -36 -24 -61t-61 -25q-34 0 -58.5 25.5t-24.5 60.5zM427 780q-34 0 -58.5 25.5t-24.5 60.5q0 33 24.5 57.5t56.5 24.5q36 0 61.5 -23.5
t25.5 -58.5q0 -36 -24 -61t-61 -25z" />
    <glyph glyph-name="Zcaron" unicode="&#x17d;" horiz-adv-x="630" 
d="M35 0v144l359 426h-346v138h535v-138l-352 -426h364v-144h-560zM228 787l-116 144h138l63 -78l62 78h135l-119 -144h-163z" />
    <glyph glyph-name="zcaron" unicode="&#x17e;" horiz-adv-x="500" 
d="M34 0v150l252 216h-246v120h420v-144l-264 -222h270v-120h-432zM47 708h138l63 -78l62 78h135l-119 -144h-163z" />
    <glyph glyph-name="florin" unicode="&#x192;" horiz-adv-x="592" 
d="M-20 -115l52 119q19 -11 46 -11q16 0 29 7t20 15t13.5 26.5t8.5 28t7 32.5l47 230h-114v102h134l20 101q20 103 63 144t132 41q67 0 131 -30l-53 -113q-27 11 -52 11q-33 0 -51.5 -18.5t-26.5 -59.5l-16 -76h126v-102h-146l-58 -294q-36 -177 -201 -177q-53 0 -111 24z
" />
    <glyph glyph-name="circumflex" unicode="&#x2c6;" horiz-adv-x="260" 
d="M66 564h-135l119 144h163l116 -144h-138l-63 78z" />
    <glyph glyph-name="caron" unicode="&#x2c7;" horiz-adv-x="260" 
d="M-73 708h138l63 -78l62 78h135l-119 -144h-163z" />
    <glyph glyph-name="uni02C9" unicode="&#x2c9;" horiz-adv-x="260" 
d="M300 687v-96h-340v96h340z" />
    <glyph glyph-name="breve" unicode="&#x2d8;" horiz-adv-x="260" 
d="M-54 708h80q9 -48 105 -48q21 0 32.5 1t28 5t27 14.5t16.5 27.5h79q-8 -73 -58 -108.5t-126 -35.5q-79 0 -129.5 35t-54.5 109z" />
    <glyph glyph-name="dotaccent" unicode="&#x2d9;" horiz-adv-x="260" 
d="M127 726q36 0 61.5 -23.5t25.5 -58.5q0 -36 -24 -61t-61 -25q-35 0 -59 26t-24 60q0 33 24.5 57.5t56.5 24.5z" />
    <glyph glyph-name="ring" unicode="&#x2da;" horiz-adv-x="260" 
d="M130 767q46 0 78.5 -33.5t32.5 -77.5t-32.5 -77.5t-78.5 -33.5q-44 0 -77.5 33t-33.5 78t33 78t78 33zM79 656q0 -21 15 -36t36 -15t36 15t15 36t-15 36t-37 15q-19 0 -34.5 -15t-15.5 -36z" />
    <glyph glyph-name="ogonek" unicode="&#x2db;" horiz-adv-x="260" 
d="M164 12q-38 -35 -60.5 -71.5t-22.5 -62.5q0 -18 12.5 -32t29.5 -14q26 0 54 23l28 -53q-55 -42 -109 -42q-47 0 -76 26t-29 67q0 36 29.5 79.5t75.5 79.5h68z" />
    <glyph glyph-name="tilde" unicode="&#x2dc;" horiz-adv-x="260" 
d="M61 708q35 0 87 -21q35 -15 56 -15q28 0 44 36h78q-23 -138 -130 -138q-30 0 -78 21q-47 21 -63 21q-29 0 -42 -42h-79q10 61 44 99.5t83 38.5z" />
    <glyph glyph-name="hungarumlaut" unicode="&#x2dd;" horiz-adv-x="260" 
d="M162 564l101 144h204l-173 -144h-132zM-102 564l101 144h204l-173 -144h-132z" />
    <glyph glyph-name="uni0394" unicode="&#x394;" horiz-adv-x="693" 
d="M432 721l233 -642v-79h-638v78l240 643h165zM342 580q-8 -30 -27.5 -86.5t-25.5 -76.5l-119 -308h345l-112 293q-6 19 -27.5 82t-30.5 96h-3z" />
    <glyph glyph-name="uni0394" unicode="&#x3b4;" horiz-adv-x="693" 
d="M432 721l233 -642v-79h-638v78l240 643h165zM342 580q-8 -30 -27.5 -86.5t-25.5 -76.5l-119 -308h345l-112 293q-6 19 -27.5 82t-30.5 96h-3z" />
    <glyph glyph-name="uni03A9" unicode="&#x3a9;" horiz-adv-x="751" 
d="M39 0v109h143v3q-128 114 -128 280q0 139 92.5 231.5t231.5 92.5q140 0 229 -94.5t89 -224.5q0 -81 -35 -157t-96 -128v-3h145v-109h-283v81q68 42 98.5 119.5t30.5 168.5q0 92 -46 164t-133 72q-88 0 -135.5 -72t-47.5 -169q0 -87 31.5 -164.5t97.5 -118.5v-81h-284z
" />
    <glyph glyph-name="uni03A9" unicode="&#x3c9;" horiz-adv-x="751" 
d="M39 0v109h143v3q-128 114 -128 280q0 139 92.5 231.5t231.5 92.5q140 0 229 -94.5t89 -224.5q0 -81 -35 -157t-96 -128v-3h145v-109h-283v81q68 42 98.5 119.5t30.5 168.5q0 92 -46 164t-133 72q-88 0 -135.5 -72t-47.5 -169q0 -87 31.5 -164.5t97.5 -118.5v-81h-284z
" />
    <glyph glyph-name="uni03BC" unicode="&#x3bc;" horiz-adv-x="574" 
d="M53 -228v714h150v-249q0 -62 18.5 -89.5t59.5 -27.5q47 0 68.5 29.5t21.5 90.5v246h150v-486h-144v66h-2q-20 -37 -58 -57.5t-84 -20.5q-17 0 -30 3v-219h-150z" />
    <glyph glyph-name="pi" unicode="&#x3c0;" horiz-adv-x="637" 
d="M4 495q44 35 167 35h451l-10 -114h-74v-271q0 -88 14 -145h-134q-18 27 -18 139v277h-142q-15 -262 -66 -416h-134q21 72 41 190.5t23 225.5q-70 0 -103 -10z" />
    <glyph glyph-name="uni060C" unicode="&#x60c;" horiz-adv-x="296" 
d="M44 0l90 281h127l-74 -281h-143z" />
    <glyph glyph-name="uni0615" unicode="&#x615;" 
d="M-153 550v73h45v172h68v-95q35 48 89 48q47 0 75.5 -30.5t28.5 -82.5q0 -37 -18 -85h-288zM-40 623h117q1 4 1 12q0 19 -10.5 29.5t-27.5 10.5q-45 0 -80 -52z" />
    <glyph glyph-name="uni061B" unicode="&#x61b;" horiz-adv-x="296" 
d="M43 232l90 262h126l-73 -262h-143zM119 -6q-38 0 -64.5 26.5t-26.5 64.5t26.5 64.5t64.5 26.5t64.5 -26.5t26.5 -64.5t-26 -64.5t-65 -26.5z" />
    <glyph glyph-name="uni061F" unicode="&#x61f;" horiz-adv-x="554" 
d="M207 232v30q0 40 -40 71q-67 53 -95 95.5t-28 100.5q0 92 63.5 144.5t160.5 52.5q106 0 172 -56t77 -160l-152 -10q-3 39 -29 64.5t-70 25.5q-32 0 -52.5 -19.5t-20.5 -52.5q0 -17 12.5 -36.5t27 -33.5t43.5 -39.5t43 -39.5q36 -35 36 -92v-45h-148zM281 -6
q-38 0 -64.5 26.5t-26.5 64.5t26.5 64.5t64.5 26.5q39 0 65 -26.5t26 -64.5t-26 -64.5t-65 -26.5z" />
    <glyph glyph-name="uni0621" unicode="&#x621;" horiz-adv-x="472" 
d="M56 117h62q-21 38 -21 85q0 79 54 127t144 48q51 0 109 -15l-27 -121q-43 10 -71 10q-34 0 -54 -19.5t-20 -50.5q0 -38 18 -64h172v-117h-366v117z" />
    <glyph glyph-name="uni0622" unicode="&#x622;" horiz-adv-x="264" 
d="M205 801q-29 0 -87 13.5t-71 13.5q-23 0 -47 -17l-42 58q42 42 90 42q19 0 74.5 -14.5t78.5 -14.5q24 0 50 23l47 -51q-41 -53 -93 -53zM58 0v756h148v-756h-148z" />
    <glyph glyph-name="uni0623" unicode="&#x623;" horiz-adv-x="264" 
d="M58 0v756h148v-756h-148zM40 866h32q-11 20 -11 41q0 36 25.5 58t69.5 22q28 0 53 -7l-12 -64q-16 4 -31 4q-35 0 -35 -29q0 -11 7 -25h80v-67h-178v67z" />
    <glyph glyph-name="uni0624" unicode="&#x624;" horiz-adv-x="549" 
d="M50 218q0 91 65 155t170 64q110 0 164 -60.5t54 -152.5v-200q0 -34 -6 -61.5t-24.5 -58t-49 -51t-84 -34t-125.5 -13.5q-32 0 -70 3l-8 133q32 -3 60 -3q76 0 117.5 22t40.5 67q-40 -9 -89 -9q-97 0 -156 53t-59 146zM167 635h42q-15 25 -15 53q0 45 32.5 73t87.5 28
q36 0 67 -7l-14 -83q-18 5 -40 5q-45 0 -45 -36q0 -16 10 -33h101v-85h-226v85zM279 303q-35 0 -58 -22t-23 -56q0 -71 91 -71q29 0 66 5v40q0 104 -76 104z" />
    <glyph glyph-name="uni0625" unicode="&#x625;" horiz-adv-x="264" 
d="M58 0v756h148v-756h-148zM220 -259h-178v66h33q-12 19 -12 42q0 36 25.5 58t69.5 22q28 0 53 -7l-12 -64q-16 4 -31 4q-35 0 -35 -29q0 -13 8 -26h79v-66z" />
    <glyph glyph-name="uni0626" unicode="&#x626;" horiz-adv-x="773" 
d="M10 68q0 60 27 141l136 -34q-11 -49 -11 -77q0 -148 216 -148q98 0 150 17t52 44q0 15 -37.5 37t-82 45t-82 67.5t-37.5 98.5q0 74 64 126t177 52q58 0 118 -15l-25 -140q-44 11 -86 11q-46 0 -70 -12t-24 -30q0 -20 37 -42.5t81.5 -42t81.5 -58t37 -87.5
q0 -28 -9.5 -55.5t-34 -57t-63 -51.5t-102.5 -36.5t-145 -14.5q-170 0 -269 64.5t-99 197.5zM46 376h42q-15 26 -15 53q0 45 32.5 73t87.5 28q35 0 67 -7l-14 -83q-18 5 -40 5q-45 0 -45 -36q0 -16 10 -33h101v-85h-226v85z" />
    <glyph glyph-name="uni0627" unicode="&#x627;" horiz-adv-x="264" 
d="M58 0v756h148v-756h-148z" />
    <glyph glyph-name="uni0628" unicode="&#x628;" horiz-adv-x="970" 
d="M776 426h148v-262q0 -78 -43 -121t-127 -43h-475q-120 0 -189.5 58.5t-69.5 151.5q0 77 32 162l127 -33q-16 -69 -16 -98q0 -52 38 -82t102 -30h397q42 0 59 19t17 65v213zM474 -77q33 0 52.5 -21.5t19.5 -54.5q0 -32 -19.5 -52.5t-52.5 -20.5t-53.5 20.5t-20.5 52.5
q0 33 20.5 54.5t53.5 21.5z" />
    <glyph glyph-name="uni0629" unicode="&#x629;" horiz-adv-x="526" 
d="M164 553q-32 0 -53.5 21.5t-21.5 53.5t21.5 53t53.5 21t52.5 -21t20.5 -53t-20.5 -53.5t-52.5 -21.5zM344 553q-32 0 -53.5 21.5t-21.5 53.5t21.5 53t53.5 21t52.5 -21t20.5 -53t-21 -53.5t-52 -21.5zM255 -5q-106 0 -170 54t-64 151q0 108 64.5 172.5t169.5 64.5
q104 0 167.5 -65.5t63.5 -171.5q0 -97 -61 -151t-170 -54zM255 129q35 0 57 22t22 60q0 43 -22 67.5t-57 24.5q-37 0 -59.5 -24t-22.5 -66q0 -41 21 -62.5t61 -21.5z" />
    <glyph glyph-name="uni062A" unicode="&#x62a;" horiz-adv-x="970" 
d="M393 429q-32 0 -53.5 21.5t-21.5 53.5t21.5 53t53.5 21t52.5 -21t20.5 -53t-20.5 -53.5t-52.5 -21.5zM573 429q-32 0 -53.5 21.5t-21.5 53.5t21.5 53t53.5 21t52.5 -21t20.5 -53t-21 -53.5t-52 -21.5zM776 426h148v-262q0 -78 -43 -121t-127 -43h-475q-120 0 -189.5 58.5
t-69.5 151.5q0 77 32 162l127 -33q-16 -69 -16 -98q0 -52 38 -82t102 -30h397q42 0 59 19t17 65v213z" />
    <glyph glyph-name="uni062B" unicode="&#x62b;" horiz-adv-x="970" 
d="M486 570q-31 0 -52 22t-21 53q0 32 21 54t52 22q33 0 53.5 -22t20.5 -54t-20.5 -53.5t-53.5 -21.5zM393 417q-32 0 -53.5 22t-21.5 54t21.5 53t53.5 21t52.5 -21t20.5 -53q0 -33 -20.5 -54.5t-52.5 -21.5zM498 493q0 32 21.5 53t53.5 21t52.5 -21t20.5 -53t-21 -54
t-52 -22q-32 0 -53.5 22t-21.5 54zM776 426h148v-262q0 -78 -43 -121t-127 -43h-475q-120 0 -189.5 58.5t-69.5 151.5q0 77 32 162l127 -33q-16 -69 -16 -98q0 -52 38 -82t102 -30h397q42 0 59 19t17 65v213z" />
    <glyph glyph-name="uni062C" unicode="&#x62c;" horiz-adv-x="595" 
d="M280 437q274 0 274 -286q0 -71 -15 -151h-292q-34 0 -54 -18t-20 -49t22.5 -49t52.5 -18h1l6 -126h-2q-101 0 -166.5 50.5t-65.5 136.5q0 95 59.5 148.5t162.5 53.5h173v3q0 93 -34 132t-110 39q-46 0 -96 -11l-32 122q58 23 136 23zM363 -33q29 0 47 -19.5t18 -49.5
q0 -29 -17.5 -47t-47.5 -18t-48.5 18t-18.5 47q0 30 18.5 49.5t48.5 19.5z" />
    <glyph glyph-name="uni062D" unicode="&#x62d;" horiz-adv-x="605" 
d="M247 0q-35 0 -56.5 -17t-21.5 -46q0 -63 97 -63q39 0 73 7l26 -123q-57 -18 -111 -18q-103 0 -168 53t-65 148q0 85 59.5 136.5t158.5 51.5h177v3q0 93 -34 132t-110 39q-46 0 -96 -11l-32 122q58 23 136 23q145 0 214.5 -76t69.5 -210q0 -71 -15 -151h-302z" />
    <glyph glyph-name="uni062E" unicode="&#x62e;" horiz-adv-x="605" 
d="M280 553q-33 0 -53.5 21.5t-20.5 53.5q0 33 20.5 53.5t53.5 20.5t52.5 -20.5t19.5 -53.5q0 -32 -19.5 -53.5t-52.5 -21.5zM247 0q-35 0 -56.5 -17t-21.5 -46q0 -63 97 -63q39 0 73 7l26 -123q-57 -18 -111 -18q-103 0 -168 53t-65 148q0 85 59.5 136.5t158.5 51.5h177v3
q0 93 -34 132t-110 39q-46 0 -96 -11l-32 122q58 23 136 23q145 0 214.5 -76t69.5 -210q0 -71 -15 -151h-302z" />
    <glyph glyph-name="uni062F" unicode="&#x62f;" horiz-adv-x="498" 
d="M233 460q134 -87 179.5 -178.5t45.5 -214.5v-67h-428v129h280q-5 62 -60 122t-107 90z" />
    <glyph glyph-name="uni0630" unicode="&#x630;" horiz-adv-x="498" 
d="M182 523q-33 0 -53.5 21.5t-20.5 53.5q0 33 20.5 53.5t53.5 20.5t52.5 -20.5t19.5 -53.5q0 -32 -19.5 -53.5t-52.5 -21.5zM233 460q134 -87 179.5 -178.5t45.5 -214.5v-67h-428v129h280q-5 62 -60 122t-107 90z" />
    <glyph glyph-name="uni0631" unicode="&#x631;" horiz-adv-x="316" 
d="M13 -191l-18 125q64 7 89.5 28t25.5 70v394h148v-364q0 -128 -58.5 -188t-186.5 -65z" />
    <glyph glyph-name="uni0632" unicode="&#x632;" horiz-adv-x="316" 
d="M183 542q-33 0 -53.5 21.5t-20.5 53.5q0 33 20.5 53.5t53.5 20.5t52.5 -20.5t19.5 -53.5q0 -32 -19.5 -53.5t-52.5 -21.5zM13 -191l-18 125q64 7 89.5 28t25.5 70v394h148v-364q0 -128 -58.5 -188t-186.5 -65z" />
    <glyph glyph-name="uni0633" unicode="&#x633;" horiz-adv-x="1179" 
d="M290 -183q-71 0 -126.5 22.5t-88 60t-49 80.5t-16.5 88q0 85 46 190l129 -46q-27 -72 -27 -124q0 -64 36 -100.5t99 -36.5q66 0 100 35t34 121v246h148v-168q0 -56 65 -56q42 0 54 18.5t12 61.5v144h148v-168q0 -56 65 -56q42 0 54 18.5t12 61.5v217h148v-253
q0 -79 -53.5 -126t-138.5 -47q-79 0 -134 38q-52 -38 -142 -38q-57 0 -94 19q-15 -102 -90 -152t-191 -50z" />
    <glyph glyph-name="uni0634" unicode="&#x634;" horiz-adv-x="1179" 
d="M290 -183q-71 0 -126.5 22.5t-88 60t-49 80.5t-16.5 88q0 85 46 190l129 -46q-27 -72 -27 -124q0 -64 36 -100.5t99 -36.5q66 0 100 35t34 121v246h148v-168q0 -56 65 -56q42 0 54 18.5t12 61.5v144h148v-168q0 -56 65 -56q42 0 54 18.5t12 61.5v217h148v-253
q0 -79 -53.5 -126t-138.5 -47q-79 0 -134 38q-52 -38 -142 -38q-57 0 -94 19q-15 -102 -90 -152t-191 -50zM689 457q-32 0 -53.5 22t-21.5 54t21.5 53t53.5 21t52.5 -21t20.5 -53q0 -33 -20.5 -54.5t-52.5 -21.5zM794 533q0 32 21.5 53t53.5 21t52.5 -21t20.5 -53t-21 -54
t-52 -22q-32 0 -53.5 22t-21.5 54zM709 685q0 32 21 54t52 22q33 0 53.5 -22t20.5 -54t-20.5 -53.5t-53.5 -21.5q-31 0 -52 22t-21 53z" />
    <glyph glyph-name="uni0635" unicode="&#x635;" horiz-adv-x="1329" 
d="M1045 437q116 0 179.5 -69t63.5 -193q0 -83 -26 -175h-580q-71 0 -109 27q-13 -106 -88.5 -158t-194.5 -52q-71 0 -126.5 22.5t-88 60t-49 80.5t-16.5 88q0 85 46 190l129 -46q-27 -72 -27 -124q0 -64 36 -100.5t99 -36.5q66 0 100 35t34 121v246h148v-157
q0 -27 20.5 -46t55.5 -21q37 76 82.5 134t86.5 90t85.5 52t76.5 26t63 6zM1140 129q2 24 2 33q0 66 -30 103.5t-87 37.5t-112.5 -47t-95.5 -127h323z" />
    <glyph glyph-name="uni0636" unicode="&#x636;" horiz-adv-x="1329" 
d="M960 553q-33 0 -53.5 21.5t-20.5 53.5q0 33 20.5 53.5t53.5 20.5t52.5 -20.5t19.5 -53.5q0 -32 -19.5 -53.5t-52.5 -21.5zM1045 437q116 0 179.5 -69t63.5 -193q0 -83 -26 -175h-580q-71 0 -109 27q-13 -106 -88.5 -158t-194.5 -52q-71 0 -126.5 22.5t-88 60t-49 80.5
t-16.5 88q0 85 46 190l129 -46q-27 -72 -27 -124q0 -64 36 -100.5t99 -36.5q66 0 100 35t34 121v246h148v-157q0 -27 20.5 -46t55.5 -21q37 76 82.5 134t86.5 90t85.5 52t76.5 26t63 6zM1140 129q2 24 2 33q0 66 -30 103.5t-87 37.5t-112.5 -47t-95.5 -127h323z" />
    <glyph glyph-name="uni0637" unicode="&#x637;" horiz-adv-x="826" 
d="M20 0v129h85v627h148v-470q60 77 136.5 114t148.5 37q120 0 183.5 -68.5t63.5 -192.5q0 -82 -26 -176h-739zM253 129h385q2 24 2 33q0 66 -31 103.5t-91 37.5q-62 0 -132.5 -47t-132.5 -127z" />
    <glyph glyph-name="uni0638" unicode="&#x638;" horiz-adv-x="826" 
d="M20 0v129h85v627h148v-470q60 77 136.5 114t148.5 37q120 0 183.5 -68.5t63.5 -192.5q0 -82 -26 -176h-739zM253 129h385q2 24 2 33q0 66 -31 103.5t-91 37.5q-62 0 -132.5 -47t-132.5 -127zM505 553q-33 0 -53.5 21.5t-20.5 53.5q0 33 20.5 53.5t53.5 20.5t52.5 -20.5
t19.5 -53.5q0 -32 -19.5 -53.5t-52.5 -21.5z" />
    <glyph glyph-name="uni0639" unicode="&#x639;" horiz-adv-x="533" 
d="M261 0q-88 0 -88 -65q0 -61 89 -61q45 0 75 5l26 -123q-48 -16 -108 -16q-108 0 -171 48.5t-63 141.5q0 66 31 113t88 69q-31 54 -31 119q0 93 64.5 149.5t180.5 56.5q65 0 129 -16l-27 -128q-52 10 -86 10q-113 0 -113 -88q0 -43 29 -86h222v-129h-247z" />
    <glyph glyph-name="uni063A" unicode="&#x63a;" horiz-adv-x="533" 
d="M354 553q-33 0 -53.5 21.5t-20.5 53.5q0 33 20.5 53.5t53.5 20.5t52.5 -20.5t19.5 -53.5q0 -32 -19.5 -53.5t-52.5 -21.5zM261 0q-88 0 -88 -65q0 -61 89 -61q45 0 75 5l26 -123q-48 -16 -108 -16q-108 0 -171 48.5t-63 141.5q0 66 31 113t88 69q-31 54 -31 119
q0 93 64.5 149.5t180.5 56.5q65 0 129 -16l-27 -128q-52 10 -86 10q-113 0 -113 -88q0 -43 29 -86h222v-129h-247z" />
    <glyph glyph-name="uni0640" unicode="&#x640;" horiz-adv-x="52" 
d="M0 0v129h52q20 0 20 -69q0 -60 -20 -60h-52z" />
    <glyph glyph-name="uni0641" unicode="&#x641;" horiz-adv-x="1096" 
d="M289 0q-120 0 -189.5 58.5t-69.5 151.5q0 77 32 162l127 -33q-16 -69 -16 -98q0 -52 38 -82t102 -30h266q-13 37 -13 77q0 101 67 166t182 65q53 0 95 -15.5t67.5 -39.5t42.5 -54.5t23.5 -59t6.5 -55.5q0 -105 -40 -213h-721zM714 209q0 -39 16 -80h164q7 35 7 68
q0 46 -21.5 76t-67.5 30q-47 0 -72.5 -25.5t-25.5 -68.5zM741 628q0 33 20.5 53.5t53.5 20.5t52.5 -20.5t19.5 -53.5q0 -32 -19.5 -53.5t-52.5 -21.5t-53.5 21.5t-20.5 53.5z" />
    <glyph glyph-name="uni0642" unicode="&#x642;" horiz-adv-x="806" 
d="M446 553q-32 0 -53.5 21.5t-21.5 53.5t21.5 53t53.5 21t52.5 -21t20.5 -53t-20.5 -53.5t-52.5 -21.5zM626 553q-32 0 -53.5 21.5t-21.5 53.5t21.5 53t53.5 21t52.5 -21t20.5 -53t-21 -53.5t-52 -21.5zM390 -183q-196 0 -288 66t-92 185q0 64 27 141l131 -36
q-10 -43 -10 -81q0 -31 9 -54t33.5 -44t74 -32t122.5 -11q102 0 154.5 21.5t59.5 55.5q-41 -9 -90 -9q-104 0 -164 52.5t-60 146.5q0 90 66 154.5t174 64.5q110 0 166.5 -65.5t56.5 -157.5v-118q0 -135 -87.5 -207t-282.5 -72zM545 154q40 0 67 5v25q0 119 -84 119
q-36 0 -59.5 -21t-23.5 -56q0 -72 100 -72z" />
    <glyph glyph-name="uni0643" unicode="&#x643;" horiz-adv-x="869" 
d="M20 210q0 77 32 162l127 -33q-16 -69 -16 -98q0 -52 38 -82t102 -30h273q51 0 69 23t18 83v521h148v-539q0 -123 -55.5 -170t-179.5 -47h-297q-120 0 -189.5 58.5t-69.5 151.5zM522 320h-206v74h38q-10 19 -10 41q0 39 30.5 66.5t83.5 27.5q25 0 53 -8l-10 -73
q-20 4 -32 4q-36 0 -36 -28q0 -17 11 -30h78v-74z" />
    <glyph glyph-name="uni0644" unicode="&#x644;" horiz-adv-x="633" 
d="M290 -183q-71 0 -126.5 22.5t-88 59.5t-49 80.5t-16.5 88.5q0 86 47 190l128 -46q-27 -72 -27 -124q0 -64 36 -100.5t99 -36.5q67 0 100.5 35.5t33.5 120.5v649h148v-686q0 -128 -77 -190.5t-208 -62.5z" />
    <glyph glyph-name="uni0645" unicode="&#x645;" horiz-adv-x="679" 
d="M410 437q109 0 169 -63t60 -148q0 -41 -11.5 -77t-38 -71.5t-81 -56.5t-131.5 -21h-134q-40 0 -59 -16t-19 -58v-186h-144v212q0 77 43 122t121 53q-23 42 -23 99q0 93 69.5 152t178.5 59zM397 129q94 0 94 90q0 37 -24.5 60.5t-63.5 23.5q-36 0 -64.5 -24t-28.5 -73
q0 -39 22 -77h65z" />
    <glyph glyph-name="uni0646" unicode="&#x646;" horiz-adv-x="643" 
d="M311 409q-33 0 -53.5 21.5t-20.5 53.5q0 33 20.5 53.5t53.5 20.5t52.5 -20.5t19.5 -53.5q0 -32 -19.5 -53.5t-52.5 -21.5zM300 -183q-71 0 -126.5 22.5t-88 60t-49 80.5t-16.5 88q0 85 46 190l129 -46q-27 -72 -27 -124q0 -64 36 -100.5t99 -36.5q66 0 100 35t34 121v246
h148v-283q0 -128 -77 -190.5t-208 -62.5z" />
    <glyph glyph-name="uni0647" unicode="&#x647;" horiz-adv-x="526" 
d="M255 -5q-106 0 -170 54t-64 151q0 108 64.5 172.5t169.5 64.5q104 0 167.5 -65.5t63.5 -171.5q0 -97 -61 -151t-170 -54zM255 129q35 0 57 22t22 60q0 43 -22 67.5t-57 24.5q-37 0 -59.5 -24t-22.5 -66q0 -41 21 -62.5t61 -21.5z" />
    <glyph glyph-name="uni0648" unicode="&#x648;" horiz-adv-x="549" 
d="M144 -191l-8 133q32 -3 60 -3q76 0 117.5 22t40.5 67q-40 -9 -89 -9q-97 0 -156 53t-59 146q0 91 65 155t170 64q110 0 164 -60.5t54 -152.5v-200q0 -34 -6 -61.5t-24.5 -58t-49 -51t-84 -34t-125.5 -13.5q-32 0 -70 3zM289 154q29 0 66 5v40q0 104 -76 104
q-35 0 -58 -22t-23 -56q0 -71 91 -71z" />
    <glyph glyph-name="uni0649" unicode="&#x649;" horiz-adv-x="773" 
d="M378 -194q-170 0 -269 64.5t-99 197.5q0 60 27 141l136 -34q-11 -49 -11 -77q0 -148 216 -148q98 0 150 17t52 44q0 15 -37.5 37t-82 45t-82 67.5t-37.5 98.5q0 74 64 126t177 52q58 0 118 -15l-25 -140q-44 11 -86 11q-46 0 -70 -12t-24 -30q0 -20 37 -42.5t81.5 -42
t81.5 -58t37 -87.5q0 -28 -9.5 -55.5t-34 -57t-63 -51.5t-102.5 -36.5t-145 -14.5z" />
    <glyph glyph-name="uni064A" unicode="&#x64a;" horiz-adv-x="773" 
d="M378 -194q-170 0 -269 64.5t-99 197.5q0 60 27 141l136 -34q-11 -49 -11 -77q0 -148 216 -148q98 0 150 17t52 44q0 15 -37.5 37t-82 45t-82 67.5t-37.5 98.5q0 74 64 126t177 52q58 0 118 -15l-25 -140q-44 11 -86 11q-46 0 -70 -12t-24 -30q0 -20 37 -42.5t81.5 -42
t81.5 -58t37 -87.5q0 -28 -9.5 -55.5t-34 -57t-63 -51.5t-102.5 -36.5t-145 -14.5zM285 -420q-32 0 -53.5 21t-21.5 52q0 32 21.5 54t53.5 22t52.5 -21.5t20.5 -54.5q0 -32 -20.5 -52.5t-52.5 -20.5zM465 -420q-32 0 -53.5 21t-21.5 52q0 32 21.5 54t53.5 22q31 0 52 -22
t21 -54q0 -31 -21 -52t-52 -21z" />
    <glyph glyph-name="uni064B" unicode="&#x64b;" 
d="M-116 652l-3 1l11 64l224 34l3 -1l-11 -64zM-116 534l-3 1l11 64l224 34l3 -1l-11 -64z" />
    <glyph glyph-name="uni064C" unicode="&#x64c;" 
d="M72 786q35 0 56 -27.5t21 -72.5q0 -73 -34 -109.5t-81 -36.5q-24 0 -43 9t-29 20t-20.5 20t-19.5 9q-13 0 -31 -23l-40 32q15 24 35.5 40t38.5 16q26 0 59 -29.5t53 -29.5q27 0 40 23h-5q-35 0 -58 16.5t-23 51.5q0 36 23 63.5t58 27.5zM74 679q12 0 17 1v3q0 39 -23 39
q-9 0 -15 -7.5t-6 -16.5q0 -19 27 -19z" />
    <glyph glyph-name="uni064D" unicode="&#x64d;" 
d="M-117 -181l-3 1l11 64l224 34l3 -1l-11 -64zM-117 -285l-3 1l11 64l224 34l3 -1l-11 -64z" />
    <glyph glyph-name="uni064E" unicode="&#x64e;" 
d="M-116 534l-3 1l11 64l224 34l3 -1l-11 -64z" />
    <glyph glyph-name="uni064F" unicode="&#x64f;" 
d="M15 786q35 0 56 -27.5t21 -72.5q0 -73 -34 -109.5t-82 -36.5q-36 0 -68 18l25 56q23 -10 43 -10q30 0 45 23h-1q-87 0 -87 68q0 36 23 63.5t59 27.5zM22 679h12q0 43 -24 43q-9 0 -14.5 -7t-5.5 -15q0 -21 32 -21z" />
    <glyph glyph-name="uni0650" unicode="&#x650;" 
d="M-116 -181l-3 1l11 64l224 34l3 -1l-11 -64z" />
    <glyph glyph-name="uni0651" unicode="&#x651;" 
d="M106 690q18 -37 18 -71q0 -33 -17.5 -52.5t-45.5 -19.5t-55 19q-18 -26 -57 -26q-34 0 -53.5 19t-19.5 53q0 27 11 56l41 -10q-3 -14 -3 -23q0 -31 26 -31q23 0 23 31q0 9 -1 14l43 8q4 -24 4 -36v-3q11 -6 25 -6q21 0 21 26q0 16 -7 34z" />
    <glyph glyph-name="uni0652" unicode="&#x652;" 
d="M1 540q-41 0 -63 22.5t-22 59.5t23 65.5t62 28.5q38 0 60.5 -28.5t22.5 -65.5t-21.5 -59.5t-61.5 -22.5zM1 604q22 0 22 22q0 10 -6 19t-16 9q-24 0 -24 -28q0 -22 24 -22z" />
    <glyph glyph-name="uni0653" unicode="&#x653;" 
d="M77 534q-29 0 -87 13.5t-71 13.5q-23 0 -47 -17l-42 58q42 42 90 42q19 0 74.5 -14.5t78.5 -14.5q24 0 50 23l47 -51q-41 -53 -93 -53z" />
    <glyph glyph-name="uni0654" unicode="&#x654;" 
d="M-89 599h32q-11 20 -11 41q0 36 25.5 58t69.5 22q28 0 53 -7l-12 -64q-16 4 -31 4q-35 0 -35 -29q0 -11 7 -25h80v-67h-178v67z" />
    <glyph glyph-name="uni0655" unicode="&#x655;" 
d="M-89 -193h33q-12 19 -12 42q0 36 25.5 58t69.5 22q28 0 53 -7l-12 -64q-16 4 -31 4q-35 0 -35 -29q0 -13 8 -26h79v-66h-178v66z" />
    <glyph glyph-name="uni0656" unicode="&#x656;" 
d="M-34 -288v186h68v-169l-62 -17h-6z" />
    <glyph glyph-name="uni0658" unicode="&#x658;" 
d="M-77 692l52 -18q-11 -30 -11 -46q0 -35 38 -35q34 0 34 41v55h59v-55q0 -46 -25 -73t-68 -27q-44 0 -70.5 22.5t-26.5 61.5q0 30 18 74z" />
    <glyph glyph-name="uni0660" unicode="&#x660;" horiz-adv-x="540" 
d="M270 170l-124 124l124 119l123 -120z" />
    <glyph glyph-name="uni0661" unicode="&#x661;" horiz-adv-x="540" 
d="M197 0v653h148v-653h-148z" />
    <glyph glyph-name="uni0662" unicode="&#x662;" horiz-adv-x="540" 
d="M53 0v653h148v-117q42 -17 83 -17q42 0 57 28t10 100l148 8q11 -146 -35 -208.5t-160 -62.5q-61 0 -103 14v-398h-148z" />
    <glyph glyph-name="uni0663" unicode="&#x663;" horiz-adv-x="540" 
d="M25 653h148v-117q6 -1 19 -1q27 0 33.5 21.5t-0.5 89.5l117 9q6 -71 0 -120h6q38 0 47 20.5t2 89.5l129 10q9 -128 -27 -188t-124 -60q-48 0 -86 19q-28 -19 -73 -19q-27 0 -43 5v-412h-148v653z" />
    <glyph glyph-name="uni0664" unicode="&#x664;" horiz-adv-x="540" 
d="M461 133l6 -136q-63 -9 -141 -9q-135 0 -201.5 37t-66.5 127q0 116 132 183q-104 40 -104 132q0 188 306 188q20 0 45 -1v-135q-7 0 -19 0.5t-18 0.5q-162 0 -162 -60q0 -53 109 -53q38 0 72 5l-1 -138q-107 -9 -157.5 -35.5t-50.5 -60.5q0 -25 31 -37.5t111 -12.5
q52 0 109 5z" />
    <glyph glyph-name="uni0665" unicode="&#x665;" horiz-adv-x="540" 
d="M270 -8q-121 0 -182.5 70t-61.5 223q0 176 64.5 272.5t179.5 96.5q116 0 180 -96.5t64 -272.5q0 -153 -61.5 -223t-182.5 -70zM270 130q50 0 73 40t23 124q0 95 -23.5 158.5t-72.5 63.5t-72.5 -63.5t-23.5 -158.5q0 -84 23 -124t73 -40z" />
    <glyph glyph-name="uni0666" unicode="&#x666;" horiz-adv-x="540" 
d="M318 0v516h-271v137h419v-653h-148z" />
    <glyph glyph-name="uni0667" unicode="&#x667;" horiz-adv-x="540" 
d="M388 665l149 -33l-174 -632h-186l-174 632l149 33l118 -479z" />
    <glyph glyph-name="uni0668" unicode="&#x668;" horiz-adv-x="540" 
d="M537 11l-149 -33l-118 479l-118 -479l-149 33l174 632h186z" />
    <glyph glyph-name="uni0669" unicode="&#x669;" horiz-adv-x="540" 
d="M23 438q0 101 60.5 158t173.5 57h219v-652h-148v243q-31 -3 -59 -3q-126 0 -186 52t-60 145zM175 446q0 -69 105 -69q21 0 48 3v136h-50q-103 0 -103 -70z" />
    <glyph glyph-name="uni066A" unicode="&#x66a;" horiz-adv-x="540" 
d="M189 -17l-108 39l283 650l108 -40zM120 461l-99 100l99 100l102 -100zM421 0l-100 99l100 101l101 -101z" />
    <glyph glyph-name="uni066B" unicode="&#x66b;" horiz-adv-x="278" 
d="M229 74l-90 -281h-127l74 281h143z" />
    <glyph glyph-name="uni066C" unicode="&#x66c;" horiz-adv-x="251" 
d="M202 129l-64 -203h-126l52 203h138z" />
    <glyph glyph-name="uni066D" unicode="&#x66d;" horiz-adv-x="842" 
d="M203 -98l-24 20l113 266l-251 150l8 37l299 -37l63 288h30l59 -288l299 37l11 -37l-261 -149l122 -267l-27 -20l-218 198z" />
    <glyph glyph-name="uni066E" unicode="&#x66e;" horiz-adv-x="970" 
d="M776 426h148v-262q0 -78 -43 -121t-127 -43h-475q-120 0 -189.5 58.5t-69.5 151.5q0 77 32 162l127 -33q-16 -69 -16 -98q0 -52 38 -82t102 -30h397q42 0 59 19t17 65v213z" />
    <glyph glyph-name="uni066F" unicode="&#x66f;" horiz-adv-x="806" 
d="M390 -183q-196 0 -288 66t-92 185q0 64 27 141l131 -36q-10 -43 -10 -81q0 -31 9 -54t33.5 -44t74 -32t122.5 -11q102 0 154.5 21.5t59.5 55.5q-41 -9 -90 -9q-104 0 -164 52.5t-60 146.5q0 90 66 154.5t174 64.5q110 0 166.5 -65.5t56.5 -157.5v-118q0 -135 -87.5 -207
t-282.5 -72zM545 154q40 0 67 5v25q0 119 -84 119q-36 0 -59.5 -21t-23.5 -56q0 -72 100 -72z" />
    <glyph glyph-name="uni0670" unicode="&#x670;" 
d="M-34 545v186h68v-169l-62 -17h-6z" />
    <glyph glyph-name="uni0671" unicode="&#x671;" horiz-adv-x="264" 
d="M206 0h-148v756h148v-756zM252 802h-254v65h40v100h61v-40q36 43 83 43q39 0 62.5 -25t23.5 -68q0 -36 -16 -75zM95 867h104q2 6 2 8q0 12 -10 20.5t-27 8.5q-37 0 -69 -37z" />
    <glyph glyph-name="uni0679" unicode="&#x679;" horiz-adv-x="970" 
d="M279 0q-120 0 -189.5 58.5t-69.5 151.5q0 77 32 162l127 -33q-16 -69 -16 -98q0 -52 38 -82t102 -30h397q42 0 59 19t17 65v213h148v-262q0 -78 -43 -121t-127 -43h-475zM604 433h-288v73h45v172h68v-95q35 48 89 48q47 0 75.5 -30.5t28.5 -82.5q0 -37 -18 -85zM429 506
h117q1 4 1 12q0 19 -10.5 29.5t-27.5 10.5q-45 0 -80 -52z" />
    <glyph glyph-name="uni067E" unicode="&#x67e;" horiz-adv-x="970" 
d="M776 426h148v-262q0 -78 -43 -121t-127 -43h-475q-120 0 -189.5 58.5t-69.5 151.5q0 77 32 162l127 -33q-16 -69 -16 -98q0 -52 38 -82t102 -30h397q42 0 59 19t17 65v213zM455 -153q0 -32 -20.5 -53t-52.5 -21t-53.5 21t-21.5 53t21.5 53.5t53.5 21.5t52.5 -21.5
t20.5 -53.5zM562 -78q31 0 52 -21.5t21 -53.5t-20.5 -53t-52.5 -21t-53.5 21t-21.5 53t21.5 53.5t53.5 21.5zM474 -228q33 0 53 -21.5t20 -54.5q0 -32 -20 -52.5t-53 -20.5q-32 0 -53.5 21t-21.5 52q0 33 21.5 54.5t53.5 21.5z" />
    <glyph glyph-name="uni0686" unicode="&#x686;" horiz-adv-x="595" 
d="M280 437q274 0 274 -286q0 -71 -15 -151h-292q-34 0 -54 -18t-20 -49t22.5 -49t52.5 -18h1l6 -126h-2q-101 0 -166.5 50.5t-65.5 136.5q0 95 59.5 148.5t162.5 53.5h173v3q0 93 -34 132t-110 39q-46 0 -96 -11l-32 122q58 23 136 23zM382 -81q0 -23 -14.5 -37.5
t-36.5 -14.5q-23 0 -38 15t-15 37t15.5 37t37.5 15t36.5 -15t14.5 -37zM457 -29q22 0 36.5 -15t14.5 -37t-14.5 -37t-36.5 -15q-23 0 -38 15t-15 37t15.5 37t37.5 15zM395 -134q23 0 37 -15t14 -38q0 -22 -14 -36.5t-37 -14.5q-22 0 -37 14.5t-15 36.5q0 23 15 38t37 15z
" />
    <glyph glyph-name="uni0688" unicode="&#x688;" horiz-adv-x="498" 
d="M30 129h280q-5 62 -60 122t-107 90l90 119q134 -87 179.5 -178.5t45.5 -214.5v-67h-428v129zM14 527v73h45v172h68v-95q35 48 89 48q47 0 75.5 -30.5t28.5 -82.5q0 -37 -18 -85h-288zM127 600h117q1 4 1 12q0 19 -10.5 29.5t-27.5 10.5q-45 0 -80 -52z" />
    <glyph glyph-name="uni0691" unicode="&#x691;" horiz-adv-x="316" 
d="M13 -191l-18 125q64 7 89.5 28t25.5 70v394h148v-364q0 -128 -58.5 -188t-186.5 -65zM15 546v73h45v172h68v-95q35 48 89 48q47 0 75.5 -30.5t28.5 -82.5q0 -37 -18 -85h-288zM208 671q-45 0 -80 -52h117q1 4 1 12q0 19 -10.5 29.5t-27.5 10.5z" />
    <glyph glyph-name="uni0698" unicode="&#x698;" horiz-adv-x="316" 
d="M185 683q-31 0 -52 22t-21 53q0 32 21 54t52 22q33 0 53.5 -22t20.5 -54t-20.5 -53.5t-53.5 -21.5zM92 530q-32 0 -53.5 22t-21.5 54t21.5 53t53.5 21t52.5 -21t20.5 -53q0 -33 -20.5 -54.5t-52.5 -21.5zM272 530q-32 0 -53.5 22t-21.5 54t21.5 53t53.5 21t52.5 -21
t20.5 -53t-21 -54t-52 -22zM13 -191l-18 125q64 7 89.5 28t25.5 70v394h148v-364q0 -128 -58.5 -188t-186.5 -65z" />
    <glyph glyph-name="uni06A1" unicode="&#x6a1;" horiz-adv-x="1096" 
d="M30 210q0 77 32 162l127 -33q-16 -69 -16 -98q0 -52 38 -82t102 -30h266q-13 37 -13 77q0 101 67 166t182 65q53 0 95 -15.5t67.5 -39.5t42.5 -54.5t23.5 -59t6.5 -55.5q0 -105 -40 -213h-721q-120 0 -189.5 58.5t-69.5 151.5zM714 209q0 -39 16 -80h164q7 35 7 68
q0 46 -21.5 76t-67.5 30q-47 0 -72.5 -25.5t-25.5 -68.5z" />
    <glyph glyph-name="uni06A4" unicode="&#x6a4;" horiz-adv-x="1096" 
d="M289 0q-120 0 -189.5 58.5t-69.5 151.5q0 77 32 162l127 -33q-16 -69 -16 -98q0 -52 38 -82t102 -30h266q-13 37 -13 77q0 101 67 166t182 65q53 0 95 -15.5t67.5 -39.5t42.5 -54.5t23.5 -59t6.5 -55.5q0 -105 -40 -213h-721zM812 303q-47 0 -72.5 -25.5t-25.5 -68.5
q0 -39 16 -80h164q7 35 7 68q0 46 -21.5 76t-67.5 30zM724 541q-32 0 -53.5 22t-21.5 54t21.5 53t53.5 21t52.5 -21t20.5 -53q0 -33 -20.5 -54.5t-52.5 -21.5zM904 541q-32 0 -53.5 22t-21.5 54t21.5 53t53.5 21t52.5 -21t20.5 -53t-21 -54t-52 -22zM744 769q0 32 21 54
t52 22q33 0 53.5 -22t20.5 -54t-20.5 -53.5t-53.5 -21.5q-31 0 -52 22t-21 53z" />
    <glyph glyph-name="uni06A9" unicode="&#x6a9;" horiz-adv-x="870" 
d="M565 437q70 -20 119.5 -48.5t77.5 -59t43.5 -72t20 -77.5t4.5 -87v-93h-551q-120 0 -189.5 58.5t-69.5 151.5q0 77 32 162l127 -33q-16 -69 -16 -98q0 -52 38 -82t102 -30h379q-1 58 -21 95.5t-79.5 69t-165.5 51.5v139l283 273l96 -98z" />
    <glyph glyph-name="uni06AF" unicode="&#x6af;" horiz-adv-x="870" 
d="M660 797l-261 -250l-69 69l262 250zM565 437q70 -20 119.5 -48.5t77.5 -59t43.5 -72t20 -77.5t4.5 -87v-93h-551q-120 0 -189.5 58.5t-69.5 151.5q0 77 32 162l127 -33q-16 -69 -16 -98q0 -52 38 -82t102 -30h379q-1 58 -21 95.5t-79.5 69t-165.5 51.5v139l283 273
l96 -98z" />
    <glyph glyph-name="uni06BA" unicode="&#x6ba;" horiz-adv-x="643" 
d="M300 -183q-71 0 -126.5 22.5t-88 60t-49 80.5t-16.5 88q0 85 46 190l129 -46q-27 -72 -27 -124q0 -64 36 -100.5t99 -36.5q66 0 100 35t34 121v246h148v-283q0 -128 -77 -190.5t-208 -62.5z" />
    <glyph glyph-name="uni06BE" unicode="&#x6be;" horiz-adv-x="780" 
d="M184 461q70 -2 123.5 -6t115 -13.5t106.5 -24t88.5 -39.5t71 -59t44 -82.5t16.5 -108.5q0 -56 -15 -128h-257q-68 0 -116 20q-52 -20 -138 -20q-115 0 -193 29l30 126q60 -21 144 -26q-23 43 -23 95q0 74 43 120q-10 0 -29 1t-28 1zM363 131q64 39 64 107
q0 35 -16.5 55.5t-44.5 20.5q-29 0 -46 -20.5t-17 -55.5q0 -66 60 -107zM627 143q0 91 -88 139q10 -26 10 -55q0 -53 -24 -98h101q1 5 1 14z" />
    <glyph glyph-name="uni06C1" unicode="&#x6c1;" horiz-adv-x="526" 
d="M255 -5q-106 0 -170 54t-64 151q0 108 64.5 172.5t169.5 64.5q104 0 167.5 -65.5t63.5 -171.5q0 -97 -61 -151t-170 -54zM255 129q35 0 57 22t22 60q0 43 -22 67.5t-57 24.5q-37 0 -59.5 -24t-22.5 -66q0 -41 21 -62.5t61 -21.5z" />
    <glyph glyph-name="uni06C2" unicode="&#x6c2;" horiz-adv-x="526" 
d="M21 200q0 108 64.5 172.5t169.5 64.5q104 0 167.5 -65.5t63.5 -171.5q0 -97 -61 -151t-170 -54q-106 0 -170 54t-64 151zM137 635h42q-15 25 -15 53q0 45 32.5 73t87.5 28q36 0 67 -7l-14 -83q-18 5 -40 5q-45 0 -45 -36q0 -16 10 -33h101v-85h-226v85zM173 213
q0 -41 21 -62.5t61 -21.5q35 0 57 22t22 60q0 43 -22 67.5t-57 24.5q-37 0 -59.5 -24t-22.5 -66z" />
    <glyph glyph-name="uni06C3" unicode="&#x6c3;" horiz-adv-x="526" 
d="M164 553q-32 0 -53.5 21.5t-21.5 53.5t21.5 53t53.5 21t52.5 -21t20.5 -53t-20.5 -53.5t-52.5 -21.5zM344 553q-32 0 -53.5 21.5t-21.5 53.5t21.5 53t53.5 21t52.5 -21t20.5 -53t-21 -53.5t-52 -21.5zM255 -5q-106 0 -170 54t-64 151q0 108 64.5 172.5t169.5 64.5
q104 0 167.5 -65.5t63.5 -171.5q0 -97 -61 -151t-170 -54zM255 129q35 0 57 22t22 60q0 43 -22 67.5t-57 24.5q-37 0 -59.5 -24t-22.5 -66q0 -41 21 -62.5t61 -21.5z" />
    <glyph glyph-name="uni06CC" unicode="&#x6cc;" horiz-adv-x="773" 
d="M378 -194q-170 0 -269 64.5t-99 197.5q0 60 27 141l136 -34q-11 -49 -11 -77q0 -148 216 -148q98 0 150 17t52 44q0 15 -37.5 37t-82 45t-82 67.5t-37.5 98.5q0 74 64 126t177 52q58 0 118 -15l-25 -140q-44 11 -86 11q-46 0 -70 -12t-24 -30q0 -20 37 -42.5t81.5 -42
t81.5 -58t37 -87.5q0 -28 -9.5 -55.5t-34 -57t-63 -51.5t-102.5 -36.5t-145 -14.5z" />
    <glyph glyph-name="uni06D2" unicode="&#x6d2;" horiz-adv-x="778" 
d="M374 -13q-131 0 -207 17.5t-106.5 49.5t-30.5 86q0 42 20.5 75t49 52.5t57.5 36t49.5 35t20.5 40.5v38h137v-47q0 -50 -30.5 -87.5t-67 -55t-67 -36t-30.5 -34.5q0 -14 14 -21.5t65 -12.5t149 -5q184 0 370 27l5 -128q-194 -30 -398 -30z" />
    <glyph glyph-name="uni06D3" unicode="&#x6d3;" horiz-adv-x="778" 
d="M374 -13q-131 0 -207 17.5t-106.5 49.5t-30.5 86q0 42 20.5 75t49 52.5t57.5 36t49.5 35t20.5 40.5v38h137v-47q0 -50 -30.5 -87.5t-67 -55t-67 -36t-30.5 -34.5q0 -14 14 -21.5t65 -12.5t149 -5q184 0 370 27l5 -128q-194 -30 -398 -30zM179 615h42q-15 25 -15 53
q0 45 32.5 73t87.5 28q36 0 67 -7l-14 -83q-18 5 -40 5q-45 0 -45 -36q0 -16 10 -33h101v-85h-226v85z" />
    <glyph glyph-name="uni06D4" unicode="&#x6d4;" horiz-adv-x="374" 
d="M82 163q37 -34 107 -34h155v-129h-155q-110 0 -159 63z" />
    <glyph glyph-name="uni06D5" unicode="&#x6d5;" horiz-adv-x="526" 
d="M255 -5q-106 0 -170 54t-64 151q0 108 64.5 172.5t169.5 64.5q104 0 167.5 -65.5t63.5 -171.5q0 -97 -61 -151t-170 -54zM255 129q35 0 57 22t22 60q0 43 -22 67.5t-57 24.5q-37 0 -59.5 -24t-22.5 -66q0 -41 21 -62.5t61 -21.5z" />
    <glyph glyph-name="uni06F0" unicode="&#x6f0;" horiz-adv-x="540" 
d="M270 170l-124 124l124 119l123 -120z" />
    <glyph glyph-name="uni06F1" unicode="&#x6f1;" horiz-adv-x="540" 
d="M197 0v653h148v-653h-148z" />
    <glyph glyph-name="uni06F2" unicode="&#x6f2;" horiz-adv-x="540" 
d="M53 0v653h148v-117q42 -17 83 -17q42 0 57 28t10 100l148 8q11 -146 -35 -208.5t-160 -62.5q-61 0 -103 14v-398h-148z" />
    <glyph glyph-name="uni06F3" unicode="&#x6f3;" horiz-adv-x="540" 
d="M25 653h148v-117q6 -1 19 -1q27 0 33.5 21.5t-0.5 89.5l117 9q6 -71 0 -120h6q38 0 47 20.5t2 89.5l129 10q9 -128 -27 -188t-124 -60q-48 0 -86 19q-28 -19 -73 -19q-27 0 -43 5v-412h-148v653z" />
    <glyph glyph-name="uni06F4" unicode="&#x6f4;" horiz-adv-x="540" 
d="M13 0v653h148v-158q45 -10 84 -14q-7 28 -7 49q0 134 142 134q51 0 101 -14l-30 -114q-27 11 -56 11q-48 0 -48 -42q0 -13 5 -28q86 3 156 17l16 -122q-105 -21 -201 -21q-89 0 -162 19v-370h-148z" />
    <glyph glyph-name="uni06F5" unicode="&#x6f5;" horiz-adv-x="540" 
d="M173 -6q-76 0 -116 61.5t-40 197.5q0 185 75 293t178 108t178 -108t75 -293q0 -259 -155 -259q-63 0 -98 46q-35 -46 -97 -46zM219 133q27 0 51 30q24 -30 52 -30q49 0 49 129q0 37 -5 77.5t-16 81.5t-31.5 67.5t-48.5 26.5t-48.5 -26.5t-31.5 -67.5t-16 -81.5t-5 -77.5
q0 -129 50 -129z" />
    <glyph glyph-name="uni06F6" unicode="&#x6f6;" horiz-adv-x="540" 
d="M394 445l114 -96l-328 -375l-115 96l161 183q-79 20 -121.5 70.5t-42.5 128.5q0 204 293 204q18 0 62 -2v-135q-31 3 -57 3q-73 0 -109.5 -18.5t-36.5 -50.5q0 -61 123 -72z" />
    <glyph glyph-name="uni06F7" unicode="&#x6f7;" horiz-adv-x="540" 
d="M388 665l149 -33l-174 -632h-186l-174 632l149 33l118 -479z" />
    <glyph glyph-name="uni06F8" unicode="&#x6f8;" horiz-adv-x="540" 
d="M537 11l-149 -33l-118 479l-118 -479l-149 33l174 632h186z" />
    <glyph glyph-name="uni06F9" unicode="&#x6f9;" horiz-adv-x="540" 
d="M23 438q0 101 60.5 158t173.5 57h219v-652h-148v243q-31 -3 -59 -3q-126 0 -186 52t-60 145zM175 446q0 -69 105 -69q21 0 48 3v136h-50q-103 0 -103 -70z" />
    <glyph glyph-name="Germandbls" unicode="&#x1e9e;" horiz-adv-x="770" 
d="M646 577q-163 0 -163 -77q0 -13 6 -24t20.5 -22t27.5 -19.5t37 -23t40 -24.5q43 -28 67 -51.5t39.5 -60t15.5 -85.5q0 -100 -65.5 -154t-174.5 -54q-142 0 -233 83l111 113q64 -58 127 -58q30 0 52.5 18.5t22.5 47.5q0 16 -5 29t-17 24t-22 17.5t-31 18.5t-32 19
q-65 41 -101 80.5t-36 91.5q0 78 88 126h-33q-169 0 -169 -125v-467h-156v466q0 134 92.5 197t245.5 63q128 0 246 -13v-136z" />
    <glyph glyph-name="uni2002" unicode="&#x2002;" horiz-adv-x="572" 
 />
    <glyph glyph-name="uni2003" unicode="&#x2003;" horiz-adv-x="1143" 
 />
    <glyph glyph-name="uni2009" unicode="&#x2009;" horiz-adv-x="114" 
 />
    <glyph glyph-name="uni200A" unicode="&#x200a;" horiz-adv-x="23" 
 />
    <glyph glyph-name="uni200C" unicode="&#x200c;" 
d="M-78 1036l18 20l60 -61l59 60l18 -19l-58 -59l58 -59l-18 -19l-59 59l-60 -60l-18 20l59 59z" />
    <glyph glyph-name="uni200D" unicode="&#x200d;" 
d="M-113 991h227v-79h-26v53h-175v-53h-26v79z" />
    <glyph glyph-name="uni200E" unicode="&#x200e;" 
d="M30 898l-19 20l47 47h-144v26h144l-47 45l19 20l79 -79z" />
    <glyph glyph-name="uni200F" unicode="&#x200f;" 
d="M-30 899l-79 78l79 79l19 -18l-47 -47h145v-26h-144l46 -47z" />
    <glyph glyph-name="uni2011" unicode="&#x2011;" horiz-adv-x="296" 
d="M271 309v-120h-246v120h246z" />
    <glyph glyph-name="endash" unicode="&#x2013;" horiz-adv-x="500" 
d="M500 309v-120h-500v120h500z" />
    <glyph glyph-name="emdash" unicode="&#x2014;" horiz-adv-x="1000" 
d="M1000 309v-120h-1000v120h1000z" />
    <glyph glyph-name="quoteleft" unicode="&#x2018;" horiz-adv-x="296" 
d="M257 708l-74 -282h-144l90 282h128z" />
    <glyph glyph-name="quoteright" unicode="&#x2019;" horiz-adv-x="296" 
d="M257 708l-90 -282h-128l74 282h144z" />
    <glyph glyph-name="quotesinglbase" unicode="&#x201a;" horiz-adv-x="296" 
d="M257 156l-90 -282h-128l74 282h144z" />
    <glyph glyph-name="quotedblleft" unicode="&#x201c;" horiz-adv-x="520" 
d="M258 426l90 282h128l-74 -282h-144zM44 426l90 282h128l-74 -282h-144z" />
    <glyph glyph-name="quotedblright" unicode="&#x201d;" horiz-adv-x="520" 
d="M258 426l74 282h144l-90 -282h-128zM44 426l74 282h144l-90 -282h-128z" />
    <glyph glyph-name="quotedblbase" unicode="&#x201e;" horiz-adv-x="520" 
d="M258 -126l74 282h144l-90 -282h-128zM44 -126l74 282h144l-90 -282h-128z" />
    <glyph glyph-name="dagger" unicode="&#x2020;" horiz-adv-x="592" 
d="M34 372v126h190v210h138v-210h196v-126h-196v-505h-138v505h-190z" />
    <glyph glyph-name="daggerdbl" unicode="&#x2021;" horiz-adv-x="592" 
d="M34 408v120h193v180h138v-180h193v-120h-193v-241h193v-120h-193v-180h-138v180h-193v120h193v241h-193z" />
    <glyph glyph-name="bullet" unicode="&#x2022;" horiz-adv-x="500" 
d="M250 531q74 0 125.5 -52t51.5 -125q0 -74 -52 -125.5t-125 -51.5q-72 0 -124.5 51t-52.5 126q0 73 51.5 125t125.5 52z" />
    <glyph glyph-name="ellipsis" unicode="&#x2026;" horiz-adv-x="1000" 
d="M167 178q38 0 65 -27t27 -65q0 -37 -27 -64.5t-65 -27.5t-65 27t-27 65t27 65t65 27zM500 178q38 0 65 -27.5t27 -64.5q0 -38 -26.5 -65t-65.5 -27q-38 0 -65 27t-27 65t27 65t65 27zM833 178q39 0 65.5 -27.5t26.5 -64.5q0 -38 -27 -65t-65 -27q-39 0 -65.5 27t-26.5 65
t27 65t65 27z" />
    <glyph glyph-name="uni202A" unicode="&#x202a;" 
d="M58 965h-57v26h57l-47 45l19 20l79 -79l-79 -79l-19 20zM-32 965h-65v26h65v-26z" />
    <glyph glyph-name="uni202B" unicode="&#x202b;" 
d="M-109 977l79 79l19 -18l-47 -47h57v-26h-56l46 -47l-19 -19zM32 965v26h65v-26h-65z" />
    <glyph glyph-name="uni202C" unicode="&#x202c;" 
d="M-14 897v116l-45 -46l-19 19l78 78l78 -78l-19 -19l-46 46v-116h-27z" />
    <glyph glyph-name="uni202D" unicode="&#x202d;" 
d="M-24 898l-18 20l47 47h-123v26h122l-46 45l18 20l79 -79zM50 898l-18 20l61 59l-61 59l18 20l79 -79z" />
    <glyph glyph-name="uni202E" unicode="&#x202e;" 
d="M-50 926l-79 79l79 79l18 -19l-60 -60l60 -60zM24 926l-78 79l78 79l19 -19l-47 -48h123v-25h-123l47 -47z" />
    <glyph glyph-name="perthousand" unicode="&#x2030;" horiz-adv-x="1167" 
d="M552 740l84 -47l-413 -725l-76 43zM208 720q73 0 125 -52t52 -124t-52 -124.5t-125 -52.5t-124.5 52.5t-51.5 124.5q0 73 51.5 124.5t124.5 51.5zM128 544q0 -34 24 -57.5t56 -23.5q33 0 57 24t24 57q0 34 -24.5 57t-56.5 23t-56 -23.5t-24 -56.5zM571 341
q73 0 124.5 -52t51.5 -124q0 -73 -52 -125t-124 -52q-73 0 -124.5 52.5t-51.5 124.5t51.5 124t124.5 52zM958 341q72 0 124.5 -52t52.5 -124q0 -73 -52.5 -125t-124.5 -52q-73 0 -124.5 52.5t-51.5 124.5q0 73 51.5 124.5t124.5 51.5zM491 165q0 -32 24 -56.5t56 -24.5
q34 0 57 24.5t23 56.5q0 33 -24 56.5t-57 23.5q-32 0 -55.5 -24t-23.5 -56zM878 165q0 -34 23.5 -57.5t56.5 -23.5q32 0 56.5 23.5t24.5 57.5q0 33 -24 56.5t-57 23.5t-56.5 -23.5t-23.5 -56.5z" />
    <glyph glyph-name="guilsinglleft" unicode="&#x2039;" horiz-adv-x="296" 
d="M268 422l-116 -173l116 -173l-91 -61l-159 234l159 234z" />
    <glyph glyph-name="guilsinglright" unicode="&#x203a;" horiz-adv-x="296" 
d="M119 483l159 -234l-159 -234l-91 61l116 173l-116 173z" />
    <glyph glyph-name="fraction" unicode="&#x2044;" horiz-adv-x="167" 
d="M244 740l84 -47l-413 -725l-76 43z" />
    <glyph glyph-name="Euro" unicode="&#x20ac;" horiz-adv-x="592" 
d="M10 222l28 90h42q-1 7 -1 37q0 17 2 49h-68l31 92h52q62 230 306 230q38 0 89.5 -9.5t66.5 -19.5l-46 -130q-40 25 -109 25q-108 0 -149 -96h235l-30 -92h-226q-2 -24 -2 -43q0 -9 0.5 -23t0.5 -20h204l-29 -90h-160q33 -104 129 -104q72 0 120 58l82 -101
q-35 -40 -93 -63.5t-123 -23.5q-224 0 -271 234h-81z" />
    <glyph glyph-name="uni20B9" unicode="&#x20b9;" horiz-adv-x="592" 
d="M161 612h-87v96h487v-96h-157q24 -31 31 -71h126v-96h-127q-7 -72 -57 -112.5t-128 -45.5l208 -287h-185l-197 291v83h83q100 0 123 71h-206l1 96h209q-23 71 -124 71z" />
    <glyph glyph-name="uni20BA" unicode="&#x20ba;" horiz-adv-x="592" 
d="M27 510l80 34v164h144v-98l154 64v-102l-154 -64v-76l154 64v-102l-154 -64v-201h3q87 1 129.5 64.5t42.5 161.5v10h148v-12q0 -168 -86.5 -265t-252.5 -97q-60 0 -128 8v265l-80 -34v101l80 35v76l-80 -34v102z" />
    <glyph glyph-name="uni2113" unicode="&#x2113;" horiz-adv-x="546" 
d="M301 776q71 0 111 -49t40 -132q0 -82 -50 -165.5t-159 -185.5l1 -39q1 -44 24.5 -74t63.5 -30q78 0 138 93l56 -58q-75 -145 -223 -145q-91 0 -137.5 50t-53.5 124q-42 -34 -53 -40l-35 71q8 7 40 31.5t47 38.5v254q0 117 50 186.5t140 69.5zM243 367q120 134 120 232
q0 82 -56 82q-29 0 -46.5 -41.5t-17.5 -111.5v-161z" />
    <glyph glyph-name="trademark" unicode="&#x2122;" horiz-adv-x="1000" 
d="M474 296v412h145l98 -268l98 268h145v-412h-108v268h-2l-98 -268h-70l-98 268h-2v-268h-108zM159 612h-119v96h346v-96h-119v-316h-108v316z" />
    <glyph glyph-name="Omega" unicode="&#x2126;" horiz-adv-x="751" 
d="M39 0v109h143v3q-128 114 -128 280q0 139 92.5 231.5t231.5 92.5q140 0 229 -94.5t89 -224.5q0 -81 -35 -157t-96 -128v-3h145v-109h-283v81q68 42 98.5 119.5t30.5 168.5q0 92 -46 164t-133 72q-88 0 -135.5 -72t-47.5 -169q0 -87 31.5 -164.5t97.5 -118.5v-81h-284z
" />
    <glyph glyph-name="estimated" unicode="&#x212e;" horiz-adv-x="976" 
d="M489 -19q-190 0 -302 105t-112 257q0 73 29 141.5t80.5 121.5t130.5 85t172 32q92 0 164.5 -23t118 -60.5t76 -88.5t42.5 -102.5t12 -107.5h-667q-6 0 -6 -6v-190q0 -21 8 -30q85 -108 251 -108q82 0 145.5 30.5t123.5 87.5h72q-63 -76 -138.5 -110t-199.5 -34zM227 368
q0 -6 6 -6h510q6 0 6 6v194q0 14 -12 28q-47 58 -116.5 82.5t-137.5 24.5q-144 0 -246 -105q-10 -12 -10 -29v-195z" />
    <glyph glyph-name="partialdiff" unicode="&#x2202;" horiz-adv-x="606" 
d="M264 797q131 0 212 -106.5t81 -280.5q0 -59 -9 -115.5t-31.5 -112t-55.5 -97.5t-85 -67.5t-117 -25.5q-98 0 -159.5 71.5t-61.5 169.5q0 119 65 191.5t162 72.5q47 0 89 -22.5t67 -60.5h1q1 7 1 33q0 56 -17.5 108.5t-59.5 91.5t-100 39q-73 0 -139 -48l-39 99
q81 60 196 60zM174 229q0 -48 26 -86.5t72 -38.5q41 0 72.5 37.5t46 80t18.5 82.5q-11 35 -44.5 60.5t-70.5 25.5q-56 0 -88 -50.5t-32 -110.5z" />
    <glyph glyph-name="Delta" unicode="&#x2206;" horiz-adv-x="693" 
d="M432 721l233 -642v-79h-638v78l240 643h165zM342 580q-8 -30 -27.5 -86.5t-25.5 -76.5l-119 -308h345l-112 293q-6 19 -27.5 82t-30.5 96h-3z" />
    <glyph glyph-name="product" unicode="&#x220f;" horiz-adv-x="759" 
d="M24 583v122h710v-122h-108v-680h-135v680h-224v-680h-135v680h-108z" />
    <glyph glyph-name="summation" unicode="&#x2211;" horiz-adv-x="588" 
d="M552 705v-115h-334v-4l211 -261l-233 -295v-3h373v-124h-546v85l252 316l-242 307v94h519z" />
    <glyph glyph-name="minus" unicode="&#x2212;" horiz-adv-x="666" 
d="M607 366v-126h-548v126h548z" />
    <glyph glyph-name="uni2215" unicode="&#x2215;" horiz-adv-x="167" 
d="M244 740l84 -47l-413 -725l-76 43z" />
    <glyph glyph-name="uni2219" unicode="&#x2219;" horiz-adv-x="296" 
d="M148 375q39 0 65.5 -27t26.5 -65q0 -39 -27 -65.5t-65 -26.5t-65 27t-27 65t26.5 65t65.5 27z" />
    <glyph glyph-name="radical" unicode="&#x221a;" horiz-adv-x="624" 
d="M635 846l-237 -988h-109l-157 440l-77 -31l-23 74l181 74l109 -322q15 -66 21 -87l1 -1q15 87 18 98l177 743h96z" />
    <glyph glyph-name="infinity" unicode="&#x221e;" horiz-adv-x="803" 
d="M221 463q97 0 185 -114q24 27 40 43t40.5 34.5t50.5 27.5t56 9q72 0 116 -49t44 -123q0 -76 -46.5 -128t-119.5 -52q-97 0 -185 117q-45 -57 -87.5 -87t-102.5 -30q-70 0 -116.5 51.5t-46.5 123.5q0 76 48.5 126.5t123.5 50.5zM124 285q0 -43 28 -71.5t70 -28.5
q13 0 25 3t24 10t20 12t20.5 17.5t17 17.5l18 20t15.5 17q-1 1 -13.5 18t-15 20t-14.5 17.5t-17.5 18t-17.5 13t-20.5 12.5t-21 6.5t-25.5 3.5q-44 0 -68.5 -30t-24.5 -76zM444 289q3 -4 14 -17t15 -18.5t15 -17t17.5 -16.5t17.5 -13.5t20 -12t21.5 -6.5t24.5 -3q39 0 64 31
t25 70q0 45 -25 75t-69 30q-13 0 -25 -3t-24 -10.5t-20.5 -13.5t-20.5 -18.5t-17.5 -18t-17.5 -20.5t-15 -18z" />
    <glyph glyph-name="integral" unicode="&#x222b;" horiz-adv-x="410" 
d="M326 873q33 0 64 -12l-14 -92q-18 9 -38 9q-28 0 -46 -18t-24.5 -52.5t-8 -56.5t-1.5 -59v-10q0 -57 8 -234t8 -244q0 -142 -42 -211t-131 -69q-48 0 -82 17l17 95q4 -1 12.5 -4t16.5 -5t16 -2q41 0 58 40t17 139q0 62 -8 250t-8 252q0 267 186 267z" />
    <glyph glyph-name="approxequal" unicode="&#x2248;" horiz-adv-x="666" 
d="M591 426q-61 -125 -157 -125q-34 0 -98.5 35t-98.5 35q-27 0 -83 -84l-79 75q30 58 75.5 91.5t92.5 33.5q34 0 99 -34.5t92 -34.5q33 0 79 84zM591 228q-67 -131 -158 -131q-37 0 -97.5 35.5t-98.5 35.5q-33 0 -83 -85l-79 78q29 59 75.5 93.5t92.5 34.5q42 0 99 -34.5
t91 -34.5q18 0 36 20t44 63z" />
    <glyph glyph-name="notequal" unicode="&#x2260;" horiz-adv-x="666" 
d="M59 336v126h279l50 116l106 -43l-32 -73h145v-126h-200l-29 -66h229v-126h-284l-52 -119l-102 38l34 81h-144v126h198l28 66h-226z" />
    <glyph glyph-name="lessequal" unicode="&#x2264;" horiz-adv-x="666" 
d="M69 426l482 193v-140l-326 -108l326 -109v-138l-482 189v113zM65 108h490v-123h-490v123z" />
    <glyph glyph-name="greaterequal" unicode="&#x2265;" horiz-adv-x="666" 
d="M69 619l482 -193v-113l-482 -189v138l326 109l-326 108v140zM65 -15v123h490v-123h-490z" />
    <glyph glyph-name="lozenge" unicode="&#x25ca;" horiz-adv-x="623" 
d="M368 755l204 -403l-209 -403h-108l-204 403l208 403h109zM310 647q-6 -25 -20 -58l-119 -234l118 -240q9 -17 20 -59h4q8 32 18 53l121 240l-114 230q-16 32 -25 68h-3z" />
    <glyph glyph-name="uni25CC" unicode="&#x25cc;" horiz-adv-x="460" 
d="M230 342q-27 0 -27 28q0 27 27 27t27 -27q0 -28 -27 -28zM143 320q-26 0 -26 29q0 26 26 26q29 0 29 -26q0 -29 -29 -29zM316 320q-29 0 -29 29q0 26 29 26q26 0 26 -26q0 -29 -26 -29zM80 257q-26 0 -26 28q0 27 26 27q28 0 28 -27q0 -28 -28 -28zM379 257q-27 0 -27 28
q0 27 27 27t27 -27q0 -28 -27 -28zM58 172q-26 0 -26 27t26 27q28 0 28 -27t-28 -27zM401 172q-27 0 -27 27t27 27t27 -27t-27 -27zM80 86q-26 0 -26 27t26 27q28 0 28 -27t-28 -27zM379 86q-27 0 -27 27t27 27t27 -27t-27 -27zM143 23q-26 0 -26 27t26 27q29 0 29 -27
t-29 -27zM316 23q-29 0 -29 27t29 27q26 0 26 -27t-26 -27zM230 1q-27 0 -27 27q0 28 27 28t27 -28q0 -27 -27 -27z" />
    <glyph glyph-name="uni274A" unicode="&#x274a;" horiz-adv-x="637" 
d="M264 -9l-124 61l98 149l-167 -63l-31 134l179 16l-154 92l86 107l123 -130l-24 178h138l-25 -178l124 130l86 -107l-154 -92l178 -16l-30 -134l-167 63l98 -150l-124 -60l-55 172z" />
    <glyph glyph-name="fi" unicode="&#xfb01;" horiz-adv-x="630" 
d="M6 366v120h99v91q0 95 43 143t147 48q52 0 88 -9l-7 -127q-29 10 -49 10q-41 0 -56.5 -18t-15.5 -62v-76h111v-120h-111v-366h-150v366h-99zM425 0v486h150v-486h-150zM413 639q0 37 25.5 62t61.5 25t61.5 -25.5t25.5 -61.5t-25.5 -61.5t-61.5 -25.5t-61.5 26t-25.5 61z
" />
    <glyph glyph-name="fl" unicode="&#xfb02;" horiz-adv-x="630" 
d="M6 486h99v91q0 95 43 143t147 48q52 0 88 -9l-7 -127q-29 10 -49 10q-41 0 -56.5 -18t-15.5 -62v-76h111v-120h-111v-366h-150v366h-99v120zM425 0v756h150v-756h-150z" />
    <glyph glyph-name="uniFBB2" unicode="&#xfbb2;" 
d="M1 546q-33 0 -53.5 21.5t-20.5 53.5q0 33 20.5 53.5t53.5 20.5t52.5 -20.5t19.5 -53.5q0 -32 -19.5 -53.5t-52.5 -21.5z" />
    <glyph glyph-name="uniFBB3" unicode="&#xfbb3;" 
d="M1 -226q-33 0 -53.5 20.5t-20.5 52.5q0 33 20.5 54.5t53.5 21.5t52.5 -21.5t19.5 -54.5q0 -32 -19.5 -52.5t-52.5 -20.5z" />
    <glyph glyph-name="uniFBB4" unicode="&#xfbb4;" 
d="M-89 546q-32 0 -53.5 21.5t-21.5 53.5t21.5 53t53.5 21t52.5 -21t20.5 -53t-20.5 -53.5t-52.5 -21.5zM91 546q-32 0 -53.5 21.5t-21.5 53.5t21.5 53t53.5 21t52.5 -21t20.5 -53t-21 -53.5t-52 -21.5z" />
    <glyph glyph-name="uniFBB5" unicode="&#xfbb5;" 
d="M-89 -226q-32 0 -53.5 21t-21.5 52q0 32 21.5 54t53.5 22t52.5 -21.5t20.5 -54.5q0 -32 -20.5 -52.5t-52.5 -20.5zM91 -226q-32 0 -53.5 21t-21.5 52q0 32 21.5 54t53.5 22q31 0 52 -22t21 -54q0 -31 -21 -52t-52 -21z" />
    <glyph glyph-name="uniFBB6" unicode="&#xfbb6;" 
d="M4 687q-31 0 -52 22t-21 53q0 32 21 54t52 22q33 0 53.5 -22t20.5 -54t-20.5 -53.5t-53.5 -21.5zM-89 534q-32 0 -53.5 22t-21.5 54t21.5 53t53.5 21t52.5 -21t20.5 -53q0 -33 -20.5 -54.5t-52.5 -21.5zM91 534q-32 0 -53.5 22t-21.5 54t21.5 53t53.5 21t52.5 -21
t20.5 -53t-21 -54t-52 -22z" />
    <glyph glyph-name="uniFBB9" unicode="&#xfbb9;" 
d="M-89 -227q-32 0 -53.5 21t-21.5 53t21.5 53.5t53.5 21.5t52.5 -21.5t20.5 -53.5t-20.5 -53t-52.5 -21zM91 -227q-32 0 -53.5 21t-21.5 53t21.5 53.5t53.5 21.5q31 0 52 -21.5t21 -53.5t-20.5 -53t-52.5 -21zM3 -377q-32 0 -53.5 21t-21.5 52q0 33 21.5 54.5t53.5 21.5
q33 0 53 -21.5t20 -54.5q0 -32 -20 -52.5t-53 -20.5z" />
    <glyph glyph-name="uniFD3E" unicode="&#xfd3e;" horiz-adv-x="512" 
d="M89 295q-59 29 -59 49q0 19 59 48v55q0 20 14 20q2 0 14 -9l72 -64q10 -7 14 -7q12 0 12 9q0 10 -8 17l-57 79q-5 8 -2.5 15.5t10.5 7.5h3l68 -11q14 53 64.5 121.5t100.5 113.5t70 45q18 0 2 -18q-129 -154 -148 -241q-2 -7 -4 -23l48 6q1 0 3.5 0.5t3.5 0.5
q10 0 12 -5.5t-5 -13.5l-63 -74q-11 -13 -11 -17q0 -7 10 -7h6q1 0 3.5 1t4.5 2l74 54q11 8 18 8t7 -10v-55q60 -22 60 -48q0 -27 -60 -49v-56q0 -10 -7 -10t-18 8l-74 55q-2 1 -4.5 2t-3.5 1h-6q-10 0 -10 -8q0 -1 11 -18l63 -72q7 -7 5 -13t-12 -6q-1 0 -3.5 0.5t-3.5 0.5
l-44 6h-4q17 -129 152 -264q8 -7 7 -12.5t-9 -5.5q-20 0 -70 45t-100.5 113.5t-64.5 121.5l-68 -11h-3q-8 0 -11 7.5t3 15.5l57 79q8 7 8 17q0 8 -12 8q-7 0 -14 -7l-72 -64q-8 -8 -14 -8q-14 0 -14 19v56zM243 476l-61 15l47 -68v27h22l20 32v-32h18v-26l63 64l-67 -13
q5 38 33 105v42q-25 -25 -45.5 -67t-29.5 -79zM229 263l-47 -67l61 14q24 -93 75 -146v43q-28 65 -33 104l67 -13l-63 65v-28h-18v-31l-20 31h-22v28zM212 344q0 -20 17 -37q14 -12 30 -12q21 0 34.5 14t13.5 35q0 20 -14 34t-34 14q-19 0 -33 -14.5t-14 -33.5zM334 314
l70 -53v52q57 16 57 31q0 9 -20 17.5t-37 12.5v52l-70 -53h40v-18q18 -1 30 -12q-13 -10 -30 -11v-18h-40zM89 365q-34 -12 -34 -21q0 -12 57 -31v-53l72 56h-44v17q-20 5 -28 11q8 5 28 10v16h44l-72 57v-53q-9 -3 -23 -9z" />
    <glyph glyph-name="uniFD3F" unicode="&#xfd3f;" horiz-adv-x="512" 
d="M30 344q0 26 60 48v55q0 10 7 10t18 -8l74 -54q2 -1 4.5 -2t3.5 -1h6q10 0 10 7q0 4 -11 17l-63 74q-7 8 -5 13.5t12 5.5q1 0 3.5 -0.5t3.5 -0.5l48 -6q-2 16 -4 23q-19 87 -148 241q-16 18 2 18q20 0 70 -45t100.5 -113.5t64.5 -121.5l68 11h3q8 0 10.5 -7.5t-2.5 -15.5
l-57 -79q-8 -7 -8 -17q0 -9 12 -9q4 0 14 7l72 64q12 9 14 9q14 0 14 -20v-55q59 -29 59 -48q0 -20 -59 -49v-56q0 -19 -14 -19q-6 0 -14 8l-72 64q-7 7 -14 7q-12 0 -12 -8q0 -10 8 -17l57 -79q6 -8 3 -15.5t-11 -7.5h-3l-68 11q-14 -53 -64.5 -121.5t-100.5 -113.5
t-70 -45q-5 0 -7.5 2.5t-1 7t6.5 8.5q135 135 152 264h-4l-44 -6q-1 0 -3.5 -0.5t-3.5 -0.5q-10 0 -12 6t5 13l63 72q11 17 11 18q0 8 -10 8h-6q-1 0 -3.5 -1t-4.5 -2l-74 -55q-11 -8 -18 -8t-7 10v56q-60 22 -60 49zM163 488l63 -64v26h18v32l20 -32h22v-27l47 68l-61 -15
q-9 37 -29.5 79t-45.5 67v-42q28 -67 33 -105zM230 211q-5 -39 -33 -104v-43q51 53 75 146l61 -14l-47 67v-28h-22l-20 -31v31h-18v28l-63 -65zM208 344q0 -21 13.5 -35t34.5 -14q16 0 30 12q17 17 17 37q0 19 -14 33.5t-33 14.5q-20 0 -34 -14t-14 -34zM111 313v-52l70 53
h-40v18q-19 2 -30 13q15 9 30 10v18h40l-70 53v-52q-17 -4 -37 -12.5t-20 -17.5q0 -15 57 -31zM331 370h44v-16q20 -5 28 -10q-8 -6 -28 -11v-17h-44l72 -56v53q57 19 57 31q0 9 -34 21q-14 6 -23 9v53z" />
    <glyph glyph-name="uniFEFF" unicode="&#xfeff;" 
 />
    <glyph glyph-name="uni066E.fina" horiz-adv-x="1013" 
d="M1013 129q20 0 20 -69q0 -60 -20 -60q-90 0 -130 45q-43 -45 -129 -45h-475q-120 0 -189.5 58.5t-69.5 151.5q0 77 32 162l127 -33q-16 -69 -16 -98q0 -52 38 -82t102 -30h397q42 0 59 19t17 65v213h148v-205q0 -92 89 -92z" />
    <glyph glyph-name="uniFBE9.wide" horiz-adv-x="363" 
d="M363 129q20 0 20 -69q0 -60 -20 -60q-98 0 -137 54q-53 -54 -193 -54h-33v129h29q60 0 78.5 21t18.5 85v191h148v-205q0 -92 89 -92z" />
    <glyph glyph-name="uniFBE8.wide" horiz-adv-x="350" 
d="M0 0v129h29q60 0 78.5 21t18.5 85v191h148v-209q0 -122 -54.5 -169.5t-186.5 -47.5h-33z" />
    <glyph glyph-name="uni06A1.fina" horiz-adv-x="1106" 
d="M30 210q0 77 32 162l127 -33q-16 -69 -16 -98q0 -52 38 -82t102 -30h290q-28 45 -28 101q0 84 64.5 145.5t178.5 61.5q111 0 174.5 -59.5t63.5 -141.5q0 -56 -33 -107h83q20 0 20 -69q0 -60 -20 -60h-112q-96 0 -185 13q-95 -13 -172 -13h-348q-120 0 -189.5 58.5
t-69.5 151.5zM723 226q0 -35 31.5 -63t59.5 -33q28 2 60.5 30t32.5 65q0 33 -24.5 55.5t-66.5 22.5q-41 0 -67 -21.5t-26 -55.5z" />
    <glyph glyph-name="uni06A1.medi" horiz-adv-x="595" 
d="M0 129h92q-28 45 -28 101q0 84 64.5 145.5t178.5 61.5q111 0 174.5 -59.5t63.5 -141.5q0 -56 -33 -107h83q20 0 20 -69q0 -60 -20 -60h-112q-96 0 -185 13q-95 -13 -172 -13h-126v129zM212 226q0 -35 31.5 -63t59.5 -33q28 2 60.5 30t32.5 65q0 33 -24.5 55.5t-66.5 22.5
q-41 0 -67 -21.5t-26 -55.5z" />
    <glyph glyph-name="uni06A1.init" horiz-adv-x="589" 
d="M508 0h-508v129h77q-13 37 -13 77q0 101 67 166t182 65q53 0 95 -15.5t67.5 -39.5t42.5 -54.5t23.5 -59t6.5 -55.5q0 -105 -40 -213zM212 209q0 -39 16 -80h164q7 35 7 68q0 46 -21.5 76t-67.5 30q-47 0 -72.5 -25.5t-25.5 -68.5z" />
    <glyph glyph-name="uni066F.fina" horiz-adv-x="828" 
d="M10 68q0 64 27 141l135 -36q-10 -43 -10 -81q0 -31 8.5 -53.5t32 -44t72.5 -32.5t122 -11q177 0 211 49h-49q-127 0 -189.5 55.5t-62.5 151.5t66.5 163t168.5 67q109 0 163.5 -61t54.5 -152v-95h68q20 0 20 -69q0 -60 -20 -60h-81q-54 -183 -352 -183q-385 0 -385 251z
M459 215q0 -41 23 -63.5t69 -22.5h61v75q0 99 -77 99q-34 0 -55 -25t-21 -63z" />
    <glyph glyph-name="uni06C2.fina" horiz-adv-x="540" 
d="M18 186q0 95 65 158t190 63h185v-205q0 -47 14 -60t68 -13q20 0 20 -69q0 -60 -20 -60h-65q-173 0 -173 182v86h-29q-106 0 -106 -82q0 -36 27 -67l-110 -87q-66 63 -66 154zM155 605h42q-15 25 -15 53q0 45 32.5 73t87.5 28q36 0 67 -7l-14 -83q-18 5 -40 5
q-45 0 -45 -36q0 -16 10 -33h101v-85h-226v85z" />
    <glyph glyph-name="uni06C3.fina" horiz-adv-x="568" 
d="M200 542q-32 0 -53.5 21.5t-21.5 53.5t21.5 53t53.5 21t52.5 -21t20.5 -53t-20.5 -53.5t-52.5 -21.5zM380 542q-32 0 -53.5 21.5t-21.5 53.5t21.5 53t53.5 21t52.5 -21t20.5 -53t-21 -53.5t-52 -21.5zM568 129q20 0 20 -69q0 -60 -20 -60q-129 0 -175 37
q-63 -30 -137 -30q-100 0 -167.5 52t-67.5 149q0 88 69 153t201 65h205v-219q0 -44 15 -61t57 -17zM340 151v146h-69q-48 0 -75 -21t-27 -58q0 -76 108 -76q41 0 63 9z" />
    <glyph glyph-name="uniFBAF.wide" horiz-adv-x="821" 
d="M363 -260q-193 0 -269 45.5t-76 146.5q0 103 71 150t216 47h516q20 0 20 -69q0 -60 -20 -60h-525q-138 0 -138 -64q0 -34 47 -50t181 -16q186 0 369 28l5 -128q-192 -30 -397 -30z" />
    <glyph glyph-name="uniFBB1.wide" horiz-adv-x="821" 
d="M18 -68q0 103 71 150t216 47h516q20 0 20 -69q0 -60 -20 -60h-525q-138 0 -138 -64q0 -34 47 -50t181 -16q186 0 369 28l5 -128q-192 -30 -397 -30q-193 0 -269 45.5t-76 146.5zM361 231h-178v67h32q-11 20 -11 41q0 36 25.5 58t69.5 22q29 0 53 -7l-12 -64q-16 4 -31 4
q-35 0 -35 -29q0 -11 7 -25h80v-67z" />
    <glyph glyph-name="uni06D5.fina" horiz-adv-x="568" 
d="M568 129q20 0 20 -69q0 -60 -20 -60q-129 0 -175 37q-63 -30 -137 -30q-100 0 -167.5 52t-67.5 149q0 88 69 153t201 65h205v-219q0 -44 15 -61t57 -17zM340 151v146h-69q-48 0 -75 -21t-27 -58q0 -76 108 -76q41 0 63 9z" />
    <glyph glyph-name="uni06440671" horiz-adv-x="670" 
d="M20 129h173v421h148v-421h43q43 0 61.5 22.5t18.5 68.5v536h148v-573q0 -83 -47 -133t-139 -50h-406v129zM133 627v65h40v100h61v-40q36 43 83 43q39 0 62.5 -25t23.5 -68q0 -36 -16 -75h-254zM230 692h104q2 6 2 8q0 12 -10 20.5t-27 8.5q-37 0 -69 -37z" />
    <glyph glyph-name="uni06440671.fina" horiz-adv-x="701" 
d="M20 129h173v421h148v-421h43q43 0 61.5 22.5t18.5 68.5v536h148v-535q0 -92 89 -92q20 0 20 -69q0 -60 -20 -60q-95 0 -135 52q-47 -52 -140 -52h-406v129zM133 627v65h40v100h61v-40q36 43 83 43q39 0 62.5 -25t23.5 -68q0 -36 -16 -75h-254zM230 692h104q2 6 2 8
q0 12 -10 20.5t-27 8.5q-37 0 -69 -37z" />
    <glyph glyph-name="uni0660.lf" horiz-adv-x="287" 
d="M144 170l-124 124l124 119l123 -120z" />
    <glyph glyph-name="uni0661.lf" horiz-adv-x="310" 
d="M81 0v653h148v-653h-148z" />
    <glyph glyph-name="uni0662.lf" horiz-adv-x="554" 
d="M81 0v653h148v-117q42 -17 83 -17q42 0 57 28t10 100l148 8q11 -146 -35 -208.5t-160 -62.5q-61 0 -103 14v-398h-148z" />
    <glyph glyph-name="uni0663.lf" horiz-adv-x="609" 
d="M81 653h148v-117q6 -1 19 -1q27 0 33.5 21.5t-0.5 89.5l117 9q6 -71 0 -120h6q38 0 47 20.5t2 89.5l129 10q9 -128 -27 -188t-124 -60q-48 0 -86 19q-28 -19 -73 -19q-27 0 -43 5v-412h-148v653z" />
    <glyph glyph-name="uni0664.lf" horiz-adv-x="486" 
d="M449 133l6 -136q-63 -9 -141 -9q-135 0 -201.5 37t-66.5 127q0 116 132 183q-104 40 -104 132q0 188 306 188q20 0 45 -1v-135q-7 0 -19 0.5t-18 0.5q-162 0 -162 -60q0 -53 109 -53q38 0 72 5l-1 -138q-107 -9 -157.5 -35.5t-50.5 -60.5q0 -25 31 -37.5t111 -12.5
q52 0 109 5z" />
    <glyph glyph-name="uni0665.lf" horiz-adv-x="590" 
d="M295 -8q-121 0 -182.5 70t-61.5 223q0 176 64.5 272.5t179.5 96.5q116 0 180 -96.5t64 -272.5q0 -153 -61.5 -223t-182.5 -70zM295 130q50 0 73 40t23 124q0 95 -23.5 158.5t-72.5 63.5t-72.5 -63.5t-23.5 -158.5q0 -84 23 -124t73 -40z" />
    <glyph glyph-name="uni0666.lf" horiz-adv-x="506" 
d="M277 0v516h-271v137h419v-653h-148z" />
    <glyph glyph-name="uni0667.lf" horiz-adv-x="566" 
d="M401 665l149 -33l-174 -632h-186l-174 632l149 33l118 -479z" />
    <glyph glyph-name="uni0668.lf" horiz-adv-x="566" 
d="M550 11l-149 -33l-118 479l-118 -479l-149 33l174 632h186z" />
    <glyph glyph-name="uni0669.lf" horiz-adv-x="570" 
d="M36 438q0 101 60.5 158t173.5 57h219v-652h-148v243q-31 -3 -59 -3q-126 0 -186 52t-60 145zM188 446q0 -69 105 -69q21 0 48 3v136h-50q-103 0 -103 -70z" />
    <glyph glyph-name="uni06F0.lf" horiz-adv-x="287" 
d="M144 170l-124 124l124 119l123 -120z" />
    <glyph glyph-name="uni06F1.lf" horiz-adv-x="310" 
d="M81 0v653h148v-653h-148z" />
    <glyph glyph-name="uni06F2.lf" horiz-adv-x="554" 
d="M81 0v653h148v-117q42 -17 83 -17q42 0 57 28t10 100l148 8q11 -146 -35 -208.5t-160 -62.5q-61 0 -103 14v-398h-148z" />
    <glyph glyph-name="uni06F3.lf" horiz-adv-x="609" 
d="M81 653h148v-117q6 -1 19 -1q27 0 33.5 21.5t-0.5 89.5l117 9q6 -71 0 -120h6q38 0 47 20.5t2 89.5l129 10q9 -128 -27 -188t-124 -60q-48 0 -86 19q-28 -19 -73 -19q-27 0 -43 5v-412h-148v653z" />
    <glyph glyph-name="uni06F4.lf" horiz-adv-x="617" 
d="M81 0v653h148v-158q45 -10 84 -14q-7 28 -7 49q0 134 142 134q51 0 101 -14l-30 -114q-27 11 -56 11q-48 0 -48 -42q0 -13 5 -28q86 3 156 17l16 -122q-105 -21 -201 -21q-89 0 -162 19v-370h-148z" />
    <glyph glyph-name="uni06F5.lf" horiz-adv-x="608" 
d="M207 -6q-76 0 -116 61.5t-40 197.5q0 185 75 293t178 108t178 -108t75 -293q0 -259 -155 -259q-63 0 -98 46q-35 -46 -97 -46zM253 133q27 0 51 30q24 -30 52 -30q49 0 49 129q0 37 -5 77.5t-16 81.5t-31.5 67.5t-48.5 26.5t-48.5 -26.5t-31.5 -67.5t-16 -81.5t-5 -77.5
q0 -129 50 -129z" />
    <glyph glyph-name="uni06F6.lf" horiz-adv-x="501" 
d="M369 445l114 -96l-328 -375l-115 96l161 183q-79 20 -121.5 70.5t-42.5 128.5q0 204 293 204q18 0 62 -2v-135q-32 3 -57 3q-73 0 -109.5 -18.5t-36.5 -50.5q0 -61 123 -72z" />
    <glyph glyph-name="uni06F7.lf" horiz-adv-x="566" 
d="M401 665l149 -33l-174 -632h-186l-174 632l149 33l118 -479z" />
    <glyph glyph-name="uni06F8.lf" horiz-adv-x="566" 
d="M550 11l-149 -33l-118 479l-118 -479l-149 33l174 632h186z" />
    <glyph glyph-name="uni06F9.lf" horiz-adv-x="570" 
d="M36 438q0 101 60.5 158t173.5 57h219v-652h-148v243q-31 -3 -59 -3q-126 0 -186 52t-60 145zM188 446q0 -69 105 -69q21 0 48 3v136h-50q-103 0 -103 -70z" />
    <glyph glyph-name="uni06F4.urdu" horiz-adv-x="540" 
d="M332 448q-30 72 -70 72q-44 0 -44 -66v-454h-148v453q0 112 47.5 166t122.5 54q45 0 78 -22.5t64 -68.5q31 38 72 78l90 -90q-61 -59 -105 -122h-107z" />
    <glyph glyph-name="uni06F7.urdu" horiz-adv-x="540" 
d="M115 0l-85 138l241 524l138 -61l-222 -472h286v-129h-358z" />
    <glyph glyph-name="uni06F4.urdu.lf" horiz-adv-x="535" 
d="M323 448q-30 72 -70 72q-44 0 -44 -66v-454h-148v453q0 112 47.5 166t122.5 54q45 0 78 -22.5t64 -68.5q31 38 72 78l90 -90q-61 -59 -105 -122h-107z" />
    <glyph glyph-name="uni06F7.urdu.lf" horiz-adv-x="465" 
d="M96 0l-85 138l241 524l138 -61l-222 -472h286v-129h-358z" />
    <glyph glyph-name="acute.case" horiz-adv-x="260" 
d="M335 904l-173 -144h-132l101 144h204z" />
    <glyph glyph-name="breve.case" horiz-adv-x="260" 
d="M-54 904h80q9 -48 105 -48q21 0 32.5 1t28 5t27 14.5t16.5 27.5h79q-8 -73 -58 -108.5t-126 -35.5q-79 0 -129.5 35t-54.5 109z" />
    <glyph glyph-name="caron.case" horiz-adv-x="260" 
d="M-73 931h138l63 -78l62 78h135l-119 -144h-163z" />
    <glyph glyph-name="circumflex.case" horiz-adv-x="260" 
d="M66 760h-135l119 144h163l116 -144h-138l-63 78z" />
    <glyph glyph-name="dieresis.case" horiz-adv-x="260" 
d="M23 922q36 0 61.5 -23.5t25.5 -58.5q0 -36 -24 -61t-61 -25q-34 0 -58.5 25.5t-24.5 60.5q0 33 24 57.5t57 24.5zM231 922q36 0 61.5 -23.5t25.5 -58.5q0 -36 -24 -61t-61 -25q-34 0 -58.5 25.5t-24.5 60.5q0 33 24.5 57.5t56.5 24.5z" />
    <glyph glyph-name="dotaccent.case" horiz-adv-x="260" 
d="M127 922q36 0 61.5 -23.5t25.5 -58.5q0 -36 -24 -61t-61 -25q-34 0 -58.5 25.5t-24.5 60.5q0 33 24.5 57.5t56.5 24.5z" />
    <glyph glyph-name="grave.case" horiz-adv-x="260" 
d="M131 904l101 -144h-132l-173 144h204z" />
    <glyph glyph-name="hungarumlaut.case" horiz-adv-x="260" 
d="M162 760l101 144h204l-173 -144h-132zM-102 760l101 144h204l-173 -144h-132z" />
    <glyph glyph-name="macron.case" horiz-adv-x="260" 
d="M300 883v-96h-340v96h340z" />
    <glyph glyph-name="ring.case" horiz-adv-x="260" 
d="M130 953q46 0 78.5 -33.5t32.5 -77.5q0 -45 -33 -78t-78 -33t-78 33t-33 78t33 78t78 33zM79 842q0 -21 15 -36t36 -15t36 15t15 36t-15 36t-37 15q-19 0 -34.5 -15t-15.5 -36z" />
    <glyph glyph-name="tilde.case" horiz-adv-x="260" 
d="M61 904q35 0 87 -21q35 -15 56 -15q28 0 44 36h78q-23 -138 -130 -138q-30 0 -78 21q-47 21 -63 21q-29 0 -42 -42h-79q10 61 44 99.5t83 38.5z" />
    <glyph glyph-name="waslaar" 
d="M-135 535v65h40v100h61v-40q36 43 83 43q39 0 62.5 -25t23.5 -68q0 -36 -16 -75h-254zM31 637q-37 0 -69 -37h104q2 6 2 8q0 12 -10 20.5t-27 8.5z" />
    <glyph glyph-name="gafsarkashabovear" 
d="M-96 408l-69 69l262 250l68 -69z" />
    <glyph glyph-name="uni0654.big" 
d="M-113 628h42q-15 26 -15 53q0 45 32.5 73t87.5 28q36 0 67 -7l-14 -83q-18 5 -40 5q-45 0 -45 -36q0 -16 10 -33h101v-85h-226v85z" />
    <glyph glyph-name="uni0654064F" 
d="M-27 759q-37 0 -68 18l25 56q23 -10 43 -10q30 0 45 23h-1q-87 0 -87 68q0 36 23 63.5t59 27.5q35 0 56 -27.5t21 -72.5q0 -73 -34 -109.5t-82 -36.5zM-89 599h32q-11 20 -11 41q0 36 25.5 58t69.5 22q28 0 53 -7l-12 -64q-16 4 -31 4q-35 0 -35 -29q0 -11 7 -25h80v-67
h-178v67zM7 941q-9 0 -14.5 -7t-5.5 -15q0 -21 32 -21h12v4q0 18 -7 28.5t-17 10.5z" />
    <glyph glyph-name="uni0654064C" 
d="M-133 794l-40 32q15 24 35.5 40t38.5 16q26 0 59 -29.5t53 -29.5q27 0 40 23h-5q-35 0 -58 16.5t-23 51.5q0 36 23 63.5t58 27.5t56 -27.5t21 -72.5q0 -73 -34 -109.5t-81 -36.5q-24 0 -43 9t-29 20t-20.5 20t-19.5 9q-13 0 -31 -23zM89 532h-178v67h32q-11 20 -11 41
q0 36 25.5 58t69.5 22q28 0 53 -7l-12 -64q-16 4 -31 4q-35 0 -35 -29q0 -11 7 -25h80v-67zM44 941q-9 0 -15 -7.5t-6 -16.5q0 -19 27 -19q12 0 17 1v3q0 39 -23 39z" />
    <glyph glyph-name="uni0654064E" 
d="M-89 599h32q-11 20 -11 41q0 36 25.5 58t69.5 22q28 0 53 -7l-12 -64q-16 4 -31 4q-35 0 -35 -29q0 -11 7 -25h80v-67h-178v67zM-112 754l11 64l224 34l3 -1l-11 -64l-224 -34z" />
    <glyph glyph-name="uni0654064B" 
d="M89 532h-178v67h32q-11 20 -11 41q0 36 25.5 58t69.5 22q28 0 53 -7l-12 -64q-16 4 -31 4q-35 0 -35 -29q0 -11 7 -25h80v-67zM-109 753l-3 1l11 64l224 34l3 -1l-11 -64zM-109 871l-3 1l11 64l224 34l3 -1l-11 -64z" />
    <glyph glyph-name="uni06540652" 
d="M21 760q-41 0 -63 22.5t-22 59.5t23 65.5t62 28.5q38 0 60.5 -28.5t22.5 -65.5t-21.5 -59.5t-61.5 -22.5zM-89 599h32q-11 20 -11 41q0 36 25.5 58t69.5 22q28 0 53 -7l-12 -64q-16 4 -31 4q-35 0 -35 -29q0 -11 7 -25h80v-67h-178v67zM21 874q-24 0 -24 -28
q0 -22 24 -22q22 0 22 22q0 10 -6 19t-16 9z" />
    <glyph glyph-name="uni06550650" 
d="M-89 -259v66h33q-12 19 -12 42q0 36 25.5 58t69.5 22q28 0 53 -7l-12 -64q-16 4 -31 4q-35 0 -35 -29q0 -13 8 -26h79v-66h-178zM-106 -387l-3 1l11 64l224 34l3 -1l-11 -64z" />
    <glyph glyph-name="uni0655064D" 
d="M89 -259h-178v66h33q-12 19 -12 42q0 36 25.5 58t69.5 22q28 0 53 -7l-12 -64q-16 4 -31 4q-35 0 -35 -29q0 -13 8 -26h79v-66zM-106 -491l-3 1l11 64l224 34l3 -1l-11 -64zM-106 -387l-3 1l11 64l224 34l3 -1l-11 -64z" />
    <glyph glyph-name="uni06510670" 
d="M34 719l-62 -17h-6v186h68v-169zM106 690q18 -37 18 -71q0 -33 -17.5 -52.5t-45.5 -19.5t-55 19q-18 -26 -57 -26q-34 0 -53.5 19t-19.5 53q0 27 11 56l41 -10q-3 -14 -3 -23q0 -31 26 -31q23 0 23 31q0 9 -1 14l43 8q4 -24 4 -36v-3q11 -6 25 -6q21 0 21 26q0 16 -7 34z
" />
    <glyph glyph-name="uni0651064F" 
d="M74 852q0 -73 -34 -109.5t-82 -36.5q-36 0 -68 18l25 56q23 -10 43 -10q30 0 45 23h-1q-87 0 -87 68q0 36 23 63.5t59 27.5q35 0 56 -27.5t21 -72.5zM4 845h12q0 43 -24 43q-9 0 -14.5 -7t-5.5 -15q0 -21 32 -21zM106 690q18 -37 18 -71q0 -33 -17.5 -52.5t-45.5 -19.5
t-55 19q-18 -26 -57 -26q-34 0 -53.5 19t-19.5 53q0 27 11 56l41 -10q-3 -14 -3 -23q0 -31 26 -31q23 0 23 31q0 9 -1 14l43 8q4 -24 4 -36v-3q11 -6 25 -6q21 0 21 26q0 16 -7 34z" />
    <glyph glyph-name="uni0651064C" 
d="M-5 706q-24 0 -43 9t-29 20t-20.5 20t-19.5 9q-13 0 -31 -23l-40 32q15 24 35.5 40t38.5 16q26 0 59 -29.5t53 -29.5q27 0 40 23h-5q-35 0 -58 16.5t-23 51.5q0 36 23 63.5t58 27.5t56 -27.5t21 -72.5q0 -73 -34 -109.5t-81 -36.5zM35 845q12 0 17 1v3q0 39 -23 39
q-9 0 -15 -7.5t-6 -16.5q0 -19 27 -19zM106 690q18 -37 18 -71q0 -33 -17.5 -52.5t-45.5 -19.5t-55 19q-18 -26 -57 -26q-34 0 -53.5 19t-19.5 53q0 27 11 56l41 -10q-3 -14 -3 -23q0 -31 26 -31q23 0 23 31q0 9 -1 14l43 8q4 -24 4 -36v-3q11 -6 25 -6q21 0 21 26
q0 16 -7 34z" />
    <glyph glyph-name="uni0651064E" 
d="M100 734l-224 -34l-3 1l11 64l224 34l3 -1zM106 690q18 -37 18 -71q0 -33 -17.5 -52.5t-45.5 -19.5t-55 19q-18 -26 -57 -26q-34 0 -53.5 19t-19.5 53q0 27 11 56l41 -10q-3 -14 -3 -23q0 -31 26 -31q23 0 23 31q0 9 -1 14l43 8q4 -24 4 -36v-3q11 -6 25 -6q21 0 21 26
q0 16 -7 34z" />
    <glyph glyph-name="uni0651064B.1" 
d="M100 852l-224 -34l-3 1l11 64l224 34l3 -1zM100 734l-224 -34l-3 1l11 64l224 34l3 -1zM106 690q18 -37 18 -71q0 -33 -17.5 -52.5t-45.5 -19.5t-55 19q-18 -26 -57 -26q-34 0 -53.5 19t-19.5 53q0 27 11 56l41 -10q-3 -14 -3 -23q0 -31 26 -31q23 0 23 31q0 9 -1 14
l43 8q4 -24 4 -36v-3q11 -6 25 -6q21 0 21 26q0 16 -7 34z" />
    <glyph glyph-name="uni06510650" 
d="M-43 658q-34 0 -53.5 19t-19.5 53q0 27 11 56l41 -10q-3 -14 -3 -23q0 -31 26 -31q23 0 23 31q0 9 -1 14l43 8q4 -24 4 -36v-3q10 -6 25 -6q21 0 21 26q0 16 -7 34l47 18q18 -37 18 -71q0 -33 -17.5 -52.5t-45.5 -19.5t-55 19q-18 -26 -57 -26zM-108 599l224 34l3 -1
l-11 -64l-224 -34l-3 1z" />
    <glyph glyph-name="uni0651064D" 
d="M-43 776q-34 0 -53.5 19t-19.5 53q0 27 11 56l41 -10q-3 -14 -3 -23q0 -31 26 -31q23 0 23 31q0 9 -1 14l43 8q4 -24 4 -36v-3q10 -6 25 -6q21 0 21 26q0 16 -7 34l47 18q18 -37 18 -71q0 -33 -17.5 -52.5t-45.5 -19.5t-55 19q-18 -26 -57 -26zM-108 717l224 34l3 -1
l-11 -64l-224 -34l-3 1zM-108 599l224 34l3 -1l-11 -64l-224 -34l-3 1z" />
    </font>
</defs>
</svg>
