<svg xmlns="http://www.w3.org/2000/svg" width="529.883" height="529.883" viewBox="0 0 529.883 529.883">
  <g id="core-values" transform="translate(-526.058 -2656.059)">
    <path id="Path_1" data-name="Path 1" d="M2759.6,3427.934c-39.075,26.179-72.482,62.01-97.646,104.606a96.587,96.587,0,0,0,0,98.424c25.164,42.6,58.572,78.43,97.642,104.605-30.187-45.052-47.533-97.629-47.533-153.818S2729.408,3472.98,2759.6,3427.934Z" transform="translate(-2122.418 -660.751)" fill="#edf4fa"/>
    <path id="Path_2" data-name="Path 2" d="M2832.925,3532.542c-25.167-42.594-58.577-78.43-97.649-104.608,30.192,45.047,47.541,97.634,47.541,153.818s-17.349,108.766-47.541,153.823c39.072-26.181,72.483-62.015,97.649-104.611A96.607,96.607,0,0,0,2832.925,3532.542Z" transform="translate(-1790.457 -660.751)" fill="#edf4fa"/>
    <path id="Path_3" data-name="Path 3" d="M2979.148,3516.024c-26.179-39.077-62.01-72.485-104.606-97.649a96.6,96.6,0,0,0-98.427,0c-42.6,25.164-78.422,58.572-104.606,97.649,45.055-30.189,97.629-47.538,153.815-47.538S2934.1,3485.834,2979.148,3516.024Z" transform="translate(-2034.328 -748.841)" fill="#edf4fa"/>
    <path id="Path_4" data-name="Path 4" d="M2671.508,3491.7c26.179,39.074,62.015,72.482,104.611,97.646a96.594,96.594,0,0,0,98.422,0c42.591-25.164,78.43-58.572,104.605-97.644-45.049,30.185-97.634,47.536-153.818,47.536S2716.563,3521.886,2671.508,3491.7Z" transform="translate(-2034.332 -416.88)" fill="#edf4fa"/>
  </g>
</svg>
