<svg xmlns="http://www.w3.org/2000/svg" width="578.986" height="277.652" viewBox="0 0 578.986 277.652">
  <g id="map" transform="translate(-810 -2715.073)">
    <path id="Path_22017" data-name="Path 22017" d="M.27-1.242A6.387,6.387,0,0,0,4.716.216v1.26H5.9V.216c2.718-.27,4.338-1.854,4.338-4.068A3.319,3.319,0,0,0,7.6-7.128L5.9-7.614v-2.862a3.435,3.435,0,0,1,2.124.756l1.728-2.106A6.321,6.321,0,0,0,5.9-12.96v-1.26H4.716v1.26c-2.5.306-4.1,1.908-4.1,3.888,0,1.764.918,2.79,2.862,3.384l1.242.378v3.042A3.43,3.43,0,0,1,2.178-3.384ZM5.9-5c1.242.414,1.53.72,1.53,1.368,0,.666-.54,1.134-1.53,1.332ZM3.42-9.2c0-.612.414-1.044,1.3-1.224V-7.9C4.41-8.01,3.42-8.118,3.42-9.2ZM15.984-12.96c-3.078,0-4.734,2.448-4.734,6.588,0,4.1,1.638,6.588,4.734,6.588s4.734-2.448,4.734-6.588C20.718-10.494,19.08-12.96,15.984-12.96ZM13.95-6.372c0-2.862.72-4.1,2.016-4.1,1.35,0,2.052,1.224,2.052,4.1,0,2.862-.7,4.1-2.034,4.1C14.67-2.268,13.95-3.492,13.95-6.372Zm12.24.81H21.762V-3.4H26.19Zm.72,4.32A6.387,6.387,0,0,0,31.356.216v1.26h1.188V.216c2.718-.27,4.338-1.854,4.338-4.068a3.319,3.319,0,0,0-2.646-3.276l-1.692-.486v-2.862a3.435,3.435,0,0,1,2.124.756L36.4-11.826a6.321,6.321,0,0,0-3.852-1.134v-1.26H31.356v1.26c-2.5.306-4.1,1.908-4.1,3.888,0,1.764.918,2.79,2.862,3.384l1.242.378v3.042a3.43,3.43,0,0,1-2.538-1.116ZM32.544-5c1.242.414,1.53.72,1.53,1.368,0,.666-.54,1.134-1.53,1.332ZM30.06-9.2c0-.612.414-1.044,1.3-1.224V-7.9C31.05-8.01,30.06-8.118,30.06-9.2ZM46.6-12.744H38.9l-.144,7.038A8.124,8.124,0,0,1,41.4-6.174c1.89,0,2.934.738,2.934,2.106a1.819,1.819,0,0,1-1.89,1.908A1.7,1.7,0,0,1,40.7-3.69l-2.826.648a4.093,4.093,0,0,0,4.3,3.258c2.9,0,4.86-1.764,4.86-4.554,0-2.484-1.674-4.212-4.428-4.212a3.361,3.361,0,0,0-1.116.144l.054-1.962H46.6Zm6.678-.216c-3.078,0-4.734,2.448-4.734,6.588,0,4.1,1.638,6.588,4.734,6.588s4.734-2.448,4.734-6.588C58.014-10.494,56.376-12.96,53.28-12.96ZM51.246-6.372c0-2.862.72-4.1,2.016-4.1,1.35,0,2.052,1.224,2.052,4.1,0,2.862-.7,4.1-2.034,4.1C51.966-2.268,51.246-3.492,51.246-6.372ZM67.59,0V-4.446c0-1.53.54-2.142,1.62-2.142.774,0,1.206.468,1.206,1.8V0h2.7V-4.68c0-1.17.522-1.908,1.638-1.908.792,0,1.188.558,1.188,1.458V0h2.7V-5.256c0-2.376-1.008-3.708-3.1-3.708A2.844,2.844,0,0,0,72.774-7.4a2.744,2.744,0,0,0-2.7-1.566,2.853,2.853,0,0,0-2.556,1.4h-.036V-8.748H64.89V0ZM81.936-13.068A1.556,1.556,0,0,0,80.37-11.5a1.579,1.579,0,0,0,1.566,1.566A1.567,1.567,0,0,0,83.5-11.5,1.567,1.567,0,0,0,81.936-13.068Zm1.35,4.32h-2.7V0h2.7Zm4.68-4.86h-2.7V0h2.7Zm4.68,0h-2.7V0h2.7Zm3.33.54A1.556,1.556,0,0,0,94.41-11.5a1.579,1.579,0,0,0,1.566,1.566A1.567,1.567,0,0,0,97.542-11.5,1.567,1.567,0,0,0,95.976-13.068Zm1.35,4.32h-2.7V0h2.7Zm6.48-.216a4.565,4.565,0,0,0-4.86,4.59,4.554,4.554,0,0,0,4.86,4.59,4.585,4.585,0,0,0,4.86-4.59A4.565,4.565,0,0,0,103.806-8.964Zm-2.16,4.59a2.06,2.06,0,0,1,2.142-2.214,2.042,2.042,0,0,1,2.178,2.214,2.046,2.046,0,0,1-2.16,2.214A2.055,2.055,0,0,1,101.646-4.374ZM112.95,0V-4.446c0-1.494.54-2.142,1.62-2.142.936,0,1.4.54,1.4,2.088V0h2.7V-4.95c0-2.88-1.026-4.014-3.24-4.014a2.833,2.833,0,0,0-2.556,1.4h-.036V-8.748H110.25V0Z" transform="translate(1259 2806.274)"/>
    <path id="Path_22018" data-name="Path 22018" d="M.27-1.242A6.387,6.387,0,0,0,4.716.216v1.26H5.9V.216c2.718-.27,4.338-1.854,4.338-4.068A3.319,3.319,0,0,0,7.6-7.128L5.9-7.614v-2.862a3.435,3.435,0,0,1,2.124.756l1.728-2.106A6.321,6.321,0,0,0,5.9-12.96v-1.26H4.716v1.26c-2.5.306-4.1,1.908-4.1,3.888,0,1.764.918,2.79,2.862,3.384l1.242.378v3.042A3.43,3.43,0,0,1,2.178-3.384ZM5.9-5c1.242.414,1.53.72,1.53,1.368,0,.666-.54,1.134-1.53,1.332ZM3.42-9.2c0-.612.414-1.044,1.3-1.224V-7.9C4.41-8.01,3.42-8.118,3.42-9.2Zm16.542-3.546h-7.7l-.144,7.038a8.124,8.124,0,0,1,2.646-.468c1.89,0,2.934.738,2.934,2.106A1.819,1.819,0,0,1,15.8-2.16a1.7,1.7,0,0,1-1.746-1.53l-2.826.648a4.093,4.093,0,0,0,4.3,3.258c2.9,0,4.86-1.764,4.86-4.554,0-2.484-1.674-4.212-4.428-4.212a3.361,3.361,0,0,0-1.116.144l.054-1.962h5.058Zm6.678-.216c-3.078,0-4.734,2.448-4.734,6.588,0,4.1,1.638,6.588,4.734,6.588s4.734-2.448,4.734-6.588C31.374-10.494,29.736-12.96,26.64-12.96ZM24.606-6.372c0-2.862.72-4.1,2.016-4.1,1.35,0,2.052,1.224,2.052,4.1,0,2.862-.7,4.1-2.034,4.1C25.326-2.268,24.606-3.492,24.606-6.372Zm12.24.81H32.418V-3.4h4.428Zm.72,4.32A6.387,6.387,0,0,0,42.012.216v1.26H43.2V.216c2.718-.27,4.338-1.854,4.338-4.068a3.319,3.319,0,0,0-2.646-3.276L43.2-7.614v-2.862a3.435,3.435,0,0,1,2.124.756l1.728-2.106A6.321,6.321,0,0,0,43.2-12.96v-1.26H42.012v1.26c-2.5.306-4.1,1.908-4.1,3.888,0,1.764.918,2.79,2.862,3.384l1.242.378v3.042a3.43,3.43,0,0,1-2.538-1.116ZM43.2-5c1.242.414,1.53.72,1.53,1.368,0,.666-.54,1.134-1.53,1.332ZM40.716-9.2c0-.612.414-1.044,1.3-1.224V-7.9C41.706-8.01,40.716-8.118,40.716-9.2Zm15.012-3.546h-2.52L49.05-9.234,50.58-7.47l2.556-2.25V0h2.592Zm8.208-.216c-3.078,0-4.734,2.448-4.734,6.588,0,4.1,1.638,6.588,4.734,6.588S68.67-2.232,68.67-6.372C68.67-10.494,67.032-12.96,63.936-12.96ZM61.9-6.372c0-2.862.72-4.1,2.016-4.1,1.35,0,2.052,1.224,2.052,4.1,0,2.862-.7,4.1-2.034,4.1C62.622-2.268,61.9-3.492,61.9-6.372Zm12.69-6.588c-3.078,0-4.734,2.448-4.734,6.588,0,4.1,1.638,6.588,4.734,6.588s4.734-2.448,4.734-6.588C79.326-10.494,77.688-12.96,74.592-12.96ZM72.558-6.372c0-2.862.72-4.1,2.016-4.1,1.35,0,2.052,1.224,2.052,4.1,0,2.862-.7,4.1-2.034,4.1C73.278-2.268,72.558-3.492,72.558-6.372ZM88.9,0V-4.446c0-1.53.54-2.142,1.62-2.142.774,0,1.206.468,1.206,1.8V0h2.7V-4.68c0-1.17.522-1.908,1.638-1.908.792,0,1.188.558,1.188,1.458V0h2.7V-5.256c0-2.376-1.008-3.708-3.1-3.708A2.844,2.844,0,0,0,94.086-7.4a2.744,2.744,0,0,0-2.7-1.566,2.853,2.853,0,0,0-2.556,1.4h-.036V-8.748H86.2V0Zm14.346-13.068a1.556,1.556,0,0,0-1.566,1.566,1.579,1.579,0,0,0,1.566,1.566,1.567,1.567,0,0,0,1.566-1.566A1.567,1.567,0,0,0,103.248-13.068Zm1.35,4.32h-2.7V0h2.7Zm4.68-4.86h-2.7V0h2.7Zm4.68,0h-2.7V0h2.7Zm3.33.54a1.556,1.556,0,0,0-1.566,1.566,1.579,1.579,0,0,0,1.566,1.566,1.567,1.567,0,0,0,1.566-1.566A1.567,1.567,0,0,0,117.288-13.068Zm1.35,4.32h-2.7V0h2.7Zm6.48-.216a4.565,4.565,0,0,0-4.86,4.59,4.554,4.554,0,0,0,4.86,4.59,4.585,4.585,0,0,0,4.86-4.59A4.565,4.565,0,0,0,125.118-8.964Zm-2.16,4.59A2.06,2.06,0,0,1,125.1-6.588a2.042,2.042,0,0,1,2.178,2.214,2.046,2.046,0,0,1-2.16,2.214A2.055,2.055,0,0,1,122.958-4.374ZM134.262,0V-4.446c0-1.494.54-2.142,1.62-2.142.936,0,1.4.54,1.4,2.088V0h2.7V-4.95c0-2.88-1.026-4.014-3.24-4.014a2.833,2.833,0,0,0-2.556,1.4h-.036V-8.748h-2.592V0Z" transform="translate(1249 2888.787)"/>
    <path id="Path_22019" data-name="Path 22019" d="M.27-1.242A6.387,6.387,0,0,0,4.716.216v1.26H5.9V.216c2.718-.27,4.338-1.854,4.338-4.068A3.319,3.319,0,0,0,7.6-7.128L5.9-7.614v-2.862a3.435,3.435,0,0,1,2.124.756l1.728-2.106A6.321,6.321,0,0,0,5.9-12.96v-1.26H4.716v1.26c-2.5.306-4.1,1.908-4.1,3.888,0,1.764.918,2.79,2.862,3.384l1.242.378v3.042A3.43,3.43,0,0,1,2.178-3.384ZM5.9-5c1.242.414,1.53.72,1.53,1.368,0,.666-.54,1.134-1.53,1.332ZM3.42-9.2c0-.612.414-1.044,1.3-1.224V-7.9C4.41-8.01,3.42-8.118,3.42-9.2Zm15.012-3.546h-2.52l-4.158,3.51,1.53,1.764L15.84-9.72V0h2.592Zm8.208-.216c-3.078,0-4.734,2.448-4.734,6.588,0,4.1,1.638,6.588,4.734,6.588s4.734-2.448,4.734-6.588C31.374-10.494,29.736-12.96,26.64-12.96ZM24.606-6.372c0-2.862.72-4.1,2.016-4.1,1.35,0,2.052,1.224,2.052,4.1,0,2.862-.7,4.1-2.034,4.1C25.326-2.268,24.606-3.492,24.606-6.372ZM37.3-12.96c-3.078,0-4.734,2.448-4.734,6.588,0,4.1,1.638,6.588,4.734,6.588S42.03-2.232,42.03-6.372C42.03-10.494,40.392-12.96,37.3-12.96ZM35.262-6.372c0-2.862.72-4.1,2.016-4.1,1.35,0,2.052,1.224,2.052,4.1,0,2.862-.7,4.1-2.034,4.1C35.982-2.268,35.262-3.492,35.262-6.372ZM43.686-4.32h3.8v3.8h2.268v-3.8h3.8V-6.588h-3.8v-3.8H47.484v3.8h-3.8ZM63.594,0V-4.446c0-1.53.54-2.142,1.62-2.142.774,0,1.206.468,1.206,1.8V0h2.7V-4.68c0-1.17.522-1.908,1.638-1.908.792,0,1.188.558,1.188,1.458V0h2.7V-5.256c0-2.376-1.008-3.708-3.1-3.708A2.844,2.844,0,0,0,68.778-7.4a2.744,2.744,0,0,0-2.7-1.566,2.853,2.853,0,0,0-2.556,1.4h-.036V-8.748H60.894V0ZM77.94-13.068A1.556,1.556,0,0,0,76.374-11.5,1.579,1.579,0,0,0,77.94-9.936,1.567,1.567,0,0,0,79.506-11.5,1.567,1.567,0,0,0,77.94-13.068Zm1.35,4.32h-2.7V0h2.7Zm4.68-4.86h-2.7V0h2.7Zm4.68,0h-2.7V0h2.7Zm3.33.54A1.556,1.556,0,0,0,90.414-11.5,1.579,1.579,0,0,0,91.98-9.936,1.567,1.567,0,0,0,93.546-11.5,1.567,1.567,0,0,0,91.98-13.068Zm1.35,4.32h-2.7V0h2.7Zm6.48-.216a4.565,4.565,0,0,0-4.86,4.59A4.554,4.554,0,0,0,99.81.216a4.585,4.585,0,0,0,4.86-4.59A4.565,4.565,0,0,0,99.81-8.964Zm-2.16,4.59a2.06,2.06,0,0,1,2.142-2.214,2.042,2.042,0,0,1,2.178,2.214A2.046,2.046,0,0,1,99.81-2.16,2.055,2.055,0,0,1,97.65-4.374ZM108.954,0V-4.446c0-1.494.54-2.142,1.62-2.142.936,0,1.4.54,1.4,2.088V0h2.7V-4.95c0-2.88-1.026-4.014-3.24-4.014a2.833,2.833,0,0,0-2.556,1.4h-.036V-8.748h-2.592V0Z" transform="translate(1261 2971)"/>
    <path id="np_usa_1104668_000000" d="M427.722,63.824l-1.584-3.839a5.2,5.2,0,0,0-3.413-3.047,5.319,5.319,0,0,0-3.088-3.088l-3.8-11.03a5.248,5.248,0,0,0-2.458-2.9l-3.534-1.889a5.247,5.247,0,0,0-5.728.528,5.314,5.314,0,0,0-1.666-.284,13.046,13.046,0,0,0-3.128.67,5.155,5.155,0,0,0-3.616,3.534l-2.031,6.784a5.916,5.916,0,0,0-.2,1.2l-.548,10.116-1,2.7c-2.113,1.3-3.738,2.011-4.266,4.53L371.375,72.4l-6.8.345A5.161,5.161,0,0,0,361,74.407l-5.261,5.728a5.378,5.378,0,0,0-1.381,3.433l-1.564,1.727a5.111,5.111,0,0,0-1.219,4.489l.386,1.97-3.981,2.234-5.484.061c-1.767,0-2.031.183-6.4,3.453a5.152,5.152,0,0,0-1.645,6.256l.589,1.341-4.936,5.769c-1.5.772-4.387,2.3-4.692,2.438-.67.325-.752.366-4.652,3.839a5.277,5.277,0,0,0-3.514,1.117c-.2-.122-.345.061-.081-.975l2.234-2.9a5.149,5.149,0,0,0,1.056-2.945l.2-4.977a4.957,4.957,0,0,0-.264-1.889l-2.742-8.084a5.19,5.19,0,0,0-3.189-3.23l-1.219-.427a5.432,5.432,0,0,0-1.016-4.347,5.166,5.166,0,0,0-.691-3.88l-1.848-2.9a5.288,5.288,0,0,0-3.006-2.234l-3.087-.853-1.036-.975a5.315,5.315,0,0,0-3.656-1.442,5.165,5.165,0,0,0-4.062-2.966l-2.478-.3a5.188,5.188,0,0,0-2.275-1.787L287.565,70.1a5.193,5.193,0,0,0-4.956.548l-.772.569-1.483-.142-.853-.691a5.2,5.2,0,0,0-2.925-8.694l-1.666-.284a5.145,5.145,0,0,0-4.164,1.1l-2.864,2.316c1.442-3.23-.386-7.312-5.545-7.312a5.17,5.17,0,0,0-2.884-.914l-2.925-.041c-2.072-1.036-3.839-1.422-6.155.183-1.483-1.3-2.458-2.194-4.773-1.991a5.24,5.24,0,0,0-3.575-2.052l-3.738-.467a5.294,5.294,0,0,0-3.433.772l-1.462-.487-.264-2.113a5.185,5.185,0,0,0-2.945-4.042c-1.442-.691-2.559-1.381-4.062-1.381-2.112,0-3.941,1.1-5.058,3.819-5.362.3-10.928.447-16.616.447-73.9,0-152.1-25.411-152.89-25.655-3.25-1.036-6.683.772-6.866,5.992l-5.383-3.819A5.209,5.209,0,0,0,31.1,29.74c-.467,9.12-.609,12.634-.569,14.259-.162,1.2-.934,5.464-1.645,9.1L23.444,69.634,16.07,82.085a5.2,5.2,0,0,0-.731,2.58l-.142,9.12-1.4,7.739-3.189,4.916a5.135,5.135,0,0,0-.67,4.1l1.584,6.236a5.08,5.08,0,0,0-1.036,2.864c-.325,6.155.02,7.312.2,7.942.122.427.406,1.381,2.438,4.814v2.884a5.156,5.156,0,0,0,.487,2.194,30.158,30.158,0,0,0,1.848,3.534l-.63,5.261a5.224,5.224,0,0,0,1.97,4.733,5.184,5.184,0,0,0-.488,4.9c1.869,4.509,4.692,11.355,5.769,14.016-.142.853-.345,2.052-.467,2.742a17.871,17.871,0,0,0-.406,2.945c0,3.88,2.214,4.875,10.217,7.6l2.641,3.941a5.24,5.24,0,0,0,2.681,2.031,5.21,5.21,0,0,0,4.814,4.306c1.1,1.523,1.808,2.5,2.275,3.148.244,1.381.65,4.225.934,6.581a5.207,5.207,0,0,0,4.652,4.57l13.508,1.32a5.056,5.056,0,0,0,2.133,2.519c4.428,2.7,26.549,16.23,27.259,16.636,1.056.609,1.564.914,26.772,4.692a5.2,5.2,0,0,0,5.83-3.9l5.708.609c4.57,5.322,9.242,10.867,10.908,12.919.142,1.2.3,3.27.427,4.977a5.168,5.168,0,0,0,2.255,3.941l12.817,8.775a5.211,5.211,0,0,0,7.272-1.422l3.209-4.855,3.616-.061c1.909,2.031,3.8,4.022,4.611,4.956.488,1.361,1.5,4.469,1.869,5.708.081,1.666.833,2.681,7.516,9.791l.142,1.93a5.544,5.544,0,0,0,.3,1.422c1.1,2.986,2.417,6.642,2.62,7.333,1.28,4.875,10.136,7.089,10.238,7.109a24.265,24.265,0,0,0,4.733.345c1.97,1.625,3.494,2.925,6.317,1.909l2.641-.955a5.211,5.211,0,0,0,3.006-7.048l-2.011-4.469-.447-4.591.081-.1a5.106,5.106,0,0,0,1.219-3.148l.081-1.828,5.119-4.936a5.956,5.956,0,0,0,1.463-.244l3.087-.975a5.049,5.049,0,0,0,1.95-1.117l7.536-6.886a54.051,54.051,0,0,0,6.053-2.5l13.467,1.239a5.23,5.23,0,0,0,3.25-.772c3.616,2.6,2.3,1.848,7.191,4.286a5.122,5.122,0,0,0,5.545-.548,5.175,5.175,0,0,0,4.489-.508c1.584,1.1,2.133,1.97,4.306,1.97a9.5,9.5,0,0,0,3.88-1.117c2.011-.813,3.413-1.4,4.123-3.7.914-2.9.3-4.164-3.534-7.008a8.051,8.051,0,0,0,1.625-2.681c.061,0,2.58-.02,2.681-.041a5.211,5.211,0,0,0,4.327.589l9.161-2.844,4.083.873,4.286,4.083a5.217,5.217,0,0,0,6.947.2c.244-.2,4.083-3.514,4.408-3.575,7.312,6.724,7.414,6.764,8.633,7.15a6.937,6.937,0,0,0,.833.2c-.427,5.18-.427,5.545-.427,5.769a5.091,5.091,0,0,0,1.97,4.164,5.274,5.274,0,0,0,.447,4.448l2.844,4.692a5.329,5.329,0,0,0,3.392,2.417l3.92,6.845a5.173,5.173,0,0,0,4.347,2.6l4.123,4.652a5.161,5.161,0,0,0,5.5,1.483l4.448-1.462c2.641-.853,3.128-2.783,4.184-5.362a5.116,5.116,0,0,0,.386-2.052l-.163-14.747a5.127,5.127,0,0,0-.731-2.559l-5.362-9.181L357.665,251a5.173,5.173,0,0,0-1.056-2.9l-7.251-9.547-3.291-8.409,1.4-7.82,2.092-5.18,9.994-10.3a5.1,5.1,0,0,0,1.4-2.884l.406-2.884.752-1.137,2.925-.609a5.2,5.2,0,0,0,4.022-4.063c.244-1.137.386-1.97.508-2.559.548-.711,1.422-1.808,2.275-2.864l2.275-1.2a5.267,5.267,0,0,0,1.2-.894l3.108-3.088a5.231,5.231,0,0,0,1.259-5.342l1.544-1.4a5.234,5.234,0,0,0,1.6-4.652l-.406-2.58a5.292,5.292,0,0,0-.975-2.3,5.216,5.216,0,0,0-1-4.814,5.309,5.309,0,0,0-.325-1.239l-1.463-3.717c.02-.02.02-.02.02-.041l3.087-8.511a4.947,4.947,0,0,0,.3-1.422l.406-6.074a5.334,5.334,0,0,0-.366-2.336c.142-.244,2.641-6.033,2.641-6.033a5.308,5.308,0,0,0,2.417.589,5.178,5.178,0,0,0,5.18-4.916l.264-4.773a5.37,5.37,0,0,0-.183-1.706l8.978-6.419a5.22,5.22,0,0,0,2.173-4.57c1.706-1,4.977-2.945,5.626-3.311,2.092-1.1,2.478-2.62,3.453-6.52a5.2,5.2,0,0,0-1.564-5.119c-.813-.731-1.523-1.381-2.153-1.93.223-1.706-.427-2.823-1.117-4.448a28.9,28.9,0,0,0,1.4-5.951c1.442-1.056,3.372-2.458,4.042-2.945,1.666-.955,2.275-2.5,2.681-4.306l1.462-1.686a5.3,5.3,0,0,0,3.088-1.28l5.769-5.1a5.394,5.394,0,0,0,1.442-5.992ZM392.378,81.415l2.031-5.281-.975-4.408c-.162-1-.345-1.991-.528-2.925l.406-.264,8.328,21.674-2.7,2.681-6.581,1.6Zm-1.483-9.08.792,3.616-1.848,4.773-.081,14.462-2.62.63L385.7,89.133l-2.3-5.383V80.094l-2.173-5.017Zm6.256,30.794,2.234,5.525-6.175,2.214-3.941,2.742-1.442-2.945-.1-5.1c1.625-.467,5.667-1.483,9.425-2.437Zm-54.642-3.9,6.825-.061,8.43-4.733-1.117-5.667,2.722-3.027.183-2.092,5.261-5.728,7.394-.345,6.561-1.828,2.052,4.591v3.656l2.437,5.911,1.645,7.638.142,6.947v.183h.02l.142,6.338,1.828,3.9-.792.467-7.861-3.23-1.625.955-3.291-4.286-1.706.1-3.372-1.1c-3.514.183-7.434.366-7.678.386-.447-.142-.67-.2-22.851,5.1l-1.361-1.93,4.652-5.444-1.909-4.327c-.02.041,3.209-2.377,3.27-2.377Zm33.576,24.984-6.256,5.951-33.475,7.109-1.564-6.175c-.081-.67-.487-3.453-2.275-15.641a18.455,18.455,0,0,0,2.214-2.011l1.991,2.844s22.262-5.3,23.6-5.525c.65.041,2.438-.02,7.922-.325l2.234.792,2.234,2.275v8.409l2.255-.65,2.011,2.458c-.325.183-.548.3-.894.487Zm-33.6,96.585-1.523,8.491h-5.545v2.925l-.467-.366-20.7,1.767-1.2-1.706L311.7,218.2l-5.139-15.336-2.194-9.872,14.666-1.178-1.4,1.2,5.667,2.681,19.988,23.156Zm-30.834-33.6h-1.848l-.853,2.823-40.483,3.209.386-2.559,2.031-3.27,1.341-6.134,8.125-.914,2.011-1.625,45.317-4.977-2.052,3.473H323.74L311.7,184.866ZM259.39,203.858l-1.442,9.831.427,1.483H237.655V211.13l-3.677-1.1-.02-17.631-1.1-9.588c4.428-.264,20.678-.589,32.033-.772l.2.2-4.712,4.144,7.292,1.259-1.158,1.848-.772,4.489-2.925,2.844v4.164Zm-91.978-24.436.1-3.23H174.4c3.514.223,38.614,1.158,55.271,1.584l1.686,14.767v16.088l-2.945-1.909L217.585,209l-4.977-2.255-5.992.934-2.336-2.884L196.6,203.37l-.812-1.747-5.3-1.361V179.4Zm-92.664-10.2-.142,1.158c-.264,2.153-.589,4.956-.873,7.475L44.158,133.049l5.972-27.97c22.161,5.017,35.466,7.983,39.65,8.856L79.115,170.12l-.812-.853Zm.873-86.107,8.125-10.745-3.27-4.042L86.57,38.593c.955.244,1.93.467,2.925.711L88.134,51.289l2.9,6.866L96.1,66.564l-2.986,9.994L95.325,80.9l3.291-3.23.366.589,3.656,13.467,5.18-1.808,6.8,1.178-3.006,23.664c-7.841-1.28-29.433-5.2-39.63-7.475l6.155-21.674ZM243.706,86.8l2.742-2.966.772-6.459,7.658-3.636.386,1.239-.548,1.544,2.722.508V77.9l3.352,2.6,8.755,2.925,4.956.934v4.1c0,.63.041,1,3.25,3.27l-1.828,3.758v2.092l5.749-8.531L281,93.234l-3.148,13.528s1.016,9.242,1.1,9.547l-19.662,1.706-2.58-2.6-1.178-6.134-1.564-1.259,1.666-3.23s-10.1-8.308-11.151-8.917a32.437,32.437,0,0,1-.975-3.839l1.422-1.706Zm41.9,37.091,14.4-.528,3.006,28.478-3.189,1.137-4.347,8.409-6.784,2.377-3.067-1.909-3.494,2.559v-2.275l3.7-6.6-1.462-3.088-.02-27.625c.366-.3.813-.609,1.259-.934Zm19.906,26.63,1.889.406,1.706,2.9,5.992,1.463.467-.284c1.056-.65,2.316-1.4,2.9-1.706.548.3,1.564,1,2.519,1.666v3.189l4.347,5.85-9.141,8.389-34.856,3.819-2.011,1.625-4,.447c.163-.386.772-1.93.772-1.93l-1.584-2.5.406-.325,3.006.934,3.9-6.662,3.92-2.864,2.641,1.625,8.958-3.128,4.347-8.409,4.164-1.462Zm27.524-9.3s.508-2.722.691-3.677l.711,2.783,7.272-1.544,1.016,5.708,5.749-4.977,1.4-.223-.934,4.631c-1.3,1.686-2.8,3.555-3.575,4.408-.487-.2-1.239-.528-2.417-1l-1.4-.548-2.925,12.9-8.491,4.631-2.214-1.158-4.367-5.87v-2.8l1.727-5.83Zm34.876-8-3.331,3.941,1,4.408.833-.183.406,3.575,1.645,2.539-2.762.02c-1.036-.2-2.234-.467-3.047-.691.488-1.239,1.2-3.006,1.2-3.006l.345-.914-.772-.589c-1.117-.853-1.93-1.462-2.559-1.909l2.661-2.3-1.442-3.656ZM359.548,135l.914,2.356-2.173,1.869c-.041,0-.1-.02-.142-.02l-2.864-3.291Zm-15.3,3.25,2.3-.487-2.052,1.788ZM268.77,185.229l-2.6-.467,2.641-2.316-2.8-3.027s-30.367.589-33.455.873l-.447-3.839V153.765s-3.352-3.067-3.839-3.656v-2.925l-1.747-2.8L225.26,140.6l25.756-.63a17.034,17.034,0,0,0,1.523,1.462c.142.63.345,2.255.467,3.27.284,2.417.366,2.986.67,3.413.163.223.487.691,5.241,3.494l1.544,7.759L262.8,157.1l.65.833-2.072,4.855,7.251,6.358,1.483,5.769h1.97l1.1,1.747a12.128,12.128,0,0,1-1,2.011l-2.133.244ZM126.077,127.624l-13.244-2.052,4.509-35.262.67-2.4,46.028,4.936c-1.138,17.306-2.214,33.8-2.519,38.533Zm39.183-13.711c14.584.548,35.324,1.361,37.741,1.523a29.453,29.453,0,0,1,2.762,4.1l.691,1.158,1.138-.711c1.4-.894,3.087-1.909,3.778-2.3a45,45,0,0,1,3.981,2.377l4.692,13.162,3.453,10.258-46.638-.223.427-10.156L164.1,131.646c.183-2.62.609-9.222,1.158-17.733Zm11.517,31.931,47.8.223,1.117,1.828v2.539c0,.548,0,1.036,3.839,4.469v20.272c-14.666-.386-47.349-1.259-53.888-1.5Zm104.957-21.084.02,27.95,1.137,2.7-3.352,6.033V166.6l-2.8,4.794-2.356-.731-2.234,1.625-1.2-4.611-6.439-5.626,1.93-4.53-3.352-4.347-1,.975-.833-4.225s-4.652-2.783-5.362-3.311c-.1-.487-.2-1.483-.3-2.255a27.63,27.63,0,0,0-.569-3.717l3.839-6.784s-1.767-1.93-2.052-2.356c.386-.508.813-1.158,1.158-1.645h3.8l2.5-5.525-3.047-3.941,18.525-1.625c.772,2.559,1.747,5.789,1.747,5.789Zm-29.778-15.112,1.28,1.036,1.178,6.175,6.866,7.881L260.1,127.3h-3.555s-1.808,2.722-2.031,2.945l-.467,1.1c0,.284-.02,1.077,1.625,2.945l-2.417,4.225c-.244-.244-1.138-1.2-1.138-1.2L224.391,138l-1.889-5.647-4.814-13.467-1.117-6.926.548-2.3ZM214.8,91.732v16.474l-.853,3.656.752,4.692c-2.925-1.767-3.392-1.645-3.839-1.5a27.526,27.526,0,0,0-3.514,2.031c-2.417-3.92-3.169-4.062-3.575-4.164-.731-.163-23.7-1.036-38.309-1.584.548-8.409,1.2-18.3,1.828-27.849l46.861,2.133A12.391,12.391,0,0,0,213,89.091c-.041,1.056.934,2.011,1.808,2.641Zm-50.578-1.5-48.12-5.159-.975,3.494-7.536-1.32-3.189,1.117-2.986-10.969-2.356-3.819L96,76.558l-.122-.264L98.9,66.2l-5.566-9.222L90.8,50.9l1.239-11.009a578.006,578.006,0,0,0,74.646,12.574c-.548,8.491-1.523,23.156-2.458,37.761ZM92.341,114.339c3.108.467,12.106,1.909,18.911,3.027l-1.341,10.38L124.475,130c-.955,6.988-2.966,21.917-5.139,38.188l-36.1-5.911Zm34.714,16.006,36.522,3.859,11.03,1.219-1.584,38.188H166.3l-44.4-5.058c1.848-13.751,3.7-27.4,5.159-38.208Zm193.5,41.6,6.724-6.175,2.9,1.5,10.725-5.85,2.519-11.07c.63.264,1.259.528,1.462.63,1.117.711,1.483.63,6.338-5.688l1.016-4.469c4.022.731,5.525.975,6.155,1.036.447.264,1.584,1.077,2.7,1.93-.467,1.2-1.239,3.148-1.32,3.352-.244.731-.284.447.1,1.117.3.508.487.833,5.606,1.828H370.2l.67,8.714,3.006,1.544,1.2,3.006-1.32.406Zm56.41-23.766-3.088,8.511-.934-1.544.508-5.667-4.611-3.392-.752-7.292-.548-.325-.142-.609,1.523-1.787,3.534,9.994,4.733-1.239Zm.406-6.094-3.25.853L371.01,134.1Zm-59.457-17.367,2.559-2.356h2.275s4.814-4.306,4.977-4.408c.081-.041,1.137-.589,2.336-1.219.975,6.581,2.092,14.158,2.153,14.5-.061.467-.955,5.4-1.584,8.694l-7.658,7.333-1.442,4.936c-2.559-1.767-2.966-1.666-3.433-1.564-.163.041-.569.142-3.433,1.889l-3.88-.955-1.727-2.925-3.839-.833-2.58-24.538,8.084-.284,2.112-.853,1.158.223ZM267.6,71.741l6.459-5.281,1.666.284-5.3,6.358.2,1.361,3.27-2.031,4.448,3.616,4.977.467,2.356-1.666,2.539,1.036,1.117,1.828,4.936.63,1.2,2.783,3.6.244,1.97,1.869,4.327,1.2,1.848,2.9-1.016.955,2.031,3.433-.528,3.494-3.169,4.022.122,3.067,1.625.833,4.286-5.809,2.234.792,2.742,8.084-.2,4.977-2.864,3.737-1.341,5.119L289.473,121.1c.386-.3-.386-10.664-.427-10.806-.061-.163-2.823-7.841-2.823-8.328s2.153-10.258,2.153-10.258l3.047-1.564,2.661-7.13-2.823.975s-2.559-.975-2.763-.975c-.223,0-5,1.828-5,1.828l-2.7.691-1.808,3.738c-.731-.528-1.422-1.056-1.808-1.361V82.121l-6.906-1.28-7.983-2.6L260.1,76.555v-.162ZM224.636,53.785l1.523-3.616,1.848.873.691,5.362,7.028,2.316,1.97-1.361,3.737.467,2.884,3.27,1.848-1.2,3.169,2.783,1.889-.2,2.356-1.625,1.767.873,4.123.041,1.016.914h2.7l-4.55,2.58L249.5,73.427l-4.672,2.214-.833,7.049-3.27,3.514,1.361,3.616-1.259,1.5s1.706,6.683,2.539,6.825c1,.67,5.159,4.022,9.1,7.312l-.833,1.6H217.425V90.307l-.609-.386a9.074,9.074,0,0,0-1.219-.772,31.953,31.953,0,0,1,1.706-4.2l.163-.325L215.6,67.252l-.122-.427s-1.422-2.9-1.564-3.23c-.1-.691-.122-5.769-.1-9.283,3.6-.122,7.231-.284,10.826-.528Zm-13.467.548c-.061,3.981.02,9.4.183,9.912.162.487,1.2,2.6,1.625,3.514l1.645,15.275L167.416,80.9c.731-11.131,1.4-21.511,1.828-28.133,11.619,1.056,23.461,1.686,35.222,1.686,2.255-.02,4.489-.081,6.7-.122ZM36.361,29.979,47.37,37.8l.142,3.514L45.7,44.279l1.4,2.153,2.5-6.6.386-11.294s13.244,4.347,34.064,9.486L78.124,66.948l-10.847-4.1-16.067.02L41.4,61.118V56L34.534,51.51c.569-2.986,1.341-7.231,1.259-7.5-.142-.427.569-14.036.569-14.036ZM28.276,71.762l5.708-17.388s.02-.1.02-.122L38.8,57.4v5.891l12.188,2.153H66.81l11.5,4.327,2.153,2.661L72.193,83.381l3.027,3.006L69.43,106.74c-6.7-1.5-13.874-3.128-19.886-4.469L20.5,92.907l.122-8.166ZM49.991,202.516s-.955-7.942-1.381-8.349c-.406-.406-4.591-6.338-4.591-6.338l-2.092.406v-3.088l-3.473-.955-3.616-5.383s-8.349-2.823-8.349-3.23,1.117-6.053.975-6.459-6.256-15.234-6.256-15.234l2.925-3.514-4.042-3.514.691-5.789,1.544-.955-.284-2.437a18.318,18.318,0,0,1-1.95.67,24.63,24.63,0,0,1-1.666-3.108v-4.306a50.944,50.944,0,0,1-2.641-4.855c-.284-.934,0-6.2,0-6.2L17.328,118l-2.234-8.755,3.758-5.789,1.442-7.9,27.381,8.836-6.236,29.189L73.33,181.9c-.1.975-.183,1.645-.183,1.787,0,.284,0,.711,2.4,6.4l-1.889,1.483-6.094,9.384,2.8,2.377-.142.325-2.5-.772-1.544,1.28Zm17.834,4.57.061-1.077.366-.3,3.372,1.036,1.869-4.225-2.559-2.153,4.448-6.967,3.291-2.58s-2.864-6.886-2.966-7.17c.02-.548.772-7.008,1.361-11.842l3.677,3.677L82.775,164.8l36.217,5.931c-2.986,22.283-6.216,46.353-7.414,55.7-7.089-1.1-16.169-2.519-16.6-2.763-.691-.386-27.158-16.575-27.158-16.575Zm52.77,16.189-.691,4.448s-2.437-.366-5.769-.873c1.138-8.816,4.245-32.094,7.434-55.718l43.347,4.936-.122,4.611-3.413,43.814-29.859-3.27.3,3.27ZM232.738,252.79l-2.681-2.194-1.848,1.381,1.5,2.275-7.516,6.866-3.087.975-1.767-.244-8.369,8.1-.162,3.88-1.5,1.788.731,7.638,2.356,5.261-2.641.955-2.641-2.153s-4.875-.142-5.424-.284c-.548-.122-6.4-2.823-6.4-3.23s-2.783-7.942-2.783-7.942l-.284-3.778s-7.374-7.82-7.374-8.206c0-.406-2.234-7.15-2.5-7.7-.284-.548-6.967-7.536-6.967-7.536l-8.633.122-4.733,7.15L147.2,247.143s-.406-6.053-.691-6.744c-.223-.548-8.633-10.42-11.924-14.239l-.183-2.011,29.372,3.209,3.534-45.317h20.576v20.272l6.074,1.564.853,1.828,8.064,1.483,2.681,3.291,6.7-1.016,5.058,2.275,10.6-2.255,4.062,2.641,3.087.975V228.11l2.539,2.458,2.4,5.951-2.153,7.049.67,2.255-1.706,5.2Zm44.809,3.27c-.041,0-.061-.02-.061-.041,0-.244-5.444-3.8-5.444-3.8l-1.584,2.681-2.844-1.219-2.092,2.011-3.677-1.848-7.028-5.017-1.666,1.544.081,1.3L239.7,250.413l1.483-4.55-.67-2.275,2.194-7.191-2.864-7.069-2.255-2.316v-9.2h21.45l1.787,6.3-2.7,4.2-2.58,9.933h15.133l-.244,2.458,2.5,3.169-3.738-1.381-.934,3.392,3.169-.406,1.5-.894,1.666,1.95,3.088-2.742.914,1.463-4,5.342s6.175,4.286,5.951,4.286c-.183,0-2.62,1.178-3.006,1.178Zm2.031-14.442-3.758,1.727-2.681-3.413.427-4.306H258.921l1.544-6.114,3.209-5.017-3.108-10.969,1.219-8.308,3.575-2.986v-4.266l2.113-2.052,14.2-1.138.02,33.069,1.706,13.711Zm9.547.731-1.93-4.794-1.341,1.137-1.544-11.009V194.574l17.408-1.381,2.3,10.359,5.119,15.174,1.2,12.472-22.08,2.3,2.823,8.206Zm63.414,8.816.244,5.424,6.012,10.278.162,14.747-1,2.438-4.448,1.442-5.586-6.317-2.255-.081-4.936-8.572-2.417-.731-2.844-4.692,1.666-4.53s-3.352-.894-3.352-1.381.569-7.516.569-7.516l-1.666-2.925s-2.681-.406-2.925-.488-8.694-7.861-8.694-7.861l-4.083.894-5.18,4.367-5.342-5.1L299.6,239.12l-5.972,1.848-1.788-5.18,19.378-2.031,1.848,2.58L334.2,234.53l3.88,3.169-.02-5.789h3.23l3.575,9.161Zm3.331-48.019-10.7,11.009-.792,1.991-19.3-22.344-2.7-1.4,5.18-4.428,9.608-1.036,4.57,3.8,7.049-1.462,9.486,7.15-1.808,2.7Zm18.078-25.574-2.417.406,3.352,2.925-3.108,3.087-3.169,1.706s-3.839,4.692-3.839,4.936-.691,3.575-.691,3.575l-3.473.731-11.172-8.43-7.008,1.442-4.448-3.677-11.5,1.239-4.062,3.473-8.125.65-.02-3.352,10.2-6.439h2.62l3.88-6.52,43.367-7.049,1-.3,1.219.833-3.677,3.23,2.681,1.381H377.4l.406,2.58Zm3.92-40.422c-.3-.081-5.647-5.688-5.647-5.688l5.261-5.058.244-.122,3.413,3.189Zm10.38-17.225-3.6,1.3,2.864,3.494-.264,4.773-5.18-4.855-.406-2.681-3.352.488-1.239-2.194,1.523-5.2,7.861,3.23L395.4,111.9l3.108.731Zm13.426-12.492-1.991-4.936c.183-.041.406-.1.589-.142l3.88,3.616c-.853.488-1.727,1.016-2.478,1.463Zm4.814-2.844L401,99.492s-11.314,2.8-13.406,3.433l-.1-4.509,12.756-3.128,2.4-2.356.345-.142.833,1.97s-1.28,1.991-1.219,1.991c.081,0,5.038,4.489,5.038,4.489a27.517,27.517,0,0,1-1.158,3.352Zm10.624-33.7-1.93-.1L411.2,75.4a13.54,13.54,0,0,1-.548,2.214c-.122.041-6.175,4.469-6.175,4.469l-.691,4.266L403.4,87.69l-7.861-20.5.609-.386,1.889-5.139.609-10.908,2.031-6.784,1.747-.487.894,2.641,4.042-3.514,3.534,1.889,4.672,13.609,2.214.589,1.5,3.331,2.011-.1,1.584,3.839ZM106.72,285.553l-3.656-2.214-7.7-9.791a5.212,5.212,0,0,0-6.094-1.6L87,272.9c-1.341-1.4-2.336-2.7-4.083-3.169l-.1-.02V236.254a5.24,5.24,0,0,0-2.641-4.53l-3.352-1.889a5.418,5.418,0,0,0-3.23-.63l-1.991.264-7.556-2.214-5.017-2.925a5.125,5.125,0,0,0-2.62-.711H49.845a5.253,5.253,0,0,0-3.087,1.016l-6.3,4.652H37.007c-4.286,0-7.374,4.936-3.189,9.425l-2.945.752a5.161,5.161,0,0,0-3.859,4.144,33.166,33.166,0,0,0-.772,5.241c0,2.255.853,3.555,3.088,4.9-4.652,3.494-5.037,3.839-5.261,4.062-2.58,2.5-1.889,5.281.467,12.939a5.26,5.26,0,0,0,3.575,3.514,5.363,5.363,0,0,0,4.469,5.911l-10.014,3.311c-6.134,2.031-3.7,11.091,2.356,10.075l11.436-1.625a5.251,5.251,0,0,0,1.828-.609s12.066-6.825,12.228-6.947l2.783-2.031a5.125,5.125,0,0,0,.914-.833,5.04,5.04,0,0,0,2.641.1c2.336-.528,5.159-1.138,5.85-1.259a5.4,5.4,0,0,0,3.778-2.255c4.1,3.433,3.981,3.23,8.369,2.58,1.1.467.711.406,4.144,1.239l5.647,3.738c1.381,4.042,2.559,4.875,3.311,5.4.183.162,2.5,2.437,2.986,2.864a4.73,4.73,0,0,0,1.341,2.153l3.494,3.372a5.228,5.228,0,0,0,5.18,1.219l4.733-1.483a5.206,5.206,0,0,0,3.636-4.956v-4.184a5.129,5.129,0,0,0-2.5-4.489Zm-2.681,8.633-4.733,1.483L95.812,292.3s-.691-1.889-1.117-2.031c-.427-.122-3.067-2.966-3.839-3.514-.772-.528-1.889-4.448-1.889-4.448L81,277.042l-3.352-.813-2.234-.955-3.616.548-4.042-3.372-5.728-.406s.406,3.108,0,3.108-6.4,1.361-6.4,1.361l3.9-5.667-1.4-1.625-9.628,8.1,1.666.813-2.783,2.011-11.72,6.622L24.23,288.4l11.436-3.8,5.017-3.514.427-1.889,2.234-2.437L37.9,278.241l-1.95-3.372a16.619,16.619,0,0,1-2.661,0c0-.406.548-4.042.548-4.042L29.511,269.2s-2.234-7.292-1.808-7.7,5.87-4.448,5.87-4.448l2.925.813,5.3-2.194-.284-5.119-3.352,1.625s-6.7-2.966-6.7-3.372.691-4.306.691-4.306l5.992-1.483.142,2.966s2.661.406,3.067.406,1.544-3.92,1.544-3.92-2.519-1.077-2.661-1.483c-.122-.406-.67-3.8-.67-3.8l-2.519-2.7h5.159l7.678-5.667h6.561l5.566,3.23,9.222,2.7,3.067-.406,3.352,1.889V273.65l3.9,1.077,4.184,4.327,5.545-2.3L99.548,287.3l4.469,2.7v4.184Zm19.4-35.851h-2.661a5.21,5.21,0,0,0-5.2,5.2v1.889a5.21,5.21,0,0,0,5.2,5.2h2.661a5.21,5.21,0,0,0,5.2-5.2v-1.889a5.2,5.2,0,0,0-5.2-5.2Zm0,7.089h-2.661v-1.889h2.661Zm47.734,19.094a5.218,5.218,0,0,0-2.62-3.311c-3.636-1.909-5.525-2.864-6.6-3.372a5.164,5.164,0,0,0-2.8-5.159l-5.017-2.559a5.145,5.145,0,0,0-3.23-.508l-3.981-1.4a5.243,5.243,0,0,0-3.047-.122l-1.645-2.173a5.234,5.234,0,0,0-4.144-2.052h-1.95a5.2,5.2,0,0,0-5.2,5.2v1.767a5.215,5.215,0,0,0,4.144,5.1,29.063,29.063,0,0,0,5.362.914,5.256,5.256,0,0,0,3.555,2.986,5.167,5.167,0,0,0,3.494,3.534,5.03,5.03,0,0,0,3.413-.122,5.219,5.219,0,0,0,2.437.894,5.006,5.006,0,0,0-.812,2.011,5.257,5.257,0,0,0,1.158,4.306l-.488,3.108A5.194,5.194,0,0,0,155.978,299l2.661,1.361c2.641,1.32,5.606.548,7.5-3.311a9.075,9.075,0,0,0,3.859-1.483l2.519-2.031c2.6-2.194,2.945-6.2-1.341-9.019Zm-35.039-13.691V269.06h1.95l1.95,2.559Zm12.878,7.536-.813-2.316,1.6,1.706Zm-3.8-3.616v-1.625l4.611,1.625Zm8.633,4.184-.833-1.625-1.95-1.361.691-1.219,5.017,2.559Zm12.838,12.553-4.184,1.077-1.544,3.108-2.661-1.361.833-5.322-1.544-1.97,2.661-1.625-1.117-3.108c.548.142,6.988,3.514,6.988,3.514v1.625l3.067,2.011Z" transform="translate(800.23 2691.767)"/>
    <g id="Group_16099" data-name="Group 16099" transform="translate(967.433 2883.005)">
      <path id="np_pin_1196597_000000" d="M24.99,1.758A15.678,15.678,0,0,0,9.312,17.436c0,12.543,15.678,21.5,15.678,21.5s15.678-9.854,15.678-21.5A15.677,15.677,0,0,0,24.99,1.758Z" transform="translate(-9.312 -1.757)" fill="#46b749" stroke="#f5f9fd" stroke-width="4"/>
      <path id="np_hotel_3933736_000000" d="M44.321,43.467a.862.862,0,0,1-.852.851h-1.7a.864.864,0,0,1-.852-.851V39.207H34.1v4.259a.861.861,0,0,1-.852.851h-1.7a.862.862,0,0,1-.851-.851V31.541a.864.864,0,0,1,.851-.852h1.7a.864.864,0,0,1,.852.852V35.8h6.815V31.54a.864.864,0,0,1,.851-.852h1.7a.864.864,0,0,1,.852.852Z" transform="translate(-21.829 -21.837)" fill="#fff"/>
    </g>
    <g id="Group_16100" data-name="Group 16100" transform="translate(934.551 2850.083)">
      <path id="np_pin_1196597_000000-2" data-name="np_pin_1196597_000000" d="M24.99,1.758A15.678,15.678,0,0,0,9.312,17.436c0,12.543,15.678,21.5,15.678,21.5s15.678-9.854,15.678-21.5A15.677,15.677,0,0,0,24.99,1.758Z" transform="translate(-9.312 -1.757)" fill="#46b749" stroke="#f5f9fd" stroke-width="4"/>
      <path id="np_hotel_3933736_000000-2" data-name="np_hotel_3933736_000000" d="M44.321,43.467a.862.862,0,0,1-.852.851h-1.7a.864.864,0,0,1-.852-.851V39.207H34.1v4.259a.861.861,0,0,1-.852.851h-1.7a.862.862,0,0,1-.851-.851V31.541a.864.864,0,0,1,.851-.852h1.7a.864.864,0,0,1,.852.852V35.8h6.815V31.54a.864.864,0,0,1,.851-.852h1.7a.864.864,0,0,1,.852.852Z" transform="translate(-21.829 -21.837)" fill="#fff"/>
    </g>
    <g id="Group_16111" data-name="Group 16111" transform="translate(384 1396.438)">
      <path id="np_pin_1196597_000000-3" data-name="np_pin_1196597_000000" d="M26,1.758A16.688,16.688,0,0,0,9.312,18.446C9.312,31.8,26,41.332,26,41.332S42.688,30.843,42.688,18.446A16.687,16.687,0,0,0,26,1.758Z" transform="translate(908.688 1429.555)" fill="#1e60a9"/>
      <path id="np_hotel_3933736_000000-3" data-name="np_hotel_3933736_000000" d="M45.2,44.29a.917.917,0,0,1-.907.905H42.478a.92.92,0,0,1-.907-.905V39.756H34.317V44.29a.917.917,0,0,1-.907.905H31.6a.917.917,0,0,1-.905-.905V31.6a.92.92,0,0,1,.905-.907h1.814a.92.92,0,0,1,.907.907V36.13h7.254V31.595a.92.92,0,0,1,.905-.907H44.29a.92.92,0,0,1,.907.907Z" transform="translate(896.742 1410.045)" fill="#fff"/>
    </g>
    <g id="Group_16101" data-name="Group 16101" transform="translate(888.164 2801.833)">
      <path id="np_pin_1196597_000000-4" data-name="np_pin_1196597_000000" d="M24.99,1.758A15.678,15.678,0,0,0,9.312,17.436c0,12.543,15.678,21.5,15.678,21.5s15.678-9.854,15.678-21.5A15.677,15.677,0,0,0,24.99,1.758Z" transform="translate(-9.312 -1.757)" fill="#46b749" stroke="#f5f9fd" stroke-width="4"/>
      <path id="np_hotel_3933736_000000-4" data-name="np_hotel_3933736_000000" d="M44.321,43.467a.862.862,0,0,1-.852.851h-1.7a.864.864,0,0,1-.852-.851V39.207H34.1v4.259a.861.861,0,0,1-.852.851h-1.7a.862.862,0,0,1-.851-.851V31.541a.864.864,0,0,1,.851-.852h1.7a.864.864,0,0,1,.852.852V35.8h6.815V31.54a.864.864,0,0,1,.851-.852h1.7a.864.864,0,0,1,.852.852Z" transform="translate(-21.829 -21.837)" fill="#fff"/>
    </g>
    <g id="Group_16102" data-name="Group 16102" transform="translate(865.616 2845.826)">
      <path id="np_pin_1196597_000000-5" data-name="np_pin_1196597_000000" d="M24.99,1.758A15.678,15.678,0,0,0,9.312,17.436c0,12.543,15.678,21.5,15.678,21.5s15.678-9.854,15.678-21.5A15.677,15.677,0,0,0,24.99,1.758Z" transform="translate(-9.312 -1.757)" fill="#f48037" stroke="#f5f9fd" stroke-width="4"/>
      <path id="np_hotel_3933736_000000-5" data-name="np_hotel_3933736_000000" d="M44.321,43.467a.862.862,0,0,1-.852.851h-1.7a.864.864,0,0,1-.852-.851V39.207H34.1v4.259a.861.861,0,0,1-.852.851h-1.7a.862.862,0,0,1-.851-.851V31.541a.864.864,0,0,1,.851-.852h1.7a.864.864,0,0,1,.852.852V35.8h6.815V31.54a.864.864,0,0,1,.851-.852h1.7a.864.864,0,0,1,.852.852Z" transform="translate(-21.829 -21.837)" fill="#fff"/>
    </g>
    <g id="Group_16103" data-name="Group 16103" transform="translate(906.953 2764.653)">
      <path id="np_pin_1196597_000000-6" data-name="np_pin_1196597_000000" d="M24.99,1.758A15.678,15.678,0,0,0,9.312,17.436c0,12.543,15.678,21.5,15.678,21.5s15.678-9.854,15.678-21.5A15.677,15.677,0,0,0,24.99,1.758Z" transform="translate(-9.312 -1.757)" fill="#f48037" stroke="#f5f9fd" stroke-width="4"/>
      <path id="np_hotel_3933736_000000-6" data-name="np_hotel_3933736_000000" d="M44.321,43.467a.862.862,0,0,1-.852.851h-1.7a.864.864,0,0,1-.852-.851V39.207H34.1v4.259a.861.861,0,0,1-.852.851h-1.7a.862.862,0,0,1-.851-.851V31.541a.864.864,0,0,1,.851-.852h1.7a.864.864,0,0,1,.852.852V35.8h6.815V31.54a.864.864,0,0,1,.851-.852h1.7a.864.864,0,0,1,.852.852Z" transform="translate(-21.829 -21.837)" fill="#fff"/>
    </g>
    <g id="Group_16104" data-name="Group 16104" transform="translate(1135.248 2779.192)">
      <path id="np_pin_1196597_000000-7" data-name="np_pin_1196597_000000" d="M24.99,1.758A15.678,15.678,0,0,0,9.312,17.436c0,12.543,15.678,21.5,15.678,21.5s15.678-9.854,15.678-21.5A15.677,15.677,0,0,0,24.99,1.758Z" transform="translate(-9.312 -1.757)" fill="#f48037" stroke="#f5f9fd" stroke-width="4"/>
      <path id="np_hotel_3933736_000000-7" data-name="np_hotel_3933736_000000" d="M44.321,43.467a.862.862,0,0,1-.852.851h-1.7a.864.864,0,0,1-.852-.851V39.207H34.1v4.259a.861.861,0,0,1-.852.851h-1.7a.862.862,0,0,1-.851-.851V31.541a.864.864,0,0,1,.851-.852h1.7a.864.864,0,0,1,.852.852V35.8h6.815V31.54a.864.864,0,0,1,.851-.852h1.7a.864.864,0,0,1,.852.852Z" transform="translate(-21.829 -21.837)" fill="#fff"/>
    </g>
    <g id="Group_16110" data-name="Group 16110" transform="translate(384 1310.388)">
      <path id="np_pin_1196597_000000-8" data-name="np_pin_1196597_000000" d="M26,1.758A16.688,16.688,0,0,0,9.312,18.446C9.312,31.8,26,41.332,26,41.332S42.688,30.843,42.688,18.446A16.687,16.687,0,0,0,26,1.758Z" transform="translate(908.688 1429.555)" fill="#f48037"/>
      <path id="np_hotel_3933736_000000-8" data-name="np_hotel_3933736_000000" d="M45.2,44.29a.917.917,0,0,1-.907.905H42.478a.92.92,0,0,1-.907-.905V39.756H34.317V44.29a.917.917,0,0,1-.907.905H31.6a.917.917,0,0,1-.905-.905V31.6a.92.92,0,0,1,.905-.907h1.814a.92.92,0,0,1,.907.907V36.13h7.254V31.595a.92.92,0,0,1,.905-.907H44.29a.92.92,0,0,1,.907.907Z" transform="translate(896.742 1410.045)" fill="#fff"/>
    </g>
    <g id="Group_16106" data-name="Group 16106" transform="translate(1103.892 2790.936)">
      <path id="np_pin_1196597_000000-9" data-name="np_pin_1196597_000000" d="M24.99,1.758A15.678,15.678,0,0,0,9.312,17.436c0,12.543,15.678,21.5,15.678,21.5s15.678-9.854,15.678-21.5A15.677,15.677,0,0,0,24.99,1.758Z" transform="translate(-9.312 -1.757)" fill="#1e60a9" stroke="#f5f9fd" stroke-width="4"/>
      <path id="np_hotel_3933736_000000-9" data-name="np_hotel_3933736_000000" d="M44.321,43.467a.862.862,0,0,1-.852.851h-1.7a.864.864,0,0,1-.852-.851V39.207H34.1v4.259a.861.861,0,0,1-.852.851h-1.7a.862.862,0,0,1-.851-.851V31.541a.864.864,0,0,1,.851-.852h1.7a.864.864,0,0,1,.852.852V35.8h6.815V31.54a.864.864,0,0,1,.851-.852h1.7a.864.864,0,0,1,.852.852Z" transform="translate(-21.829 -21.837)" fill="#fff"/>
    </g>
    <g id="Group_16107" data-name="Group 16107" transform="translate(1040.946 2894.749)">
      <path id="np_pin_1196597_000000-10" data-name="np_pin_1196597_000000" d="M24.99,1.758A15.678,15.678,0,0,0,9.312,17.436c0,12.543,15.678,21.5,15.678,21.5s15.678-9.854,15.678-21.5A15.677,15.677,0,0,0,24.99,1.758Z" transform="translate(-9.312 -1.757)" fill="#1e60a9" stroke="#f5f9fd" stroke-width="4"/>
      <path id="np_hotel_3933736_000000-10" data-name="np_hotel_3933736_000000" d="M44.321,43.467a.862.862,0,0,1-.852.851h-1.7a.864.864,0,0,1-.852-.851V39.207H34.1v4.259a.861.861,0,0,1-.852.851h-1.7a.862.862,0,0,1-.851-.851V31.541a.864.864,0,0,1,.851-.852h1.7a.864.864,0,0,1,.852.852V35.8h6.815V31.54a.864.864,0,0,1,.851-.852h1.7a.864.864,0,0,1,.852.852Z" transform="translate(-21.829 -21.837)" fill="#fff"/>
    </g>
    <g id="Group_16108" data-name="Group 16108" transform="translate(1133.016 2907.901)">
      <path id="np_pin_1196597_000000-11" data-name="np_pin_1196597_000000" d="M24.99,1.758A15.678,15.678,0,0,0,9.312,17.436c0,12.543,15.678,21.5,15.678,21.5s15.678-9.854,15.678-21.5A15.677,15.677,0,0,0,24.99,1.758Z" transform="translate(-9.312 -1.757)" fill="#1e60a9" stroke="#f5f9fd" stroke-width="4"/>
      <path id="np_hotel_3933736_000000-11" data-name="np_hotel_3933736_000000" d="M44.321,43.467a.862.862,0,0,1-.852.851h-1.7a.864.864,0,0,1-.852-.851V39.207H34.1v4.259a.861.861,0,0,1-.852.851h-1.7a.862.862,0,0,1-.851-.851V31.541a.864.864,0,0,1,.851-.852h1.7a.864.864,0,0,1,.852.852V35.8h6.815V31.54a.864.864,0,0,1,.851-.852h1.7a.864.864,0,0,1,.852.852Z" transform="translate(-21.829 -21.837)" fill="#fff"/>
    </g>
    <g id="Group_16109" data-name="Group 16109" transform="translate(384 1478.15)">
      <path id="np_pin_1196597_000000-12" data-name="np_pin_1196597_000000" d="M26,1.758A16.688,16.688,0,0,0,9.312,18.446C9.312,31.8,26,41.332,26,41.332S42.688,30.843,42.688,18.446A16.687,16.687,0,0,0,26,1.758Z" transform="translate(908.688 1429.555)" fill="#46b749"/>
      <path id="np_hotel_3933736_000000-12" data-name="np_hotel_3933736_000000" d="M45.2,44.29a.917.917,0,0,1-.907.905H42.478a.92.92,0,0,1-.907-.905V39.756H34.317V44.29a.917.917,0,0,1-.907.905H31.6a.917.917,0,0,1-.905-.905V31.6a.92.92,0,0,1,.905-.907h1.814a.92.92,0,0,1,.907.907V36.13h7.254V31.595a.92.92,0,0,1,.905-.907H44.29a.92.92,0,0,1,.907.907Z" transform="translate(896.742 1410.045)" fill="#fff"/>
    </g>
    <g id="Group_16105" data-name="Group 16105" transform="translate(1185.98 2764.653)">
      <path id="np_pin_1196597_000000-13" data-name="np_pin_1196597_000000" d="M24.99,1.758A15.678,15.678,0,0,0,9.312,17.436c0,12.543,15.678,21.5,15.678,21.5s15.678-9.854,15.678-21.5A15.677,15.677,0,0,0,24.99,1.758Z" transform="translate(-9.312 -1.757)" fill="#f48037" stroke="#f5f9fd" stroke-width="4"/>
      <path id="np_hotel_3933736_000000-13" data-name="np_hotel_3933736_000000" d="M44.321,43.467a.862.862,0,0,1-.852.851h-1.7a.864.864,0,0,1-.852-.851V39.207H34.1v4.259a.861.861,0,0,1-.852.851h-1.7a.862.862,0,0,1-.851-.851V31.541a.864.864,0,0,1,.851-.852h1.7a.864.864,0,0,1,.852.852V35.8h6.815V31.54a.864.864,0,0,1,.851-.852h1.7a.864.864,0,0,1,.852.852Z" transform="translate(-21.829 -21.837)" fill="#fff"/>
    </g>
  </g>
</svg>
