<svg xmlns="http://www.w3.org/2000/svg" width="454" height="454" viewBox="0 0 454 454">
  <g id="open-positions" transform="translate(-526.058 -1042.627)">
    <path id="Path_1" data-name="Path 1" d="M2743.687,3427.934c-33.479,22.429-62.1,53.13-83.663,89.625a82.755,82.755,0,0,0,0,84.33c21.561,36.5,50.184,67.2,83.659,89.625-25.865-38.6-40.727-83.648-40.727-131.79S2717.818,3466.529,2743.687,3427.934Z" transform="translate(-2122.418 -2290.096)" fill="#f5f9fd"/>
    <path id="Path_2" data-name="Path 2" d="M2818.941,3517.562c-21.563-36.494-50.188-67.2-83.665-89.628,25.868,38.6,40.732,83.652,40.732,131.79s-14.864,93.19-40.732,131.795c33.477-22.431,62.1-53.134,83.665-89.629A82.771,82.771,0,0,0,2818.941,3517.562Z" transform="translate(-1850.427 -2290.096)" fill="#f5f9fd"/>
    <path id="Path_3" data-name="Path 3" d="M2935.093,3500.11c-22.43-33.481-53.13-62.1-89.626-83.665a82.769,82.769,0,0,0-84.331,0c-36.5,21.56-67.192,50.184-89.626,83.665,38.6-25.866,83.648-40.731,131.788-40.731S2896.492,3474.244,2935.093,3500.11Z" transform="translate(-2050.242 -2362.272)" fill="#f5f9fd"/>
    <path id="Path_4" data-name="Path 4" d="M2671.508,3491.7c22.43,33.479,53.134,62.1,89.63,83.663a82.762,82.762,0,0,0,84.327,0c36.492-21.56,67.2-50.184,89.626-83.661-38.6,25.862-83.652,40.728-131.79,40.728S2710.111,3517.563,2671.508,3491.7Z" transform="translate(-2050.245 -2090.281)" fill="#f5f9fd"/>
  </g>
</svg>
