<svg xmlns="http://www.w3.org/2000/svg" width="67.776" height="95.892" viewBox="0 0 67.776 95.892">
  <path id="accountability" d="M15246,14006.892v-25h-24.316l0,25h-2.771v-27.772h4.172v-6.371l-12.694-12.69-1.875-2.1,1.7-1.044,1.129-.556a9.783,9.783,0,0,1,8.646.023l1.006.493v-15.966a4.43,4.43,0,0,1,1.309-3.2,4.377,4.377,0,0,1,3.093-1.263c.034,0,.076,0,.114,0h.027a4.388,4.388,0,0,1,.884.088l.826.153v-2.04a4.393,4.393,0,0,1,4.394-4.459c.042,0,.084,0,.123,0h.034a.908.908,0,0,1,.1,0,4.338,4.338,0,0,1,4.286,3.7l.106.734.728-.152a4.983,4.983,0,0,1,1.011-.107h.122a4.316,4.316,0,0,1,4.278,3.686l.111.727.716-.142a5.332,5.332,0,0,1,1.029-.106h.122a4.365,4.365,0,0,1,4.352,4.458v16.674c0,6.815-1.348,11.845-4,14.944l-.169.2v4.309h4.168v27.772Zm-31.905-48.606-1.32.234,13.08,13.084v7.516h15.981v-5.43l.409-.406c2.491-2.5,3.755-7.076,3.755-13.608v-16.628a1.6,1.6,0,0,0-.463-1.286,1.569,1.569,0,0,0-1.122-.463c-.042,0-.084,0-.122,0s-.084,0-.126,0a1.656,1.656,0,0,0-1.129.444l0,0a1.647,1.647,0,0,0-.513,1.286v11.775h-2.768v-15.928a1.625,1.625,0,0,0-.463-1.289l0,0a1.618,1.618,0,0,0-1.117-.456c-.038,0-.084,0-.134.008s-.088-.008-.134-.008a1.6,1.6,0,0,0-1.11.448,1.637,1.637,0,0,0-.521,1.286v15.942h-2.771v-20.091a1.588,1.588,0,0,0-1.584-1.753c-.043,0-.081,0-.127.008s-.088,0-.126,0a1.61,1.61,0,0,0-1.121.439,1.63,1.63,0,0,0-.521,1.282v20.114h-2.768v-13.842a1.615,1.615,0,0,0-.467-1.286,1.588,1.588,0,0,0-1.121-.459h-.064c-.02,0-.043,0-.058,0s-.046,0-.069,0h-.061a1.62,1.62,0,0,0-1.13.448,1.641,1.641,0,0,0-.517,1.278v20.118l-1.959,0-.4-.4a8.236,8.236,0,0,0-5.894-2.5A8.5,8.5,0,0,0,15214.1,13958.285Zm-12.824-15.308-12.533,6.59,2.4-13.941-10.138-9.9,14.007-2.043,6.269-12.687,6.265,12.687,14.015,2.035-10.142,9.9,2.392,13.941Zm8.519,1.068-1.626-9.487,6.892-6.72-9.521-1.382-4.263-8.634-4.264,8.618-9.525,1.4,6.9,6.72-1.626,9.487,8.519-4.478Z" transform="translate(-15180.998 -13911)" fill="#2d2e73"/>
</svg>
