<svg xmlns="http://www.w3.org/2000/svg" width="44.28" height="28.402" viewBox="0 0 44.28 28.402">
  <path id="cloud" d="M38.02,30.3a8.68,8.68,0,0,0-2.576.387,9.384,9.384,0,0,0-3.372-4.062A8.941,8.941,0,0,0,27.106,25.1a8.459,8.459,0,0,0-1.468.121,9.119,9.119,0,0,0-6.361-4.339,8.925,8.925,0,0,0-7.33,2.162A9.57,9.57,0,0,0,8.758,30.2v.721a9.322,9.322,0,0,0-5.529,6.2A9.692,9.692,0,0,0,4.7,45.4a9.034,9.034,0,0,0,7.291,3.774H38.02a9.077,9.077,0,0,0,7.906-4.718,9.709,9.709,0,0,0,0-9.436A9.077,9.077,0,0,0,38.02,30.3Zm0,17.355H11.995A7.6,7.6,0,0,1,5.78,44.333a8.139,8.139,0,0,1-1.015-7.153,7.782,7.782,0,0,1,5.027-5.025.76.76,0,0,0,.514-.85,6.475,6.475,0,0,1-.081-1.115,8.028,8.028,0,0,1,2.78-6.125A7.482,7.482,0,0,1,19.349,22.4a7.689,7.689,0,0,1,5.277,4,.727.727,0,0,0,.822.379,6.6,6.6,0,0,1,1.659-.159,7.518,7.518,0,0,1,4.431,1.468,7.932,7.932,0,0,1,2.8,3.842.75.75,0,0,0,.382.44.716.716,0,0,0,.572,0,7.253,7.253,0,0,1,2.73-.523A7.622,7.622,0,0,1,44.656,35.8a8.158,8.158,0,0,1,0,7.919,7.622,7.622,0,0,1-6.637,3.959Z" transform="translate(-2.869 -20.774)" fill="#2d2e73"/>
</svg>
