<svg xmlns="http://www.w3.org/2000/svg" width="73.175" height="70.498" viewBox="0 0 73.175 70.498">
  <path id="commitment" d="M15213.021,13983.5a7.016,7.016,0,0,1-6.526-6.3l-.03-.931-.931-.035a6.313,6.313,0,0,1-4.274-2.021,6.433,6.433,0,0,1-2.021-4.271l-.038-.923-.927-.034a6.309,6.309,0,0,1-4.263-2.026,6.791,6.791,0,0,1-1.854-3.087,5.829,5.829,0,0,1,.142-3.366,7.65,7.65,0,0,1,1.682-2.8l3.546-3.558-13.7-13.7,2.022-2.019,13.7,13.7,2.611-2.612a7.353,7.353,0,0,1,4.783-2.037,6.307,6.307,0,0,1,4.5,2.029,6.212,6.212,0,0,1,2.022,4.822,7.08,7.08,0,0,1-1.608,4.006l-.812.984,1.149.551a7.357,7.357,0,0,1,1.968,1.437,6.049,6.049,0,0,1,1.735,6.4l-.184.578,7.525,7.529.015.012a3.836,3.836,0,0,0,2.635,1.179,3.6,3.6,0,0,0,2.582-1.19,3.453,3.453,0,0,0,1.152-3.075,4.069,4.069,0,0,0-1.1-2.1l-.3-.322h-.016l-9.008-9.007,2.019-2.022,9.275,9.268.016.016a3.909,3.909,0,0,0,2.639,1.176,3.619,3.619,0,0,0,2.581-1.191,3.464,3.464,0,0,0,.176-5.051.9.9,0,0,0-.114-.119l-9.337-9.337,2.018-2.018,9.272,9.275.022.019a3.848,3.848,0,0,0,2.631,1.169,3.622,3.622,0,0,0,2.582-1.191,3.889,3.889,0,0,0,1.133-1.907,2.992,2.992,0,0,0-.114-1.616l0-.008a5.146,5.146,0,0,0-1.017-1.7l-24.379-24.39-5.338,5.343-.02.015a7.74,7.74,0,0,1-2.807,1.686l0,0a6.113,6.113,0,0,1-1.949.325,6.354,6.354,0,0,1-4.5-2.033,6.843,6.843,0,0,1-1.854-3.087,5.812,5.812,0,0,1,.149-3.366,8.045,8.045,0,0,1,1.708-2.83l5.334-5.331-3.726-3.727,2.018-2.021,3.727,3.718,5.343-5.33.022-.027a7.775,7.775,0,0,1,2.8-1.685,6.138,6.138,0,0,1,1.949-.33,6.382,6.382,0,0,1,4.508,2.042l5.335,5.334,1.911-1.907,2.021,2.022-3.933,3.934-7.365-7.361a3.492,3.492,0,0,0-2.489-1.2,3.209,3.209,0,0,0-1.03.18l-.015,0a5.183,5.183,0,0,0-1.7,1.017l-12.705,12.7-.019.023a4.2,4.2,0,0,0-1.122,2.083,4.041,4.041,0,0,0,3.627,4.328,3.149,3.149,0,0,0,1.041-.187,4.75,4.75,0,0,0,1.349-.717h.068l10.467-10.474,2.029,2.018-2.822,2.823,22.473,22.469,11.888-11.884,2.022,2.022-11.264,11.259.647.751-.743.548a7.581,7.581,0,0,1,1.072,2.049,5.842,5.842,0,0,1,.149,3.37,6.8,6.8,0,0,1-1.85,3.083,6.453,6.453,0,0,1-4.277,2.025l-.92.038-.038.919a6.379,6.379,0,0,1-2.025,4.278,6.288,6.288,0,0,1-4.271,2.019l-.935.034-.03.931a7,7,0,0,1-6.526,6.3,6.863,6.863,0,0,1-4.006-1.383l-.693-.513-3.492,3.492A7.036,7.036,0,0,1,15213.021,13983.5Zm1.044-12.812h0l-3.584,3.577a.007.007,0,0,1-.008,0l-.034.038a4.139,4.139,0,0,0-1.054,2.091,3.452,3.452,0,0,0,1.153,3.045,3.607,3.607,0,0,0,2.585,1.19,3.887,3.887,0,0,0,2.646-1.184l3.523-3.534-5.228-5.228Zm-4.4-8.555a4.554,4.554,0,0,0-2.749,1.188l-3.627,3.634-.012.012a3.459,3.459,0,0,0,.012,5.22l.009.008a3.622,3.622,0,0,0,2.473,1.184,4.51,4.51,0,0,0,2.727-1.172l2.728-2.723.08-.073.851-.857.011-.016a4.121,4.121,0,0,0,1.122-2.084,3.441,3.441,0,0,0-1.141-3.128A3.515,3.515,0,0,0,15209.662,13962.13Zm-2.723-11.8a4.48,4.48,0,0,0-2.635,1.08l-.034.023-5.435,5.435-2.811,2.818-.016.019a4.158,4.158,0,0,0-1.126,2.092,3.46,3.46,0,0,0,1.145,3.133,3.626,3.626,0,0,0,2.482,1.19,4.333,4.333,0,0,0,2.681-1.13l.019-.015.073-.073.138-.126v-.012l2.654-2.654.988-.98,2.447-2.454,1.91-1.915.023-.023a4.14,4.14,0,0,0,1.118-2.079,3.463,3.463,0,0,0-1.142-3.137A3.525,3.525,0,0,0,15206.939,13950.334Z" transform="translate(-15183.827 -13912.998)" fill="#2d2e73"/>
</svg>
