<svg xmlns="http://www.w3.org/2000/svg" width="32.323" height="30.684" viewBox="0 0 32.323 30.684">
  <g id="commercial" transform="translate(-245.541 -107.54)">
    <g id="Group_16234" data-name="Group 16234" transform="translate(116 -1646)">
      <path id="Path_22009" data-name="Path 22009" d="M7480.658-2382.316H7465v-1.822h2.433V-2413h18.549v5.244l8.91,4.044v19.574h2.431v1.822Zm12.413-1.822v-18.4l-7.088-3.219v21.618Zm-8.912,0v-27.041h-14.906v27.041h3.447v-7.545h7.956v7.545Zm-5.322,0v-5.721h-4.313v5.721Z" transform="translate(-7335.459 4166.539)" fill="#fff"/>
      <path id="Path_22014" data-name="Path 22014" d="M7489.707-2386.662v-1.822h2.15v1.822Zm-2.624,0v-1.822h2.15v1.822Zm2.624-2.624v-1.821h2.15v1.821Zm-2.624,0v-1.821h2.15v1.821Zm2.624-2.622v-1.823h2.15v1.823Zm-2.624,0v-1.823h2.15v1.823Zm2.624-2.625v-1.822h2.15v1.822Zm-2.624,0v-1.822h2.15v1.822Zm-15.879,0v-1.823h10.611v1.823Zm18.5-2.625v-1.821h2.15v1.821Zm-2.624,0v-1.821h2.15v1.821Zm-15.879-.647v-1.823h10.611v1.823Zm18.5-1.974v-1.823h2.15v1.823Zm-2.624,0v-1.823h2.15v1.823Zm-15.879-1.3v-1.821h10.611v1.821Zm0-2.945v-1.821h10.611v1.821Zm0-3.271v-1.822h10.611v1.822Z" transform="translate(-7335.459 4166.539)" fill="#0e92d9"/>
    </g>
  </g>
</svg>
