<svg xmlns="http://www.w3.org/2000/svg" width="34.646" height="29.223" viewBox="0 0 34.646 29.223">
  <g id="computer" transform="translate(-0.001 0)">
    <path id="Path_21886" data-name="Path 21886" d="M33.678,8.664H2.968A1.97,1.97,0,0,0,1,10.632V31.406a1.97,1.97,0,0,0,1.968,1.968H13.646v3.291h-3a.612.612,0,1,0,0,1.225H26a.612.612,0,1,0,0-1.225H23V33.372H33.679A1.97,1.97,0,0,0,35.647,31.4V10.632a1.97,1.97,0,0,0-1.968-1.968Zm-11.9,24.709v3.291h-6.9V33.373ZM2.227,27.05H34.419v4.355a.743.743,0,0,1-.742.742H2.968a.743.743,0,0,1-.742-.742ZM2.968,9.89H33.677a.743.743,0,0,1,.742.742V25.824H2.227V10.632a.743.743,0,0,1,.742-.742Z" transform="translate(-1 -8.664)" fill="#2d2e73"/>
    <path id="Path_21887" data-name="Path 21887" d="M48.053,67a1.065,1.065,0,1,0-1.065-1.065A.928.928,0,0,0,48.053,67Z" transform="translate(-30.73 -45.002)" fill="#2d2e73"/>
  </g>
</svg>
