<svg xmlns="http://www.w3.org/2000/svg" width="35.922" height="29.223" viewBox="0 0 35.922 29.223">
  <path id="diamond" d="M40.771,22.52,37.25,13.763a.575.575,0,0,0-.533-.36H26.907a.569.569,0,0,0-.1-.016l-7.692,0H9.684a.575.575,0,0,0-.522.335l-4.01,8.792a.57.57,0,0,0,.086.85L22.432,42.3a.457.457,0,0,0,.036.067.577.577,0,0,0,.471.245h.033a.582.582,0,0,0,.137-.019l.039-.012a.533.533,0,0,0,.1-.042.147.147,0,0,1,.023-.009s.008-.008.011-.009a.624.624,0,0,0,.117-.1L40.773,23.29a.575.575,0,0,0,.1-.619.732.732,0,0,0-.1-.151ZM19.522,14.536H26.41l2.711,7.776H16.81Zm-9.469,0h8.238L15.58,22.312H6.506Zm-3.166,8.94h8.722l5.8,15.991ZM22.952,40.311,16.844,23.476H29.058Zm1.522-.786L30.3,23.477H39.05Zm5.873-17.2-2.711-7.777h8.693l3.129,7.777Z" transform="translate(-5 -13.388)" fill="#2d2e73"/>
</svg>
