<svg xmlns="http://www.w3.org/2000/svg" width="23.45" height="26.456" viewBox="0 0 23.45 26.456">
  <path id="drugs" d="M28.688,32.456c-2.891,0-5.751-2.378-5.751-6.655V21.353a8.013,8.013,0,0,1-3.827.979A8.167,8.167,0,0,1,19.11,6a8.025,8.025,0,0,1,5.327,2.021A5.531,5.531,0,0,1,30.3,6.239c2.269.692,4.148,2.942,4.148,6.416V25.8c0,4.277-2.87,6.655-5.761,6.655Zm0-1.333c2.2,0,4.438-1.616,4.438-5.322V19.895H24.261V25.8c0,3.706,2.222,5.322,4.427,5.322ZM19.11,21a6.684,6.684,0,0,0,3.827-1.2V18.436L12.551,12.406a6.9,6.9,0,0,0-.228,1.76A6.794,6.794,0,0,0,19.109,21Zm5.151-2.437h8.865V12.656c0-3.01-1.482-4.609-3.207-5.136A4.189,4.189,0,0,0,25.1,9.354a6.478,6.478,0,0,0-.837,3.3ZM22.938,16.9v-1l-9.5-5.51a6.732,6.732,0,0,0-.413.75Zm0-2.541v-1.7a7.812,7.812,0,0,1,.766-3.51,6.756,6.756,0,0,0-9.414.2Z" transform="translate(-11 -6)" fill-rule="evenodd"/>
</svg>
