<svg xmlns="http://www.w3.org/2000/svg" width="40.768" height="35.356" viewBox="0 0 40.768 35.356">
  <path id="home" d="M5.76,35.356a.692.692,0,0,1-.708-.709V12.907L1.13,15.837l-.015.015a.512.512,0,0,1-.4.13.762.762,0,0,1-.589-.271L.117,15.7a.737.737,0,0,1,.164-.976l0,0L19.952.145A.846.846,0,0,1,20.406,0a.7.7,0,0,1,.418.138L40.5,14.724a.678.678,0,0,1,.262.478.619.619,0,0,1-.172.485l-.015.015-.013.024a.63.63,0,0,1-.544.292.679.679,0,0,1-.422-.145l-3.914-2.922,0,21.7a.694.694,0,0,1-.711.709Zm18.512-11.6a5.458,5.458,0,0,1,1.619,3.881v6.388h8.375V11.905L20.392,1.589,6.517,11.905V34.023h8.376V27.636a5.488,5.488,0,0,1,9.379-3.881Zm-7.917,3.881v6.388h8.073V27.636a4.037,4.037,0,0,0-8.073,0Z" fill="#2d2e73"/>
</svg>
