<svg xmlns="http://www.w3.org/2000/svg" width="27.145" height="14.799" viewBox="0 0 27.145 14.799">
  <path id="hospital" d="M4593.879,10953.955a1.2,1.2,0,0,1-1.18-1.18v-.819h-18.248v.91a1.188,1.188,0,0,1-1.18,1.089h-2.089a1.19,1.19,0,0,1-1.179-1.089v-12.53a1.2,1.2,0,0,1,1.179-1.18h2.089a1.2,1.2,0,0,1,1.18,1.18v.483a2.18,2.18,0,0,1,1.633-.756h2a2.21,2.21,0,0,1,2.18,2.178,2.129,2.129,0,0,1-.253,1h16.049a1.125,1.125,0,0,1,1.089,1.179v8.354a1.125,1.125,0,0,1-1.089,1.18Zm-22.7-1.18h2.089v-12.439h-2.089Zm22.79-.091h2v-8.264h-2Zm-19.521-1.907H4592.7v-.819h-18.248Zm7.716-2.087H4592.7v-4.27h-10.532Zm-7.716,0h6.537v-4.27h-6.537Zm3.631-5.448a1,1,0,0,0,0-2h-2a1,1,0,0,0,0,2Z" transform="translate(-4570.003 -10939.156)"/>
</svg>
