<svg xmlns="http://www.w3.org/2000/svg" width="86.829" height="68.687" viewBox="0 0 86.829 68.687">
  <path id="integrity" d="M15238.271,13981.323h-24.5v-9.9l10.7-7.788.287-.211v-41.318l-26.241-6.124,9.344,27.038.2.848.042.076a1.264,1.264,0,0,1,.153.533l-.008.211v.019a25.839,25.839,0,0,1-.655,3.224,15.674,15.674,0,0,1-.916,2.525,13.992,13.992,0,0,1-1.107,1.993,11.115,11.115,0,0,1-1.3,1.6c-.252.255-.527.509-.82.755a10.044,10.044,0,0,1-.878.651l-.007,0a8.866,8.866,0,0,1-.947.56,10.935,10.935,0,0,1-1.027.472,11.886,11.886,0,0,1-2.346.659,16.546,16.546,0,0,1-5.63,0,11.727,11.727,0,0,1-2.345-.659c-.364-.146-.7-.3-1.027-.468-.352-.187-.663-.373-.954-.567a9.467,9.467,0,0,1-.882-.655,9.746,9.746,0,0,1-.812-.743,11.518,11.518,0,0,1-1.38-1.694,14.587,14.587,0,0,1-1.157-2.142l-.008-.02c-.066-.156-.144-.338-.215-.518l-.033-.091c-.062-.163-.125-.335-.178-.484a19.368,19.368,0,0,1-.582-2c-.172-.712-.321-1.519-.444-2.4a.076.076,0,0,1,0-.013.106.106,0,0,1,0-.025h0l0,0,0-.115a1.234,1.234,0,0,1,.211-.713l.057-.088.227-.771,12.18-30.35,29.491,6.88v-6.665h2.518v7.251l29.638,6.918,12.03,29.146.149.5.072.1a1.245,1.245,0,0,1,.257.743v.016a.248.248,0,0,0,0,.028c0,.01,0,.02,0,.029l0,.1a25.734,25.734,0,0,1-.659,3.219,16.3,16.3,0,0,1-.912,2.529,13.637,13.637,0,0,1-1.111,1.989,11.3,11.3,0,0,1-1.3,1.6l0,0a10.76,10.76,0,0,1-.812.747c-.291.238-.586.459-.878.655-.325.211-.646.4-.954.563-.34.173-.679.327-1.034.472a11.909,11.909,0,0,1-2.342.659,16.814,16.814,0,0,1-5.63,0,11.832,11.832,0,0,1-2.346-.663,11.261,11.261,0,0,1-1.031-.468,10.568,10.568,0,0,1-.954-.567,9.505,9.505,0,0,1-.874-.644c-.288-.239-.564-.491-.82-.751a11.633,11.633,0,0,1-1.368-1.694,14.046,14.046,0,0,1-1.157-2.143l-.012-.019c-.068-.152-.138-.317-.211-.506l0-.016-.014-.035c-.067-.174-.138-.359-.2-.536a18.91,18.91,0,0,1-.583-2c-.183-.8-.33-1.6-.44-2.392a1.253,1.253,0,0,1,.165-.794l.05-.089.245-1.011,9.436-26.935-26.376-6.155v40.731l10.992,8v9.895Zm-12.25-15.687h0l-9.734,7.078v6.091h19.466v-6.091l-9.731-7.078Zm20.459-6.867.207.866a15.856,15.856,0,0,0,.476,1.6c.056.17.116.333.184.5s.131.322.188.452a11.578,11.578,0,0,0,.959,1.763,8.237,8.237,0,0,0,1.062,1.314,7.674,7.674,0,0,0,.62.567,7.454,7.454,0,0,0,.663.49,6.9,6.9,0,0,0,.729.43,8.251,8.251,0,0,0,.789.356,9.537,9.537,0,0,0,1.848.518,13.85,13.85,0,0,0,4.771,0,9.135,9.135,0,0,0,1.855-.521,8.553,8.553,0,0,0,.793-.36,7.947,7.947,0,0,0,.721-.425,6.849,6.849,0,0,0,.671-.5c.189-.156.386-.336.616-.567l.008-.007a8.7,8.7,0,0,0,1-1.23,11.189,11.189,0,0,0,.912-1.633,13.731,13.731,0,0,0,.77-2.139c.063-.216.116-.423.161-.617l.2-.858Zm9.21-28.107h0l-8.965,25.586h19.527l-10.562-25.586Zm-70.369,15.143.211.862a16.6,16.6,0,0,0,.479,1.613l.041.11c.044.122.091.248.136.365.051.139.113.289.191.459a12.151,12.151,0,0,0,.951,1.768,8.9,8.9,0,0,0,1.062,1.3,7.938,7.938,0,0,0,.62.571c.191.156.409.317.667.494a8.283,8.283,0,0,0,.729.426c.233.119.5.239.781.356l.008,0a9.134,9.134,0,0,0,1.852.517,14.112,14.112,0,0,0,4.771,0,9.435,9.435,0,0,0,1.844-.517,8.661,8.661,0,0,0,.8-.364,7.61,7.61,0,0,0,1.391-.916,7.458,7.458,0,0,0,.625-.575,8.31,8.31,0,0,0,1.008-1.234,12.02,12.02,0,0,0,.912-1.629,13.912,13.912,0,0,0,.771-2.149c.036-.13.069-.258.1-.382l.044-.168.012-.044.223-.87Zm10.9-28.752h0l-10.523,26.229h19.588l-9.064-26.229Z" transform="translate(-15182.596 -13912.637)" fill="#2d2e73"/>
</svg>
