<svg xmlns="http://www.w3.org/2000/svg" width="18.518" height="27.305" viewBox="0 0 18.518 27.305">
  <g id="life-science" transform="translate(-781 -1409)">
    <path id="Path_22012" data-name="Path 22012" d="M7480.93-2385.772l-.047-.094a7.48,7.48,0,0,0-2.688-2.99,7.333,7.333,0,0,0-3.937-1.145,7.337,7.337,0,0,0-3.937,1.145,7.494,7.494,0,0,0-2.69,2.99l-.047.094h-2.022l.094-.234a9.375,9.375,0,0,1,2-3.054,9.3,9.3,0,0,1,2.665-1.908,9.2,9.2,0,0,1-1.937-1.233,9.366,9.366,0,0,1-1.793-1.981,9.28,9.28,0,0,1-1.592-5.2,9.281,9.281,0,0,1,1.592-5.2,9.363,9.363,0,0,1,1.794-1.982,9.176,9.176,0,0,1,1.937-1.233,9.327,9.327,0,0,1-2.664-1.894,9.225,9.225,0,0,1-2-3.069l-.092-.233h2.021l.047.094a7.48,7.48,0,0,0,2.688,2.989,7.33,7.33,0,0,0,3.938,1.145,7.3,7.3,0,0,0,3.937-1.158,7.6,7.6,0,0,0,2.69-2.976l.047-.094h2.023l-.094.234a9.364,9.364,0,0,1-2,3.054,9.3,9.3,0,0,1-2.665,1.909,9.248,9.248,0,0,1,3.729,3.2,9.277,9.277,0,0,1,1.592,5.217,9.282,9.282,0,0,1-1.592,5.218,9.255,9.255,0,0,1-3.729,3.2,9.3,9.3,0,0,1,2.664,1.908,9.368,9.368,0,0,1,2,3.055l.094.233Zm-9.545-20.473a7.421,7.421,0,0,0-2.354,1.6,7.475,7.475,0,0,0-1.591,2.368,7.4,7.4,0,0,0-.584,2.891,7.4,7.4,0,0,0,.584,2.891,7.476,7.476,0,0,0,1.591,2.369,7.421,7.421,0,0,0,2.354,1.6,7.274,7.274,0,0,0,2.874.587,7.275,7.275,0,0,0,2.874-.587,7.412,7.412,0,0,0,2.355-1.6,7.468,7.468,0,0,0,1.591-2.369,7.387,7.387,0,0,0,.584-2.891,7.39,7.39,0,0,0-.584-2.891,7.467,7.467,0,0,0-1.591-2.368,7.412,7.412,0,0,0-2.355-1.6,7.275,7.275,0,0,0-2.874-.587A7.274,7.274,0,0,0,7471.385-2406.245Z" transform="translate(-6684 3822)" fill="#fff"/>
    <path id="Path_22013" data-name="Path 22013" d="M7470.492-2385.695v-1.933h7.535v1.932h-7.535Zm0-9.468v-1.932h7.535v1.932h-7.535Zm-1.7-3.408v-1.932h10.943v1.931h-10.943Zm1.7-3.408v-1.931h7.535v1.932Zm0-9.088V-2413h7.535v1.931h-7.535Z" transform="translate(-6684 3822)" fill="#0e92d9"/>
  </g>
</svg>
