<svg xmlns="http://www.w3.org/2000/svg" width="11.549" height="11.549" viewBox="0 0 11.549 11.549">
  <path id="linkedin" d="M.145,11.441q0-3.8,0-7.588c0-.029,0-.056.005-.09H2.614v7.781c-.032,0-.063,0-.1,0-.756,0-1.513,0-2.269,0C.168,11.549.145,11.526.145,11.441Zm8.931.106V7.435a3.37,3.37,0,0,0-.1-.888,1.282,1.282,0,0,0-.406-.684,1.131,1.131,0,0,0-.913-.233A1.341,1.341,0,0,0,6.526,6.661a1.971,1.971,0,0,0-.052.583c0,1.387,0,2.775,0,4.161v.132H4V3.762H6.472V4.84c.1-.137.183-.254.271-.367a2.281,2.281,0,0,1,1.494-.864,3.055,3.055,0,0,1,1.56.162,2.373,2.373,0,0,1,1.028.771A3.5,3.5,0,0,1,11.5,6.3c.018.147.037.292.053.438v4.809ZM.677,2.52A1.263,1.263,0,0,1,.02,1.586C.015,1.564.007,1.545,0,1.523V1.176c.009-.04.02-.079.03-.119A1.278,1.278,0,0,1,1.14.019,1.552,1.552,0,0,1,2.135.18,1.342,1.342,0,0,1,2.758,1.6a1.22,1.22,0,0,1-.873,1.006,1.672,1.672,0,0,1-.516.085A1.472,1.472,0,0,1,.677,2.52Z" fill="#93989b"/>
</svg>
