<svg xmlns="http://www.w3.org/2000/svg" width="64.999" height="65" viewBox="0 0 64.999 65">
  <path id="logo" d="M9052.472-6588.744A34.6,34.6,0,0,0,9071-6583.35a34.582,34.582,0,0,0,18.528-5.394c-5.33,8.455-13.408,13.472-18.528,13.472S9057.8-6580.289,9052.472-6588.744Zm42.451-18.528a34.587,34.587,0,0,0-5.394-18.528c8.455,5.33,13.472,13.411,13.472,18.528s-5.017,13.2-13.472,18.528A34.593,34.593,0,0,0,9094.923-6607.271Zm-55.921,0c0-5.12,5.015-13.2,13.47-18.528a34.57,34.57,0,0,0-5.394,18.528,34.568,34.568,0,0,0,5.394,18.525C9044.017-6594.076,9039-6602.154,9039-6607.271Zm11.976.982c0-3.482,1.769-6.3,5.318-6.3,2.548,0,4.247,1.291,4.332,3.925h-1.565a2.44,2.44,0,0,0-2.767-2.481c-2.328,0-3.635,1.9-3.635,4.825,0,3.347,1.441,4.978,3.667,4.978a4.794,4.794,0,0,0,3.415-1.5l.9,1.053a6.022,6.022,0,0,1-4.416,1.853C9052.593-6599.936,9050.978-6602.688,9050.978-6606.289Zm32.427,6.15v-12.229h7.4v1.425h-5.825V-6607h5.146v1.428h-5.146v5.435Zm-10.072,0v-12.229h7.763v1.425h-6.182v3.873h5.638v1.428h-5.638v4.094h6.316v1.41Zm-3.585,0-2.5-4.857a7.256,7.256,0,0,1-1.256.1h-1.851v4.756h-1.581v-12.229h3.976c2.9,0,4.244,1.444,4.244,3.65a3.4,3.4,0,0,1-2.02,3.331l2.719,5.248Zm-5.6-6.082h2.223c1.9,0,2.821-.85,2.821-2.462,0-1.529-.834-2.31-2.7-2.31h-2.344ZM9071-6631.2a34.58,34.58,0,0,0-18.527,5.4c5.33-8.455,13.41-13.472,18.527-13.472s13.2,5.017,18.528,13.472A34.584,34.584,0,0,0,9071-6631.2Z" transform="translate(-9038.502 6639.771)" fill="#fff" stroke="rgba(0,0,0,0)" stroke-width="1"/>
</svg>
