<svg xmlns="http://www.w3.org/2000/svg" width="27.059" height="25.634" viewBox="0 0 27.059 25.634">
  <path id="mri" d="M35.391,25.318a12.818,12.818,0,0,1-23.183,7.541.712.712,0,0,1,1.151-.838,11.392,11.392,0,1,0-.841-12.063.712.712,0,1,1-1.255-.672,12.819,12.819,0,0,1,24.128,6.032Zm-8.545,1.425a2.849,2.849,0,1,1,2.848-2.849,2.848,2.848,0,0,1-2.848,2.849Zm0-1.425a1.424,1.424,0,1,0-1.425-1.425,1.424,1.424,0,0,0,1.425,1.425ZM9.045,29.59a.711.711,0,0,1-.713-.712V25.318a2.852,2.852,0,0,1,2.849-2.848H21.862a.711.711,0,0,1,.712.712v4.984h6.409a.712.712,0,0,1,0,1.425Zm.712-1.425H21.149V23.893H11.181a1.427,1.427,0,0,0-1.425,1.425Z" transform="translate(-8.332 -12.501)"/>
</svg>
