<svg xmlns="http://www.w3.org/2000/svg" width="24.899" height="27.384" viewBox="0 0 24.899 27.384">
  <g id="operating-room" transform="translate(-8.332 -4.18)">
    <path id="Path_21957" data-name="Path 21957" d="M31.986,52.082H17.669a2.472,2.472,0,0,0-1.867.861,2.472,2.472,0,0,0-1.867-.861H9.577a1.247,1.247,0,0,0-1.245,1.245V56.44a.624.624,0,0,0,.623.622h7.469v1.867a.622.622,0,0,0,.622.622h1.867v4.357H17.047a.622.622,0,1,0,0,1.244h7.469a.622.622,0,0,0,0-1.244H22.649V59.551h1.867a.622.622,0,0,0,.622-.622V57.062h6.847a1.247,1.247,0,0,0,1.245-1.245V53.327a1.247,1.247,0,0,0-1.245-1.245ZM9.577,53.327h4.357a1.247,1.247,0,0,1,1.245,1.245v1.245h-5.6ZM21.4,63.909H20.159V59.551H21.4Zm2.489-5.6H17.669V57.062h6.225Zm.622-2.489h-8.09V54.573a1.246,1.246,0,0,1,1.244-1.245H31.986v2.489Z" transform="translate(0 -33.59)"/>
    <path id="Path_21958" data-name="Path 21958" d="M27.762,7.831a2.489,2.489,0,0,0,2.223,3.6,2.519,2.519,0,0,0,.948-.189A2.465,2.465,0,0,0,33.326,13.1a2.519,2.519,0,0,0,.948-.189A2.481,2.481,0,0,0,38.9,13.4a.622.622,0,0,0,.557-1.113l-.033-.016a5.608,5.608,0,0,0-2.137-6.579l.251-.251H43.5a.623.623,0,0,0,0-1.245H37.277a.621.621,0,0,0-.44.182l-.69.69-.592-.3h0a5.613,5.613,0,0,0-7.206,1.965l-.033-.016a.622.622,0,1,0-.557,1.113Zm1.67,2.227a1.247,1.247,0,0,1-.557-1.67L31.1,9.5a1.245,1.245,0,0,1-1.67.557Zm3.34,1.67h0a1.247,1.247,0,0,1-.558-1.67l2.227,1.113a1.244,1.244,0,0,1-1.669.557Zm4.29,1.738h0a1.245,1.245,0,0,1-1.507-1.738l2.227,1.113a1.236,1.236,0,0,1-.72.624ZM35,5.882l1.113.557a4.368,4.368,0,0,1,2.187,5.27l-1.845-.922-.9-.449-2.62-1.311L29.472,7.294A4.365,4.365,0,0,1,35,5.882Z" transform="translate(-13.383)"/>
  </g>
</svg>
