<svg xmlns="http://www.w3.org/2000/svg" width="30.614" height="32.58" viewBox="0 0 30.614 32.58">
  <g id="public-sector" transform="translate(3674 -3188)">
    <path id="np_government-building_1818929_000000" d="M5,34.912v1.769H35.614V34.912ZM33.913,22.538H7.076V18.081l4.66-1.258V13.489c.035-4.762,3.5-7.586,7.858-7.926V4.1h1.769V5.564c4.354.34,7.824,3.164,7.858,7.926v3.334l4.695,1.257ZM13.742,11.788h13.5A5.49,5.49,0,0,0,25.51,9a7.789,7.789,0,0,0-5.035-1.666,7.452,7.452,0,0,0-5,1.666,5.363,5.363,0,0,0-1.734,2.789ZM13.5,16.347l6.973-1.871,6.973,1.871V13.558H13.5ZM32.11,19.441,20.477,16.312,8.844,19.441v1.326H32.077Z" transform="translate(-3679 3183.899)" fill="#fff"/>
    <path id="np_government-building_1818929_000000-2" data-name="np_government-building_1818929_000000" d="M10.545,24.3v6.633h3.639V24.3h1.769v6.633h3.674V24.3H21.4v6.633h3.639V24.3H26.8v6.633h3.639V24.3h1.769v6.633h1.7V32.7H7.076V30.933H8.742V24.3Z" transform="translate(-3679 3183.899)" fill="#0e92d9"/>
  </g>
</svg>
