<svg xmlns="http://www.w3.org/2000/svg" width="28.553" height="20.294" viewBox="0 0 28.553 20.294">
  <path id="pulse" d="M14.654,34.67c.611.622,1.371,1.327,2.4,2.234.17.151.524.462,1.123.986.11.1.588.515.7.612l.449.4c.941.828,1.7,1.508,2.435,2.19a1.9,1.9,0,0,0,.335.25,2.365,2.365,0,0,0,.3.153l-.178-.087a3.1,3.1,0,0,0,2.743,0l-.208.1a2.27,2.27,0,0,0,.316-.153,1.986,1.986,0,0,0,.346-.255c.739-.684,1.5-1.366,2.441-2.2l.449-.4c.114-.1.592-.517.7-.614.6-.523.952-.834,1.122-.984,1.025-.907,1.785-1.612,2.4-2.234H30.143c-.33.3-.7.631-1.1.993s-1.952,1.711-2.273,1.992c-.921.811-1.7,1.508-2.471,2.224a.562.562,0,0,1-.144.083,1.51,1.51,0,0,1-1.116,0,.625.625,0,0,1-.151-.088c-.771-.714-1.547-1.411-2.464-2.219-.32-.281-1.872-1.637-2.273-1.992s-.774-.688-1.1-.993Zm-2.86-4.551a7.4,7.4,0,0,1-.2-1.756,6.677,6.677,0,0,1,6.6-6.934,7.072,7.072,0,0,1,5.4,2.648,7.072,7.072,0,0,1,5.4-2.648,6.677,6.677,0,0,1,6.6,6.934,7.4,7.4,0,0,1-.2,1.756H33.67a5.564,5.564,0,0,0,.267-1.756,5.026,5.026,0,0,0-4.945-5.279,5.424,5.424,0,0,0-4.111,2.03l-1.289,1.6-1.289-1.6a5.424,5.424,0,0,0-4.111-2.03,5.026,5.026,0,0,0-4.945,5.279,5.564,5.564,0,0,0,.267,1.756Zm16.264,1.658-1.851-4.069a.827.827,0,0,0-1.566.187l-1.2,6.284-.974-1.947a.829.829,0,0,0-.74-.458H10.352a.828.828,0,1,0,0,1.655H21.22l1.84,3.68a.827.827,0,0,0,1.553-.215l1.173-6.117.984,2.167a.829.829,0,0,0,.754.485h9.725a.828.828,0,1,0,0-1.655Z" transform="translate(-9.523 -21.429)" fill-rule="evenodd"/>
</svg>
