<svg xmlns="http://www.w3.org/2000/svg" width="79" height="80" viewBox="0 0 79 80">
  <g id="quote" transform="translate(-210 -3481)">
    <path id="quote-border" d="M99,60c0,22-17.775,40-39.5,40a39.257,39.257,0,0,1-21.067-6.135l-14.88,6a2.179,2.179,0,0,1-.921.135,2.565,2.565,0,0,1-1.841-.8,2.494,2.494,0,0,1-.525-2.8l5.791-15.063A40.5,40.5,0,0,1,20,60c0-22,17.775-40,39.5-40S99,38,99,60Zm-5.267,0c0-19.068-15.4-34.667-34.233-34.667S25.268,40.932,25.268,60a35.267,35.267,0,0,0,5.925,19.469A2.461,2.461,0,0,1,31.455,82L27.371,92.667,37.9,88.532a2.179,2.179,0,0,1,.921-.135,2.653,2.653,0,0,1,1.45.4A35.12,35.12,0,0,0,59.5,94.667c18.83,0,34.233-15.6,34.233-34.667Z" transform="translate(189.999 3461)" fill="#0e92d9"/>
    <path id="quote-2" data-name="quote" d="M82.017,55.6c0,5.734-8.692,15.068-11.588,18.136a2.811,2.811,0,0,1-4.084-3.865,51.875,51.875,0,0,0,3.425-4.135A10.356,10.356,0,1,1,82.017,55.6ZM47.255,45.333A10.389,10.389,0,0,0,45.146,65.87a50.77,50.77,0,0,1-3.425,4.135A2.811,2.811,0,0,0,45.8,73.87c2.9-3.2,11.588-12.4,11.588-18.136a10.071,10.071,0,0,0-10.137-10.4Z" transform="translate(189.999 3461)" fill="#2d2e73"/>
  </g>
</svg>
