<svg xmlns="http://www.w3.org/2000/svg" width="40.512" height="38.93" viewBox="0 0 40.512 38.93">
  <g id="real-estate" transform="translate(-0.852 -2.781)">
    <path id="Path_21950" data-name="Path 21950" d="M41.035,18.874l-4.842-4.251V3.747a.966.966,0,0,0-.966-.966h-6.34a.967.967,0,0,0-.966.966V7.364L23.892,3.828a4.223,4.223,0,0,0-5.556,0L1.193,18.874a.966.966,0,1,0,1.274,1.453l.828-.726V36.742a4.976,4.976,0,0,0,4.97,4.97h25.7a4.976,4.976,0,0,0,4.97-4.97V19.6l.828.726a.966.966,0,1,0,1.274-1.453ZM29.852,4.713H34.26v8.215L29.852,9.06ZM27.234,39.782H14.994V21.513H27.234ZM37,36.741a3.041,3.041,0,0,1-3.037,3.037h-4.8V20.547a.967.967,0,0,0-.966-.966H14.028a.967.967,0,0,0-.966.966V39.782h-4.8a3.041,3.041,0,0,1-3.037-3.04V17.9L19.609,5.279a2.288,2.288,0,0,1,3.008,0L37,17.9Z" transform="translate(0)" fill="#2d2e73"/>
  </g>
</svg>
