<svg xmlns="http://www.w3.org/2000/svg" width="26" height="26" viewBox="0 0 26 26">
  <path id="search" d="M889.85-1908.051l.647-1.172a10.976,10.976,0,0,0,0-10.656,10.968,10.968,0,0,0-6.6-5.275,10.969,10.969,0,0,0-8.4.937,11.048,11.048,0,0,0-4.34,14.994,11.056,11.056,0,0,0,15,4.338l1.173-.646,5.939,5.937,2.519-2.519Zm-9.032,1.687a8.206,8.206,0,0,1-8.2-8.2,8.206,8.206,0,0,1,8.2-8.2,8.206,8.206,0,0,1,8.2,8.2A8.207,8.207,0,0,1,880.818-1906.364Z" transform="translate(-869.789 1925.594)" fill="#0e92d9"/>
</svg>
