<svg xmlns="http://www.w3.org/2000/svg" width="20" height="23" viewBox="0 0 20 23">
  <path id="share" d="M21.667,16.1a3.654,3.654,0,0,0-1.889.575L11.556,12.42a2.615,2.615,0,0,0,.111-.92c0-.345-.111-.69-.111-.92l8.222-4.255a3.654,3.654,0,0,0,1.889.575A3.333,3.333,0,0,0,25,3.45a3.335,3.335,0,1,0-6.667,0c0,.345.111.69.111.92L10.222,8.625A3.654,3.654,0,0,0,8.333,8.05,3.333,3.333,0,0,0,5,11.5a3.333,3.333,0,0,0,3.333,3.45,3.654,3.654,0,0,0,1.889-.575l8.222,4.255a2.615,2.615,0,0,0-.111.92,3.335,3.335,0,1,0,6.667,0A3.4,3.4,0,0,0,21.667,16.1Z" transform="translate(-5)" fill="#fff"/>
</svg>
