<svg xmlns="http://www.w3.org/2000/svg" width="42.529" height="31.703" viewBox="0 0 42.529 31.703">
  <path id="stack-money" d="M6.774,16A2.8,2.8,0,0,0,4,18.8V37.446a2.8,2.8,0,0,0,2.774,2.8H7.7v.932a2.8,2.8,0,0,0,2.774,2.8H11.4v.932a2.8,2.8,0,0,0,2.774,2.8H43.755a2.8,2.8,0,0,0,2.774-2.8V26.257a2.8,2.8,0,0,0-2.774-2.8H42.83v-.932a2.8,2.8,0,0,0-2.774-2.8h-.925V18.8A2.8,2.8,0,0,0,36.359,16Zm0,1.865h3.236a4.638,4.638,0,0,1-4.16,4.648V18.8A.906.906,0,0,1,6.774,17.865Zm5.085,0H31.274a6.521,6.521,0,0,0,6.009,6.513v7.5a6.507,6.507,0,0,0-6.009,6.5H11.859a6.508,6.508,0,0,0-6.009-6.5v-7.5a6.521,6.521,0,0,0,6.009-6.513Zm21.264,0h3.236a.906.906,0,0,1,.925.932v3.715A4.638,4.638,0,0,1,33.123,17.865Zm6.009,3.73h.925a.906.906,0,0,1,.925.932V41.176a.906.906,0,0,1-.925.932H10.472a.906.906,0,0,1-.925-.932v-.932H36.359a2.8,2.8,0,0,0,2.774-2.8Zm-17.566.932a5.595,5.595,0,1,0,5.547,5.595A5.584,5.584,0,0,0,21.566,22.527Zm0,1.865a3.73,3.73,0,1,1-3.7,3.73A3.7,3.7,0,0,1,21.566,24.392Zm21.264.932h.925a.906.906,0,0,1,.925.932V44.906a.906.906,0,0,1-.925.932H14.17a.906.906,0,0,1-.925-.932v-.932H40.057a2.8,2.8,0,0,0,2.774-2.8ZM5.849,33.745a4.624,4.624,0,0,1,4.16,4.633H6.774a.906.906,0,0,1-.925-.932Zm31.42,0h.014v3.7a.906.906,0,0,1-.925.932H33.123a4.625,4.625,0,0,1,4.146-4.633Z" transform="translate(-4 -16)" fill="#2d2e73"/>
</svg>
