<svg xmlns="http://www.w3.org/2000/svg" width="26.561" height="43.825" viewBox="0 0 26.561 43.825">
  <path id="thunder" d="M9174.053,12967.324a1.136,1.136,0,0,1-1.061-1.536l7.69-19.23h-8.055a1.136,1.136,0,0,1-1.064-1.511l7.654-20.789a1.144,1.144,0,0,1,1.067-.759h16.641a1.138,1.138,0,0,1,1.016,1.644l-7.5,14.987h6.477a1.146,1.146,0,0,1,1.012.647l.013.029a1.142,1.142,0,0,1-.186,1.214l-22.865,24.942A1.153,1.153,0,0,1,9174.053,12967.324Zm8.313-23.038a1.136,1.136,0,0,1,1.051,1.556l-5.5,13.747.416.26,16-17.447H9188.6a1.132,1.132,0,0,1-.97-.54,1.146,1.146,0,0,1-.052-1.1l7.5-14.987h-14l-6.828,18.516Z" transform="translate(-9171.5 -12923.499)" fill="#2d2e73"/>
</svg>
