<svg xmlns="http://www.w3.org/2000/svg" width="12" height="10" viewBox="0 0 12 10">
  <path id="twitter" d="M12,1.154a4.351,4.351,0,0,1-1.425.385A2.167,2.167,0,0,0,11.625.154,4.847,4.847,0,0,1,10.05.769,2.587,2.587,0,0,0,8.25,0a2.517,2.517,0,0,0-2.4,2.538,1.167,1.167,0,0,0,.075.538A6.844,6.844,0,0,1,.825.462a2.3,2.3,0,0,0-.3,1.231A2.54,2.54,0,0,0,1.65,3.769,3.081,3.081,0,0,1,.525,3.462h0a2.468,2.468,0,0,0,1.95,2.462,1.092,1.092,0,0,1-.675.154A.93.93,0,0,1,1.35,6,2.439,2.439,0,0,0,3.675,7.769,4.694,4.694,0,0,1,.6,8.846H0A6.553,6.553,0,0,0,3.75,10a7.039,7.039,0,0,0,6.975-7.154V2.538A4.428,4.428,0,0,0,12,1.154Z" fill="#93989b"/>
</svg>
