<svg xmlns="http://www.w3.org/2000/svg" width="27.145" height="26.889" viewBox="0 0 27.145 26.889">
  <path id="womens" d="M4800.915,13937.889a1.593,1.593,0,0,1-1.588-1.588v-1.553a2.242,2.242,0,0,0-3.285,0v1.557a1.593,1.593,0,0,1-1.588,1.588h-1.763a1.593,1.593,0,0,1-1.588-1.588v-1.557a9.19,9.19,0,0,1-1.641-.714,8.966,8.966,0,0,1-1.644.714v1.557a1.6,1.6,0,0,1-1.588,1.588h-1.76a1.593,1.593,0,0,1-1.588-1.588v-1.553c-1.536-.493-2.438-1.105-2.756-1.872a1.839,1.839,0,0,1,.15-1.626l0-.007a13.348,13.348,0,0,0,1.805-5.765,2.588,2.588,0,0,1,.822-1.68,2.547,2.547,0,0,1,.982-.562,3.174,3.174,0,1,1,3.362-5.359,2.633,2.633,0,0,1,1.2-1,3.185,3.185,0,0,1,1.672-5.877h0a3.18,3.18,0,0,1,1.679,5.866,2.491,2.491,0,0,1,.8.528,3.228,3.228,0,0,1,.965-.15,3.184,3.184,0,0,1,1.907.633,2.611,2.611,0,0,1,1.2-1,3.185,3.185,0,0,1,1.668-5.877h.007a3.184,3.184,0,0,1,1.683,5.87,2.634,2.634,0,0,1,.8.524,3.159,3.159,0,0,1,.955-.147,3.188,3.188,0,0,1,3.19,3.17v.01a3.08,3.08,0,0,1-1.713,2.81,2.56,2.56,0,0,1,1.8,2.242,13.313,13.313,0,0,0,1.805,5.761l.007.007a1.841,1.841,0,0,1,.15,1.627c-.318.772-1.221,1.385-2.756,1.871v1.557a1.593,1.593,0,0,1-1.588,1.588Zm-.2-1.588a.2.2,0,0,0,.2.2h1.76a.2.2,0,0,0,.2-.2v-1.238a7.491,7.491,0,0,1-2.151,0Zm-8.224,0a.2.2,0,0,0,.2.2h1.763a.2.2,0,0,0,.2-.2v-1.231a7.883,7.883,0,0,1-2.155,0Zm-8.22,0a.2.2,0,0,0,.2.2h1.76a.2.2,0,0,0,.2-.2v-1.231a7.936,7.936,0,0,1-2.151,0Zm15.643-10.714a14.554,14.554,0,0,1-.423,2.57,14.908,14.908,0,0,1-1.56,3.771l-.007.01a.491.491,0,0,0-.063.406c.112.332.668.581,1.078.763.056.027.112.053.165.077a6.645,6.645,0,0,0,5.338.014c.143-.077.293-.144.44-.206.388-.172.728-.318.839-.651a.536.536,0,0,0-.059-.395,14.754,14.754,0,0,1-1.994-6.363,1.184,1.184,0,0,0-1.172-1.07h-1.41A1.168,1.168,0,0,0,4799.918,13925.587Zm-16.444,0a14.462,14.462,0,0,1-.423,2.571,14.647,14.647,0,0,1-1.571,3.792.514.514,0,0,0-.06.385v.007c.1.328.441.479.833.65a4.319,4.319,0,0,1,.417.2,6.634,6.634,0,0,0,5.4-.015l.024-.01c.1-.046.206-.095.308-.147a2.185,2.185,0,0,1,.273-2.1,14.426,14.426,0,0,1-1.445-5.33,1.163,1.163,0,0,0-1.168-1.063h-1.417A1.179,1.179,0,0,0,4783.475,13925.583Zm8.22,0a14.556,14.556,0,0,1-1.584,5.625v0l-.031.057c-.042.073-.084.15-.126.224-.346.6-.462.892-.095,1.161a6.807,6.807,0,0,0,3.7,1.092,6.72,6.72,0,0,0,2.732-.574h0c.108-.049.22-.1.335-.16a2.172,2.172,0,0,1,.266-2.1,14.422,14.422,0,0,1-1.441-5.33,1.167,1.167,0,0,0-1.171-1.063h-1.417A1.18,1.18,0,0,0,4791.694,13925.583Zm-3.9-1.784a2.569,2.569,0,0,1,.818,1.68,1.98,1.98,0,1,0,1.693,0,2.592,2.592,0,0,1,.822-1.683,2.55,2.55,0,0,1,.986-.563,3.178,3.178,0,0,1-.791-5.058,2.638,2.638,0,0,0-.92-.126c-.144,0-.287.007-.423.011s-.248.007-.36.007c-.077,0-.143,0-.2-.007a1.2,1.2,0,0,0-1.165,1.067,3.161,3.161,0,0,1-1.273,4.016c-.055.032-.11.063-.166.092A2.548,2.548,0,0,1,4787.794,13923.8Zm8.224,0a2.588,2.588,0,0,1,.822,1.676,12.885,12.885,0,0,0,.843,3.771,13.034,13.034,0,0,0,.847-3.764,2.572,2.572,0,0,1,1.8-2.246,3.079,3.079,0,0,1-1.713-2.809v-.01a3.161,3.161,0,0,1,.927-2.239,2.67,2.67,0,0,0-.923-.126c-.14,0-.283.007-.42.011s-.245.007-.357.007c-.077,0-.143,0-.2-.007h0a1.176,1.176,0,0,0-1.162,1.039,3.185,3.185,0,0,1-1.431,4.138A2.568,2.568,0,0,1,4796.018,13923.8Zm4.009-3.382a1.768,1.768,0,1,0,1.77-1.784A1.745,1.745,0,0,0,4800.027,13920.417Zm-8.22,0a1.766,1.766,0,1,0,1.766-1.784A1.744,1.744,0,0,0,4791.807,13920.417Zm-8.241,0a1.786,1.786,0,1,0,1.787-1.77A1.788,1.788,0,0,0,4783.565,13920.42Zm4.771-6.243a1.786,1.786,0,1,0,1.788-1.767A1.794,1.794,0,0,0,4788.336,13914.177Zm8.224,0a1.786,1.786,0,1,0,1.784-1.77A1.787,1.787,0,0,0,4796.56,13914.18Z" transform="translate(-4780 -13911)"/>
</svg>
